<?xml version="1.0" encoding="utf-8"?>
<!-- Generator: Adobe Illustrator 16.0.0, SVG Export Plug-In . SVG Version: 6.00 Build 0)  -->
<!DOCTYPE svg PUBLIC "-//W3C//DTD SVG 1.1//EN" "http://www.w3.org/Graphics/SVG/1.1/DTD/svg11.dtd">
<svg version="1.1" id="Layer_1" xmlns="http://www.w3.org/2000/svg" xmlns:xlink="http://www.w3.org/1999/xlink" x="0px" y="0px"
	 width="908px" height="264.165px" viewBox="0 0 908 264.165" enable-background="new 0 0 908 264.165" xml:space="preserve">
<rect x="5.501" y="45.5" fill="none" stroke="#3FA9F5" stroke-width="3" stroke-miterlimit="10" width="896" height="41"/>
<rect x="8.501" y="48.5" fill="none" stroke="#7AC943" stroke-width="3" stroke-miterlimit="10" width="73" height="35"/>
<rect x="183.501" y="48.5" fill="none" stroke="#7AC943" stroke-width="3" stroke-miterlimit="10" width="134" height="35"/>
<rect x="334.501" y="48.5" fill="none" stroke="#7AC943" stroke-width="3" stroke-miterlimit="10" width="50" height="35"/>
<rect x="484.501" y="48.5" fill="none" stroke="#7AC943" stroke-width="3" stroke-miterlimit="10" width="50" height="35"/>
<rect x="638.501" y="48.5" fill="none" stroke="#7AC943" stroke-width="3" stroke-miterlimit="10" width="47" height="35"/>
<rect x="786.501" y="48.5" fill="none" stroke="#7AC943" stroke-width="3" stroke-miterlimit="10" width="32" height="35"/>
<g id="Layer_1_1_">
	<g>
		<rect x="12.002" y="8.667" fill="none" width="909.333" height="259.333"/>
		<path d="M18.735,9.782h15.451l-0.58,2.988H21.723l-1.512,7.734h10.758l-0.562,2.988H19.631l-2.443,12.533H13.62L18.735,9.782z"/>
		<path d="M38.686,9.782h4.5l4.641,21.604l4.201-21.604h3.428L50.34,36.026h-4.5L41.2,14.423l-4.219,21.604h-3.41L38.686,9.782z"/>
		<path d="M74.036,24.794l-2.197,11.232h-3.234l0.562-2.918c-0.844,1.102-1.84,1.948-2.988,2.54
			c-1.148,0.592-2.367,0.888-3.656,0.888c-1.793,0-3.226-0.489-4.298-1.468c-1.072-0.979-1.608-2.276-1.608-3.894
			c0-2.297,0.905-4.134,2.716-5.511s4.263-2.065,7.356-2.065h4.324l0.211-1.072c0.023-0.105,0.041-0.217,0.053-0.334
			c0.012-0.117,0.018-0.281,0.018-0.492c0-0.996-0.369-1.761-1.107-2.294c-0.738-0.533-1.793-0.8-3.164-0.8
			c-1.008,0-2.095,0.149-3.261,0.448c-1.166,0.299-2.399,0.747-3.7,1.345l0.615-3.164c1.266-0.457,2.467-0.8,3.604-1.028
			c1.137-0.228,2.227-0.343,3.27-0.343c2.18,0,3.876,0.479,5.089,1.441c1.213,0.961,1.819,2.291,1.819,3.99
			c0,0.375-0.035,0.867-0.105,1.477S74.176,24.056,74.036,24.794z M67.514,26.13c-1.395,0-2.432,0.044-3.111,0.132
			c-0.679,0.088-1.271,0.237-1.775,0.448c-0.797,0.316-1.436,0.835-1.916,1.556s-0.721,1.509-0.721,2.364
			c0,0.973,0.302,1.749,0.905,2.329s1.421,0.87,2.452,0.87c1.734,0,3.231-0.621,4.491-1.863c1.26-1.242,2.112-2.947,2.558-5.115
			l0.141-0.721H67.514z"/>
		<path d="M90.173,18.343c0.457-0.797,1.051-1.409,1.783-1.837c0.732-0.428,1.551-0.642,2.453-0.642
			c1.008,0,1.812,0.319,2.416,0.958c0.604,0.639,0.906,1.497,0.906,2.575c0,0.633-0.053,1.348-0.158,2.145
			c-0.105,0.797-0.281,1.822-0.527,3.076l-2.232,11.408H91.86l2.197-11.268c0.211-1.078,0.371-1.96,0.482-2.646
			c0.111-0.687,0.168-1.169,0.168-1.45c0-0.738-0.135-1.271-0.404-1.6c-0.269-0.329-0.703-0.492-1.301-0.492
			c-0.879,0-1.564,0.378-2.057,1.134c-0.493,0.756-0.99,2.44-1.494,5.054l-2.198,11.268H84.3l2.197-11.268
			c0.223-1.137,0.384-2.036,0.483-2.698s0.149-1.128,0.149-1.397c0-0.715-0.138-1.242-0.413-1.582c-0.275-0.34-0.7-0.51-1.274-0.51
			c-0.867,0-1.538,0.349-2.013,1.046c-0.475,0.697-0.976,2.411-1.503,5.142l-2.197,11.268h-2.953l3.814-19.688h2.953l-0.334,1.688
			c0.516-0.703,1.099-1.239,1.749-1.608s1.351-0.554,2.101-0.554c0.879,0,1.588,0.22,2.127,0.659
			C89.728,16.963,90.056,17.569,90.173,18.343z"/>
		<path d="M115.591,35.024c-1.23,0.504-2.432,0.882-3.604,1.134c-1.172,0.252-2.361,0.378-3.568,0.378
			c-2.613,0-4.6-0.653-5.959-1.96c-1.359-1.307-2.039-3.214-2.039-5.722c0-1.828,0.352-3.621,1.055-5.379
			c0.703-1.758,1.676-3.275,2.918-4.553c0.973-1.008,2.048-1.775,3.226-2.303c1.178-0.528,2.405-0.791,3.683-0.791
			c2.18,0,3.923,0.671,5.229,2.013c1.306,1.342,1.96,3.132,1.96,5.37c0,0.398-0.029,0.894-0.088,1.485
			c-0.059,0.591-0.158,1.345-0.299,2.259h-14.186c-0.07,0.375-0.123,0.715-0.158,1.02c-0.035,0.305-0.053,0.574-0.053,0.809
			c0,1.629,0.451,2.871,1.354,3.727c0.903,0.856,2.215,1.283,3.938,1.283c1.031,0,2.159-0.167,3.384-0.501
			c1.225-0.334,2.505-0.829,3.841-1.485L115.591,35.024z M115.187,24.442c0.07-0.316,0.117-0.577,0.141-0.782
			s0.035-0.401,0.035-0.589c0-1.406-0.381-2.502-1.143-3.287c-0.762-0.785-1.822-1.178-3.182-1.178
			c-1.441,0-2.757,0.527-3.946,1.582c-1.189,1.055-2.042,2.473-2.558,4.254H115.187z"/>
		<path d="M191.88,9.782h3.551l-4.535,23.256h12.674l-0.58,2.988h-16.225L191.88,9.782z"/>
		<path d="M212.077,9.782h4.5l4.641,21.604l4.201-21.604h3.428l-5.115,26.244h-4.5l-4.641-21.604l-4.219,21.604h-3.41L212.077,9.782
			z"/>
		<path d="M247.427,24.794l-2.197,11.232h-3.234l0.562-2.918c-0.844,1.102-1.84,1.948-2.988,2.54
			c-1.148,0.592-2.367,0.888-3.656,0.888c-1.793,0-3.226-0.489-4.298-1.468c-1.072-0.979-1.608-2.276-1.608-3.894
			c0-2.297,0.905-4.134,2.716-5.511s4.263-2.065,7.356-2.065h4.324l0.211-1.072c0.023-0.105,0.041-0.217,0.053-0.334
			c0.012-0.117,0.018-0.281,0.018-0.492c0-0.996-0.369-1.761-1.107-2.294c-0.738-0.533-1.793-0.8-3.164-0.8
			c-1.008,0-2.095,0.149-3.261,0.448c-1.166,0.299-2.399,0.747-3.7,1.345l0.615-3.164c1.266-0.457,2.467-0.8,3.604-1.028
			c1.137-0.228,2.227-0.343,3.27-0.343c2.18,0,3.876,0.479,5.089,1.441c1.213,0.961,1.819,2.291,1.819,3.99
			c0,0.375-0.035,0.867-0.105,1.477C247.676,23.382,247.567,24.056,247.427,24.794z M240.905,26.13
			c-1.395,0-2.432,0.044-3.111,0.132c-0.679,0.088-1.271,0.237-1.775,0.448c-0.797,0.316-1.436,0.835-1.916,1.556
			s-0.721,1.509-0.721,2.364c0,0.973,0.302,1.749,0.905,2.329s1.421,0.87,2.452,0.87c1.734,0,3.231-0.621,4.491-1.863
			c1.26-1.242,2.112-2.947,2.558-5.115l0.141-0.721H240.905z"/>
		<path d="M263.563,18.343c0.457-0.797,1.052-1.409,1.784-1.837c0.732-0.428,1.55-0.642,2.452-0.642
			c1.008,0,1.813,0.319,2.417,0.958c0.604,0.639,0.905,1.497,0.905,2.575c0,0.633-0.053,1.348-0.158,2.145s-0.281,1.822-0.527,3.076
			l-2.232,11.408h-2.953l2.197-11.268c0.211-1.078,0.372-1.96,0.483-2.646c0.111-0.687,0.167-1.169,0.167-1.45
			c0-0.738-0.135-1.271-0.404-1.6s-0.703-0.492-1.301-0.492c-0.879,0-1.564,0.378-2.057,1.134s-0.99,2.44-1.494,5.054l-2.197,11.268
			h-2.953l2.197-11.268c0.223-1.137,0.384-2.036,0.483-2.698s0.149-1.128,0.149-1.397c0-0.715-0.138-1.242-0.413-1.582
			s-0.7-0.51-1.274-0.51c-0.867,0-1.538,0.349-2.013,1.046c-0.475,0.697-0.976,2.411-1.503,5.142l-2.197,11.268h-2.953l3.814-19.688
			h2.953l-0.334,1.688c0.516-0.703,1.099-1.239,1.749-1.608s1.351-0.554,2.101-0.554c0.879,0,1.588,0.22,2.127,0.659
			S263.446,17.569,263.563,18.343z"/>
		<path d="M288.981,35.024c-1.23,0.504-2.432,0.882-3.604,1.134s-2.361,0.378-3.568,0.378c-2.613,0-4.6-0.653-5.959-1.96
			c-1.359-1.307-2.039-3.214-2.039-5.722c0-1.828,0.352-3.621,1.055-5.379c0.703-1.758,1.676-3.275,2.918-4.553
			c0.973-1.008,2.048-1.775,3.226-2.303c1.178-0.528,2.405-0.791,3.683-0.791c2.18,0,3.923,0.671,5.229,2.013
			c1.306,1.342,1.96,3.132,1.96,5.37c0,0.398-0.029,0.894-0.088,1.485c-0.059,0.591-0.158,1.345-0.299,2.259H277.31
			c-0.07,0.375-0.123,0.715-0.158,1.02c-0.035,0.305-0.053,0.574-0.053,0.809c0,1.629,0.451,2.871,1.354,3.727
			c0.903,0.856,2.215,1.283,3.938,1.283c1.031,0,2.159-0.167,3.384-0.501s2.505-0.829,3.841-1.485L288.981,35.024z M288.577,24.442
			c0.07-0.316,0.117-0.577,0.141-0.782c0.024-0.205,0.035-0.401,0.035-0.589c0-1.406-0.381-2.502-1.143-3.287
			c-0.762-0.785-1.822-1.178-3.182-1.178c-1.441,0-2.757,0.527-3.946,1.582s-2.042,2.473-2.558,4.254H288.577z"/>
		<path d="M343.157,9.782h15.557l-0.58,2.988H346.11l-1.513,7.77h11.479l-0.562,2.988h-11.496l-1.827,9.51h12.34l-0.58,2.988
			h-15.908L343.157,9.782z"/>
		<path d="M380.02,16.339l-9,9.615l5.59,10.072h-3.463l-4.289-7.805l-7.33,7.805h-3.974l9.914-10.477l-5.149-9.211h3.444
			l3.814,6.943l6.485-6.943L380.02,16.339L380.02,16.339z"/>
		<path d="M399.145,24.794l-2.197,11.232h-3.234l0.562-2.918c-0.845,1.102-1.84,1.948-2.988,2.54
			c-1.148,0.592-2.367,0.888-3.656,0.888c-1.793,0-3.226-0.489-4.298-1.468s-1.608-2.276-1.608-3.894
			c0-2.297,0.905-4.134,2.717-5.511c1.811-1.377,4.263-2.065,7.355-2.065h4.324l0.211-1.072c0.023-0.105,0.041-0.217,0.053-0.334
			c0.013-0.117,0.019-0.281,0.019-0.492c0-0.996-0.369-1.761-1.107-2.294c-0.738-0.533-1.793-0.8-3.164-0.8
			c-1.008,0-2.095,0.149-3.261,0.448c-1.166,0.299-2.399,0.747-3.7,1.345l0.615-3.164c1.266-0.457,2.467-0.8,3.604-1.028
			c1.138-0.228,2.228-0.343,3.271-0.343c2.18,0,3.876,0.479,5.089,1.441c1.213,0.961,1.819,2.291,1.819,3.99
			c0,0.375-0.035,0.867-0.105,1.477S399.284,24.056,399.145,24.794z M392.622,26.13c-1.396,0-2.432,0.044-3.111,0.132
			c-0.679,0.088-1.271,0.237-1.774,0.448c-0.797,0.316-1.437,0.835-1.916,1.556c-0.48,0.721-0.722,1.509-0.722,2.364
			c0,0.973,0.303,1.749,0.905,2.329c0.604,0.58,1.421,0.87,2.452,0.87c1.734,0,3.231-0.621,4.491-1.863
			c1.26-1.242,2.111-2.947,2.558-5.115l0.142-0.721H392.622z"/>
		<path d="M415.28,18.343c0.457-0.797,1.052-1.409,1.784-1.837c0.731-0.428,1.55-0.642,2.451-0.642c1.009,0,1.813,0.319,2.417,0.958
			c0.604,0.639,0.905,1.497,0.905,2.575c0,0.633-0.053,1.348-0.158,2.145c-0.104,0.797-0.28,1.822-0.526,3.076l-2.232,11.408h-2.953
			l2.197-11.268c0.211-1.078,0.372-1.96,0.483-2.646c0.11-0.687,0.166-1.169,0.166-1.45c0-0.738-0.135-1.271-0.403-1.6
			c-0.27-0.329-0.703-0.492-1.301-0.492c-0.88,0-1.564,0.378-2.058,1.134s-0.99,2.44-1.494,5.054l-2.196,11.268h-2.953l2.196-11.268
			c0.224-1.137,0.385-2.036,0.483-2.698s0.149-1.128,0.149-1.397c0-0.715-0.139-1.242-0.413-1.582c-0.275-0.34-0.7-0.51-1.274-0.51
			c-0.867,0-1.538,0.349-2.013,1.046c-0.476,0.697-0.976,2.411-1.503,5.142l-2.197,11.268h-2.953l3.814-19.688h2.953l-0.334,1.688
			c0.516-0.703,1.099-1.239,1.749-1.608c0.649-0.369,1.351-0.554,2.101-0.554c0.879,0,1.588,0.22,2.127,0.659
			S415.163,17.569,415.28,18.343z"/>
		<path d="M426.548,33.038h5.502l3.886-20.057l-6.188,1.336l0.615-3.234l6.188-1.301h3.568l-4.535,23.256h5.432l-0.579,2.988
			h-14.468L426.548,33.038z"/>
		<path d="M494.875,9.782h15.557l-0.58,2.988H497.83l-1.512,7.77h11.479l-0.562,2.988h-11.496l-1.828,9.51h12.34l-0.58,2.988
			h-15.908L494.875,9.782z"/>
		<path d="M531.736,16.339l-9,9.615l5.59,10.072h-3.463l-4.289-7.805l-7.33,7.805h-3.973l9.914-10.477l-5.15-9.211h3.445
			l3.814,6.943l6.486-6.943L531.736,16.339L531.736,16.339z"/>
		<path d="M550.861,24.794l-2.197,11.232h-3.234l0.562-2.918c-0.844,1.102-1.84,1.948-2.988,2.54
			c-1.146,0.592-2.367,0.888-3.656,0.888c-1.793,0-3.227-0.489-4.299-1.468s-1.605-2.276-1.605-3.894
			c0-2.297,0.902-4.134,2.715-5.511c1.811-1.377,4.264-2.065,7.355-2.065h4.324l0.211-1.072c0.023-0.105,0.041-0.217,0.053-0.334
			c0.014-0.117,0.02-0.281,0.02-0.492c0-0.996-0.369-1.761-1.107-2.294c-0.738-0.533-1.793-0.8-3.164-0.8
			c-1.008,0-2.096,0.149-3.262,0.448c-1.166,0.299-2.398,0.747-3.699,1.345l0.615-3.164c1.266-0.457,2.467-0.8,3.604-1.028
			s2.227-0.343,3.27-0.343c2.18,0,3.875,0.479,5.088,1.441c1.213,0.961,1.82,2.291,1.82,3.99c0,0.375-0.035,0.867-0.105,1.477
			C551.111,23.382,551.001,24.056,550.861,24.794z M544.339,26.13c-1.395,0-2.432,0.044-3.111,0.132
			c-0.68,0.088-1.271,0.237-1.775,0.448c-0.797,0.316-1.436,0.835-1.916,1.556s-0.721,1.509-0.721,2.364
			c0,0.973,0.301,1.749,0.904,2.329s1.422,0.87,2.453,0.87c1.734,0,3.23-0.621,4.49-1.863c1.26-1.242,2.111-2.947,2.559-5.115
			l0.141-0.721H544.339z"/>
		<path d="M566.998,18.343c0.457-0.797,1.051-1.409,1.783-1.837c0.732-0.428,1.551-0.642,2.453-0.642
			c1.008,0,1.812,0.319,2.416,0.958c0.604,0.639,0.906,1.497,0.906,2.575c0,0.633-0.053,1.348-0.158,2.145s-0.281,1.822-0.527,3.076
			l-2.232,11.408h-2.953l2.197-11.268c0.211-1.078,0.371-1.96,0.482-2.646c0.111-0.687,0.168-1.169,0.168-1.45
			c0-0.738-0.135-1.271-0.404-1.6c-0.268-0.329-0.703-0.492-1.301-0.492c-0.879,0-1.564,0.378-2.057,1.134s-0.99,2.44-1.494,5.054
			l-2.197,11.268h-2.953l2.197-11.268c0.223-1.137,0.383-2.036,0.482-2.698s0.15-1.128,0.15-1.397c0-0.715-0.139-1.242-0.414-1.582
			s-0.699-0.51-1.273-0.51c-0.867,0-1.539,0.349-2.014,1.046c-0.475,0.697-0.975,2.411-1.502,5.142l-2.197,11.268h-2.953
			l3.814-19.688h2.953l-0.334,1.688c0.516-0.703,1.098-1.239,1.748-1.608c0.648-0.369,1.352-0.554,2.102-0.554
			c0.879,0,1.588,0.22,2.127,0.659S566.88,17.569,566.998,18.343z"/>
		<path d="M580.23,33.038h12.027l-0.562,2.988h-16.066l0.58-2.988l5.467-4.816l0.688-0.615c6.293-5.52,9.438-9.469,9.438-11.848
			c0-1.09-0.375-1.945-1.125-2.566c-0.75-0.621-1.793-0.932-3.129-0.932c-1.078,0-2.238,0.196-3.479,0.589
			c-1.242,0.393-2.604,0.987-4.078,1.784l0.721-3.586c1.311-0.574,2.58-1.008,3.805-1.301s2.406-0.439,3.543-0.439
			c2.168,0,3.92,0.568,5.256,1.705c1.336,1.137,2.004,2.613,2.004,4.43c0,1.125-0.209,2.194-0.625,3.208s-1.104,2.124-2.064,3.331
			c-0.387,0.492-1.084,1.201-2.092,2.127c-1.008,0.926-2.566,2.297-4.676,4.113L580.23,33.038z"/>
		<path d="M647.277,9.782h15.451l-0.58,2.988h-11.883l-1.512,7.734h10.758l-0.562,2.988h-10.775l-2.443,12.533h-3.566L647.277,9.782
			z"/>
		<path d="M668.511,16.339h8.279l-3.34,17.174h6.416l-0.512,2.514h-16.064l0.51-2.514h6.416l2.83-14.66h-5.027L668.511,16.339z
			 M675.033,8.675h3.234l-0.791,4.096h-3.234L675.033,8.675z"/>
		<path d="M702.789,23.827l-2.373,12.199h-3.234l2.373-12.217c0.014-0.047,0.029-0.129,0.055-0.246
			c0.176-0.832,0.264-1.477,0.264-1.934c0-0.949-0.273-1.679-0.818-2.188c-0.545-0.509-1.326-0.765-2.346-0.765
			c-1.488,0-2.754,0.545-3.797,1.635c-1.043,1.09-1.758,2.619-2.146,4.588l-2.162,11.127h-3.232l3.85-19.688h3.234l-0.562,2.953
			c0.879-1.137,1.83-1.992,2.855-2.566c1.023-0.574,2.111-0.861,3.262-0.861c1.629,0,2.895,0.425,3.797,1.273
			c0.902,0.85,1.354,2.036,1.354,3.561c0,0.375-0.033,0.838-0.098,1.389S702.906,23.218,702.789,23.827z"/>
		<path d="M724.251,24.794l-2.197,11.232h-3.234l0.562-2.918c-0.844,1.102-1.84,1.948-2.988,2.54
			c-1.148,0.592-2.367,0.888-3.656,0.888c-1.793,0-3.227-0.489-4.299-1.468s-1.607-2.276-1.607-3.894
			c0-2.297,0.904-4.134,2.715-5.511c1.812-1.377,4.264-2.065,7.357-2.065h4.324l0.211-1.072c0.023-0.105,0.041-0.217,0.053-0.334
			c0.012-0.117,0.018-0.281,0.018-0.492c0-0.996-0.369-1.761-1.105-2.294c-0.738-0.533-1.793-0.8-3.164-0.8
			c-1.01,0-2.098,0.149-3.264,0.448c-1.166,0.299-2.396,0.747-3.697,1.345l0.613-3.164c1.268-0.457,2.469-0.8,3.605-1.028
			s2.227-0.343,3.27-0.343c2.18,0,3.875,0.479,5.088,1.441c1.213,0.961,1.82,2.291,1.82,3.99c0,0.375-0.035,0.867-0.105,1.477
			S724.392,24.056,724.251,24.794z M717.73,26.13c-1.395,0-2.432,0.044-3.111,0.132c-0.68,0.088-1.271,0.237-1.775,0.448
			c-0.797,0.316-1.436,0.835-1.916,1.556c-0.479,0.721-0.721,1.509-0.721,2.364c0,0.973,0.301,1.749,0.904,2.329
			s1.422,0.87,2.453,0.87c1.734,0,3.23-0.621,4.49-1.863c1.26-1.242,2.113-2.947,2.559-5.115l0.141-0.721H717.73z"/>
		<path d="M737.787,28.854c-0.082,0.41-0.145,0.773-0.186,1.09s-0.061,0.58-0.061,0.791c0,0.855,0.26,1.494,0.781,1.916
			c0.52,0.422,1.314,0.633,2.383,0.633h3.709l-0.545,2.742h-3.639c-2.027,0-3.537-0.372-4.527-1.116s-1.484-1.884-1.484-3.419
			c0-0.328,0.029-0.727,0.088-1.195c0.059-0.468,0.141-0.973,0.246-1.512l3.709-17.771h-5.555l0.51-2.531h8.789L737.787,28.854z"/>
		<path d="M809.294,34.339c-1.02,0.727-2.133,1.274-3.34,1.644c-1.207,0.37-2.496,0.554-3.867,0.554
			c-2.719,0-4.809-0.788-6.268-2.364c-1.459-1.576-2.189-3.823-2.189-6.741c0-1.055,0.096-2.177,0.289-3.366s0.48-2.435,0.855-3.735
			c0.408-1.371,0.891-2.61,1.439-3.718c0.551-1.108,1.154-2.054,1.812-2.839c1.254-1.523,2.639-2.648,4.154-3.375
			c1.518-0.727,3.25-1.09,5.195-1.09c0.938,0,1.871,0.123,2.803,0.369c0.934,0.246,1.852,0.604,2.752,1.072l-0.721,3.639
			c-0.762-0.738-1.562-1.289-2.4-1.652c-0.838-0.363-1.729-0.545-2.68-0.545c-1.148,0-2.227,0.243-3.234,0.729
			c-1.006,0.486-1.908,1.204-2.707,2.153c-0.516,0.609-1.002,1.371-1.459,2.285c-0.455,0.914-0.859,1.939-1.213,3.076
			c-0.396,1.336-0.699,2.59-0.904,3.762c-0.205,1.172-0.309,2.231-0.309,3.182c0,2.004,0.463,3.551,1.391,4.641
			c0.926,1.09,2.236,1.635,3.938,1.635c0.797,0,1.512-0.108,2.145-0.325s1.166-0.53,1.6-0.94l1.336-6.908h-3.814l0.527-2.918h7.207
			L809.294,34.339z"/>
		<path d="M834.748,20.399c-0.527-0.516-1.141-0.902-1.838-1.16c-0.697-0.258-1.49-0.387-2.381-0.387
			c-1.922,0-3.568,0.671-4.939,2.013c-1.371,1.342-2.279,3.179-2.725,5.511l-1.881,9.65h-3.234l3.814-19.688h3.234l-0.703,3.85
			c0.785-1.406,1.801-2.479,3.049-3.217c1.248-0.738,2.664-1.106,4.246-1.106c0.832,0,1.584,0.108,2.258,0.325
			c0.674,0.217,1.246,0.53,1.715,0.94L834.748,20.399z"/>
		<path d="M854.294,24.794l-2.197,11.232h-3.234l0.562-2.918c-0.844,1.102-1.84,1.948-2.988,2.54
			c-1.148,0.592-2.367,0.888-3.656,0.888c-1.793,0-3.227-0.489-4.299-1.468s-1.607-2.276-1.607-3.894
			c0-2.297,0.904-4.134,2.715-5.511c1.812-1.377,4.264-2.065,7.357-2.065h4.324l0.211-1.072c0.023-0.105,0.041-0.217,0.053-0.334
			c0.012-0.117,0.018-0.281,0.018-0.492c0-0.996-0.369-1.761-1.105-2.294c-0.738-0.533-1.793-0.8-3.164-0.8
			c-1.008,0-2.098,0.149-3.264,0.448c-1.166,0.299-2.396,0.747-3.697,1.345l0.613-3.164c1.268-0.457,2.469-0.8,3.605-1.028
			s2.227-0.343,3.27-0.343c2.18,0,3.875,0.479,5.088,1.441c1.213,0.961,1.82,2.291,1.82,3.99c0,0.375-0.035,0.867-0.105,1.477
			S854.435,24.056,854.294,24.794z M847.773,26.13c-1.395,0-2.432,0.044-3.111,0.132c-0.678,0.088-1.271,0.237-1.775,0.448
			c-0.797,0.316-1.436,0.835-1.916,1.556c-0.479,0.721-0.721,1.509-0.721,2.364c0,0.973,0.301,1.749,0.904,2.329
			s1.422,0.87,2.453,0.87c1.734,0,3.23-0.621,4.49-1.863c1.26-1.242,2.113-2.947,2.559-5.115l0.141-0.721H847.773z"/>
		<path d="M874.052,18.853l2.021-10.178h3.232l-5.326,27.352h-3.232l0.475-2.479c-0.762,0.984-1.627,1.729-2.594,2.232
			c-0.967,0.503-2.035,0.756-3.207,0.756c-1.91,0-3.396-0.615-4.457-1.846s-1.59-2.947-1.59-5.15c0-1.676,0.234-3.36,0.703-5.054
			c0.469-1.694,1.105-3.173,1.916-4.438c0.879-1.383,1.912-2.426,3.102-3.129s2.512-1.055,3.965-1.055
			c1.137,0,2.133,0.255,2.988,0.765C872.904,17.139,873.572,17.88,874.052,18.853z M869.341,18.606
			c-1.031,0-1.939,0.255-2.725,0.765c-0.787,0.51-1.447,1.274-1.986,2.294c-0.574,1.055-1.02,2.253-1.336,3.595
			c-0.316,1.342-0.475,2.688-0.475,4.034c0,1.5,0.299,2.625,0.895,3.375c0.598,0.75,1.488,1.125,2.672,1.125
			c0.996,0,1.896-0.264,2.697-0.791c0.803-0.527,1.486-1.307,2.049-2.338c0.574-1.02,1.025-2.206,1.355-3.56
			c0.328-1.354,0.49-2.698,0.49-4.034c0-1.406-0.318-2.502-0.959-3.287C871.38,18.999,870.49,18.606,869.341,18.606z"/>
		<path d="M895.849,35.024c-1.23,0.504-2.432,0.882-3.604,1.134s-2.361,0.378-3.568,0.378c-2.613,0-4.6-0.653-5.959-1.96
			c-1.359-1.307-2.039-3.214-2.039-5.722c0-1.828,0.352-3.621,1.055-5.379c0.703-1.758,1.676-3.275,2.918-4.553
			c0.973-1.008,2.047-1.775,3.225-2.303c1.178-0.528,2.406-0.791,3.684-0.791c2.182,0,3.924,0.671,5.23,2.013
			c1.307,1.342,1.961,3.132,1.961,5.37c0,0.398-0.029,0.894-0.088,1.485c-0.061,0.591-0.158,1.345-0.299,2.259h-14.188
			c-0.068,0.375-0.123,0.715-0.158,1.02c-0.033,0.305-0.053,0.574-0.053,0.809c0,1.629,0.451,2.871,1.355,3.727
			c0.902,0.856,2.215,1.283,3.938,1.283c1.031,0,2.158-0.167,3.383-0.501s2.506-0.829,3.842-1.485L895.849,35.024z M895.445,24.442
			c0.07-0.316,0.117-0.577,0.141-0.782c0.025-0.205,0.035-0.401,0.035-0.589c0-1.406-0.381-2.502-1.143-3.287
			c-0.762-0.785-1.822-1.178-3.182-1.178c-1.441,0-2.758,0.527-3.947,1.582s-2.041,2.473-2.557,4.254H895.445z"/>
		<path d="M31.409,77.064c-0.949,0.879-2.019,1.544-3.208,1.995c-1.189,0.451-2.476,0.677-3.858,0.677
			c-3.328,0-5.918-1.192-7.77-3.577c-1.852-2.385-2.777-5.728-2.777-10.028c0-4.289,0.938-7.632,2.812-10.028
			s4.482-3.595,7.822-3.595c1.102,0,2.156,0.155,3.164,0.466c1.008,0.311,1.98,0.782,2.918,1.415v3.639
			c-0.949-0.902-1.922-1.567-2.918-1.995c-0.996-0.428-2.051-0.642-3.164-0.642c-2.309,0-4.04,0.894-5.194,2.681
			c-1.154,1.787-1.731,4.474-1.731,8.06c0,3.645,0.56,6.343,1.679,8.095s2.839,2.628,5.159,2.628c0.785,0,1.474-0.091,2.065-0.272
			c0.591-0.181,1.128-0.466,1.608-0.853v-7.049h-3.814v-2.918h7.207V77.064z"/>
		<path d="M39.231,59.609h8.279v17.104h6.416v2.514H37.86v-2.514h6.416v-14.59h-5.045V59.609z M44.276,51.962h3.234v4.078h-3.234
			V51.962z"/>
		<path d="M67.989,72.107c0,1.453,0.267,2.549,0.8,3.287c0.533,0.738,1.321,1.107,2.364,1.107h3.779v2.725h-4.096
			c-1.934,0-3.431-0.618-4.491-1.854c-1.06-1.236-1.591-2.991-1.591-5.265V54.3h-5.186v-2.531h8.42L67.989,72.107L67.989,72.107z"/>
		<path d="M204.255,78.294c-0.902,0.48-1.828,0.841-2.777,1.081c-0.949,0.24-1.957,0.36-3.023,0.36
			c-3.363,0-5.974-1.189-7.831-3.568s-2.786-5.725-2.786-10.037c0-4.289,0.935-7.632,2.804-10.028s4.474-3.595,7.813-3.595
			c1.066,0,2.074,0.12,3.023,0.36c0.949,0.24,1.875,0.601,2.777,1.081v3.639c-0.867-0.715-1.799-1.26-2.795-1.635
			s-1.998-0.562-3.006-0.562c-2.309,0-4.037,0.891-5.186,2.672s-1.723,4.471-1.723,8.068c0,3.586,0.574,6.27,1.723,8.051
			c1.149,1.781,2.877,2.672,5.186,2.672c1.031,0,2.042-0.188,3.032-0.562c0.99-0.374,1.913-0.92,2.769-1.635V78.294z"/>
		<path d="M217.896,59.064c2.73,0,4.819,0.885,6.267,2.654c1.448,1.77,2.171,4.33,2.171,7.682c0,3.363-0.721,5.927-2.162,7.69
			c-1.441,1.763-3.533,2.646-6.275,2.646c-2.73,0-4.816-0.882-6.258-2.646c-1.442-1.764-2.162-4.327-2.162-7.69
			c0-3.352,0.721-5.912,2.162-7.682C213.08,59.948,215.165,59.064,217.896,59.064z M217.896,61.806
			c-1.641,0-2.883,0.639-3.727,1.916c-0.844,1.277-1.266,3.17-1.266,5.678c0,2.496,0.422,4.386,1.266,5.669
			c0.844,1.283,2.086,1.925,3.727,1.925c1.652,0,2.9-0.642,3.744-1.925c0.844-1.283,1.266-3.173,1.266-5.669
			c0-2.508-0.422-4.4-1.266-5.678C220.796,62.444,219.548,61.806,217.896,61.806z"/>
		<path d="M247.216,67.027v12.199h-3.252V67.027c0-1.77-0.311-3.07-0.932-3.902c-0.621-0.832-1.594-1.248-2.918-1.248
			c-1.512,0-2.675,0.536-3.489,1.608c-0.814,1.072-1.222,2.61-1.222,4.614v11.127h-3.234V59.539h3.234v2.953
			c0.574-1.125,1.354-1.978,2.338-2.558c0.984-0.58,2.15-0.87,3.498-0.87c2.004,0,3.501,0.659,4.491,1.978
			S247.216,64.355,247.216,67.027z"/>
		<path d="M270.718,63.599c-0.691-0.539-1.395-0.932-2.109-1.178c-0.714-0.246-1.5-0.369-2.355-0.369
			c-2.016,0-3.557,0.633-4.623,1.898c-1.066,1.265-1.6,3.094-1.6,5.484v9.791h-3.252V59.539h3.252v3.85
			c0.539-1.395,1.368-2.464,2.487-3.208c1.119-0.744,2.446-1.116,3.981-1.116c0.797,0,1.541,0.1,2.232,0.299
			c0.691,0.199,1.354,0.51,1.986,0.932L270.718,63.599L270.718,63.599z"/>
		<path d="M290.704,67.994v11.232h-3.252v-2.918c-0.691,1.172-1.562,2.036-2.61,2.593c-1.048,0.557-2.323,0.835-3.823,0.835
			c-2.004,0-3.604-0.565-4.799-1.696c-1.195-1.131-1.793-2.646-1.793-4.544c0-2.191,0.735-3.855,2.206-4.992
			c1.471-1.137,3.63-1.705,6.478-1.705h4.342v-0.51c-0.012-1.57-0.41-2.71-1.195-3.419c-0.785-0.709-2.039-1.063-3.762-1.063
			c-1.102,0-2.215,0.158-3.34,0.475c-1.125,0.317-2.221,0.779-3.287,1.389v-3.234c1.195-0.457,2.341-0.8,3.437-1.028
			c1.096-0.228,2.159-0.343,3.19-0.343c1.629,0,3.021,0.24,4.175,0.721c1.154,0.481,2.089,1.201,2.804,2.162
			c0.445,0.586,0.762,1.31,0.949,2.171C290.611,64.981,290.704,66.271,290.704,67.994z M284.429,69.33h-1.072
			c-1.887,0-3.308,0.331-4.263,0.993c-0.955,0.662-1.433,1.649-1.433,2.962c0,1.184,0.357,2.104,1.072,2.76
			c0.715,0.656,1.705,0.984,2.971,0.984c1.781,0,3.182-0.618,4.201-1.854c1.019-1.236,1.535-2.944,1.547-5.124V69.33H284.429z"/>
		<path d="M308.845,62.052V51.875h3.234v27.352h-3.234v-2.479c-0.539,0.973-1.257,1.714-2.152,2.224
			c-0.896,0.51-1.932,0.765-3.104,0.765c-2.379,0-4.251-0.923-5.616-2.77c-1.365-1.846-2.048-4.392-2.048-7.638
			c0-3.199,0.686-5.71,2.057-7.532c1.371-1.822,3.24-2.733,5.607-2.733c1.184,0,2.227,0.255,3.129,0.765
			C307.62,60.34,308.329,61.08,308.845,62.052z M299.335,69.4c0,2.508,0.398,4.4,1.195,5.678c0.797,1.278,1.975,1.916,3.533,1.916
			s2.745-0.645,3.56-1.934c0.814-1.289,1.222-3.176,1.222-5.66c0-2.496-0.407-4.386-1.222-5.669
			c-0.815-1.283-2.001-1.925-3.56-1.925s-2.736,0.639-3.533,1.916C299.733,64.999,299.335,66.892,299.335,69.4z"/>
		<path d="M341.259,78.681v-3.27c0.738,0.434,1.523,0.765,2.355,0.993c0.832,0.228,1.698,0.343,2.602,0.343
			c2.25,0,3.952-0.847,5.106-2.54c1.153-1.693,1.73-4.187,1.73-7.479c-0.551,1.172-1.324,2.071-2.319,2.698
			c-0.996,0.627-2.14,0.94-3.429,0.94c-2.531,0-4.49-0.779-5.88-2.338c-1.389-1.559-2.083-3.768-2.083-6.627
			c0-2.824,0.712-5.013,2.136-6.565c1.425-1.552,3.438-2.329,6.038-2.329c3.047,0,5.279,1.096,6.697,3.287s2.127,5.637,2.127,10.336
			c0,4.418-0.853,7.79-2.558,10.116s-4.182,3.489-7.428,3.489c-0.854,0-1.717-0.091-2.584-0.272
			C342.904,79.282,342.067,79.021,341.259,78.681z M347.587,67.589c1.512,0,2.698-0.545,3.56-1.635
			c0.862-1.09,1.293-2.596,1.293-4.518s-0.432-3.428-1.293-4.518c-0.86-1.09-2.048-1.635-3.56-1.635
			c-1.57,0-2.754,0.519-3.551,1.556s-1.195,2.569-1.195,4.597c0,2.039,0.396,3.574,1.188,4.605S346.005,67.589,347.587,67.589z"/>
		<path d="M366.52,65.287c-1.513-0.387-2.692-1.107-3.543-2.162c-0.85-1.055-1.273-2.326-1.273-3.814
			c0-2.086,0.709-3.741,2.127-4.966c1.418-1.225,3.346-1.837,5.783-1.837c2.449,0,4.383,0.612,5.801,1.837
			c1.418,1.226,2.127,2.88,2.127,4.966c0,1.488-0.425,2.76-1.273,3.814c-0.85,1.054-2.03,1.775-3.543,2.162
			c1.759,0.387,3.104,1.166,4.034,2.338c0.932,1.172,1.397,2.689,1.397,4.553c0,2.367-0.756,4.219-2.269,5.555
			c-1.512,1.336-3.604,2.004-6.274,2.004s-4.762-0.665-6.268-1.995s-2.259-3.173-2.259-5.528c0-1.875,0.466-3.401,1.397-4.579
			C363.415,66.457,364.761,65.673,366.52,65.287z M369.612,66.763c-1.582,0-2.805,0.442-3.665,1.327
			c-0.861,0.885-1.292,2.136-1.292,3.753c0,1.617,0.437,2.874,1.31,3.771c0.873,0.896,2.089,1.345,3.647,1.345
			c1.594,0,2.82-0.442,3.683-1.327c0.862-0.885,1.292-2.147,1.292-3.788c0-1.604-0.437-2.854-1.31-3.744
			S371.183,66.763,369.612,66.763z M365.235,59.644c0,1.406,0.375,2.479,1.125,3.217c0.75,0.738,1.834,1.107,3.252,1.107
			c1.43,0,2.52-0.369,3.27-1.107c0.75-0.738,1.125-1.811,1.125-3.217c0-1.43-0.372-2.52-1.116-3.27s-1.837-1.125-3.277-1.125
			c-1.418,0-2.502,0.378-3.252,1.134C365.611,57.139,365.235,58.226,365.235,59.644z"/>
		<path d="M492.976,78.681v-3.27c0.738,0.434,1.523,0.765,2.355,0.993c0.832,0.228,1.699,0.343,2.602,0.343
			c2.25,0,3.951-0.847,5.105-2.54s1.73-4.187,1.73-7.479c-0.551,1.172-1.322,2.071-2.318,2.698s-2.141,0.94-3.43,0.94
			c-2.529,0-4.49-0.779-5.881-2.338c-1.389-1.559-2.082-3.768-2.082-6.627c0-2.824,0.711-5.013,2.137-6.565
			c1.424-1.552,3.438-2.329,6.039-2.329c3.047,0,5.277,1.096,6.695,3.287s2.127,5.637,2.127,10.336c0,4.418-0.854,7.79-2.559,10.116
			s-4.18,3.489-7.426,3.489c-0.855,0-1.717-0.091-2.584-0.272C494.621,79.282,493.785,79.021,492.976,78.681z M499.304,67.589
			c1.512,0,2.697-0.545,3.559-1.635s1.293-2.596,1.293-4.518s-0.432-3.428-1.293-4.518s-2.047-1.635-3.559-1.635
			c-1.57,0-2.754,0.519-3.551,1.556s-1.195,2.569-1.195,4.597c0,2.039,0.395,3.574,1.186,4.605S497.722,67.589,499.304,67.589z"/>
		<path d="M524.142,65.181c1.723,0.457,3.041,1.269,3.955,2.435s1.371,2.622,1.371,4.368c0,2.414-0.812,4.31-2.436,5.687
			c-1.625,1.377-3.869,2.065-6.74,2.065c-1.207,0-2.438-0.111-3.691-0.334s-2.484-0.545-3.691-0.967v-3.533
			c1.195,0.621,2.373,1.084,3.533,1.389c1.16,0.305,2.314,0.457,3.463,0.457c1.945,0,3.439-0.439,4.482-1.318
			c1.043-0.879,1.564-2.145,1.564-3.797c0-1.523-0.521-2.733-1.564-3.63s-2.455-1.345-4.236-1.345h-2.707V63.74h2.707
			c1.629,0,2.9-0.357,3.814-1.072s1.371-1.711,1.371-2.988c0-1.348-0.426-2.382-1.275-3.103c-0.85-0.721-2.059-1.081-3.629-1.081
			c-1.043,0-2.121,0.117-3.234,0.352s-2.279,0.586-3.498,1.055v-3.27c1.418-0.375,2.68-0.656,3.787-0.844s2.09-0.281,2.945-0.281
			c2.555,0,4.596,0.642,6.125,1.925c1.529,1.283,2.295,2.985,2.295,5.106c0,1.441-0.402,2.643-1.205,3.604
			S525.677,64.783,524.142,65.181z"/>
		<path d="M644.693,78.681v-3.27c0.738,0.434,1.523,0.765,2.355,0.993c0.832,0.228,1.699,0.343,2.602,0.343
			c2.25,0,3.951-0.847,5.105-2.54s1.732-4.187,1.732-7.479c-0.553,1.172-1.324,2.071-2.32,2.698s-2.139,0.94-3.428,0.94
			c-2.531,0-4.492-0.779-5.881-2.338c-1.391-1.559-2.082-3.768-2.082-6.627c0-2.824,0.711-5.013,2.135-6.565
			s3.438-2.329,6.039-2.329c3.047,0,5.277,1.096,6.697,3.287c1.418,2.191,2.127,5.637,2.127,10.336c0,4.418-0.855,7.79-2.561,10.116
			s-4.18,3.489-7.426,3.489c-0.855,0-1.717-0.091-2.584-0.272C646.337,79.282,645.501,79.021,644.693,78.681z M651.021,67.589
			c1.512,0,2.697-0.545,3.559-1.635c0.863-1.09,1.293-2.596,1.293-4.518s-0.432-3.428-1.293-4.518s-2.047-1.635-3.559-1.635
			c-1.57,0-2.754,0.519-3.551,1.556s-1.195,2.569-1.195,4.597c0,2.039,0.395,3.574,1.186,4.605S649.439,67.589,651.021,67.589z"/>
		<path d="M674.558,52.982h4.113v17.104h3.498v2.883h-3.498v6.258h-3.533v-6.258h-11.127v-3.356L674.558,52.982z M675.138,56.216
			l-8.279,13.869h8.279V56.216z"/>
		<path d="M800.945,52.982h4.307l8.033,26.244h-3.674l-1.934-6.838h-9.193l-1.898,6.838h-3.674L800.945,52.982z M803.089,56.111
			l-3.744,13.43h7.488L803.089,56.111z"/>
		<path d="M22.831,119.438L29,96.182h3.674l-7.682,26.244h-4.307l-7.682-26.244h3.674L22.831,119.438z"/>
		<path d="M53.364,110.965v1.582h-14.01v0.105c-0.094,2.684,0.419,4.611,1.538,5.783c1.119,1.172,2.698,1.758,4.737,1.758
			c1.031,0,2.109-0.164,3.234-0.492s2.326-0.826,3.604-1.494v3.217c-1.23,0.504-2.417,0.882-3.56,1.134
			c-1.143,0.252-2.247,0.378-3.313,0.378c-3.059,0-5.449-0.917-7.172-2.751c-1.723-1.834-2.584-4.362-2.584-7.585
			c0-3.141,0.844-5.648,2.531-7.523s3.938-2.812,6.75-2.812c2.508,0,4.485,0.85,5.933,2.549
			C52.5,106.513,53.27,108.563,53.364,110.965z M50.129,110.016c-0.141-1.359-0.636-2.534-1.485-3.524
			c-0.849-0.99-2.071-1.485-3.665-1.485c-1.559,0-2.842,0.516-3.85,1.547c-1.008,1.031-1.559,2.191-1.652,3.48L50.129,110.016z"/>
		<path d="M75.653,106.799c-0.691-0.539-1.395-0.932-2.109-1.178s-1.5-0.369-2.355-0.369c-2.016,0-3.557,0.633-4.623,1.898
			s-1.6,3.094-1.6,5.484v9.791h-3.252v-19.688h3.252v3.85c0.539-1.395,1.368-2.464,2.487-3.208c1.119-0.744,2.446-1.116,3.981-1.116
			c0.797,0,1.541,0.101,2.232,0.299s1.354,0.51,1.986,0.932L75.653,106.799L75.653,106.799z"/>
		<path d="M95.499,110.227v12.199h-3.252v-12.199c0-1.77-0.311-3.07-0.932-3.902s-1.594-1.248-2.918-1.248
			c-1.512,0-2.675,0.536-3.489,1.608c-0.814,1.072-1.222,2.61-1.222,4.614v11.127h-3.234v-19.688h3.234v2.953
			c0.574-1.125,1.354-1.978,2.338-2.558s2.15-0.87,3.499-0.87c2.004,0,3.5,0.659,4.49,1.979
			C95.003,105.56,95.499,107.555,95.499,110.227z"/>
		<path d="M185.394,96.182h3.463l2.514,21.305l2.988-14.098h3.709l3.023,14.133l2.514-21.34h3.463l-3.92,26.244h-3.357
			l-3.568-15.592l-3.551,15.592h-3.357L185.394,96.182z"/>
		<path d="M222.149,116.098c-0.539,1.371-1.225,3.176-2.057,5.414c-1.16,3.094-1.939,4.98-2.338,5.66
			c-0.539,0.914-1.213,1.6-2.021,2.057s-1.752,0.686-2.83,0.686h-2.602v-2.707h1.916c0.949,0,1.693-0.275,2.232-0.826
			c0.539-0.551,1.225-1.975,2.057-4.271l-7.611-19.371h3.428l5.836,15.398l5.748-15.398h3.428L222.149,116.098z"/>
		<path d="M247.216,110.227v12.199h-3.252v-12.199c0-1.77-0.311-3.07-0.932-3.902c-0.621-0.832-1.594-1.248-2.918-1.248
			c-1.512,0-2.675,0.536-3.489,1.608s-1.222,2.61-1.222,4.614v11.127h-3.234v-19.688h3.234v2.953
			c0.574-1.125,1.354-1.978,2.338-2.558c0.984-0.58,2.15-0.87,3.498-0.87c2.004,0,3.501,0.659,4.491,1.979
			C246.72,105.56,247.216,107.555,247.216,110.227z"/>
		<path d="M268.89,110.227v12.199h-3.252v-12.199c0-1.77-0.311-3.07-0.932-3.902s-1.594-1.248-2.918-1.248
			c-1.512,0-2.675,0.536-3.489,1.608s-1.222,2.61-1.222,4.614v11.127h-3.234v-19.688h3.234v2.953
			c0.574-1.125,1.354-1.978,2.338-2.558s2.15-0.87,3.498-0.87c2.004,0,3.501,0.659,4.491,1.979
			C268.394,105.56,268.89,107.555,268.89,110.227z"/>
		<path d="M291.776,110.965v1.582h-14.01v0.105c-0.094,2.684,0.419,4.611,1.538,5.783c1.119,1.172,2.698,1.758,4.737,1.758
			c1.031,0,2.109-0.164,3.234-0.492s2.326-0.826,3.604-1.494v3.217c-1.23,0.504-2.417,0.882-3.56,1.134s-2.247,0.378-3.313,0.378
			c-3.059,0-5.449-0.917-7.172-2.751s-2.584-4.362-2.584-7.585c0-3.141,0.844-5.648,2.531-7.523c1.687-1.875,3.938-2.812,6.75-2.812
			c2.508,0,4.485,0.85,5.933,2.549C290.912,106.513,291.683,108.563,291.776,110.965z M288.542,110.016
			c-0.141-1.359-0.636-2.534-1.485-3.524c-0.849-0.99-2.071-1.485-3.665-1.485c-1.559,0-2.842,0.516-3.85,1.547
			c-1.008,1.031-1.559,2.191-1.652,3.48L288.542,110.016z"/>
		<path d="M344.845,108.487c-1.512-0.387-2.691-1.107-3.542-2.162c-0.85-1.055-1.273-2.326-1.273-3.814
			c0-2.086,0.709-3.741,2.127-4.966s3.346-1.837,5.783-1.837c2.448,0,4.383,0.612,5.801,1.837s2.127,2.88,2.127,4.966
			c0,1.488-0.425,2.76-1.274,3.814c-0.849,1.054-2.029,1.775-3.542,2.162c1.758,0.387,3.104,1.166,4.034,2.338
			c0.931,1.172,1.397,2.689,1.397,4.553c0,2.367-0.756,4.219-2.269,5.555c-1.512,1.336-3.604,2.004-6.274,2.004
			c-2.672,0-4.762-0.665-6.268-1.995s-2.259-3.173-2.259-5.528c0-1.875,0.466-3.401,1.397-4.579
			C341.741,109.657,343.087,108.874,344.845,108.487z M347.938,109.963c-1.582,0-2.804,0.442-3.664,1.327
			c-0.861,0.885-1.293,2.136-1.293,3.753s0.438,2.874,1.311,3.771s2.089,1.345,3.646,1.345c1.595,0,2.821-0.442,3.684-1.327
			s1.292-2.147,1.292-3.788c0-1.605-0.438-2.854-1.31-3.744C350.73,110.41,349.509,109.963,347.938,109.963z M343.562,102.844
			c0,1.406,0.375,2.479,1.125,3.217s1.834,1.107,3.252,1.107c1.43,0,2.52-0.369,3.27-1.107s1.125-1.811,1.125-3.217
			c0-1.43-0.372-2.52-1.116-3.27s-1.837-1.125-3.277-1.125c-1.419,0-2.503,0.378-3.253,1.134S343.562,101.426,343.562,102.844z"/>
		<path d="M362.423,96.182h13.289v2.988h-10.055v6.451c0.504-0.188,1.011-0.325,1.521-0.413s1.022-0.132,1.538-0.132
			c2.719,0,4.875,0.803,6.469,2.408c1.595,1.605,2.392,3.779,2.392,6.521c0,2.766-0.835,4.945-2.505,6.539
			c-1.67,1.594-3.952,2.391-6.848,2.391c-1.395,0-2.669-0.094-3.822-0.281c-1.154-0.187-2.188-0.469-3.104-0.844v-3.604
			c1.078,0.586,2.162,1.022,3.252,1.31c1.09,0.288,2.203,0.431,3.34,0.431c1.957,0,3.467-0.516,4.526-1.547
			c1.06-1.031,1.591-2.496,1.591-4.395c0-1.875-0.548-3.334-1.644-4.377c-1.097-1.043-2.622-1.564-4.579-1.564
			c-0.949,0-1.875,0.108-2.777,0.325c-0.901,0.217-1.764,0.542-2.584,0.976V96.182z"/>
		<path d="M491.271,96.182h16.523v1.512l-9.387,24.732h-3.709l9.141-23.256h-12.568V96.182z"/>
		<path d="M518.236,108.487c-1.512-0.387-2.693-1.107-3.543-2.162c-0.85-1.055-1.273-2.326-1.273-3.814
			c0-2.086,0.709-3.741,2.127-4.966s3.346-1.837,5.783-1.837c2.449,0,4.383,0.612,5.801,1.837s2.127,2.88,2.127,4.966
			c0,1.488-0.426,2.76-1.273,3.814c-0.85,1.054-2.029,1.775-3.541,2.162c1.758,0.387,3.102,1.166,4.031,2.338
			c0.932,1.172,1.398,2.689,1.398,4.553c0,2.367-0.756,4.219-2.268,5.555s-3.604,2.004-6.275,2.004c-2.67,0-4.762-0.665-6.268-1.995
			s-2.258-3.173-2.258-5.528c0-1.875,0.465-3.401,1.396-4.579C515.13,109.657,516.478,108.874,518.236,108.487z M521.33,109.963
			c-1.582,0-2.805,0.442-3.666,1.327s-1.291,2.136-1.291,3.753s0.436,2.874,1.309,3.771s2.092,1.345,3.648,1.345
			c1.594,0,2.82-0.442,3.682-1.327c0.863-0.885,1.293-2.147,1.293-3.788c0-1.605-0.438-2.854-1.311-3.744
			C524.121,110.41,522.9,109.963,521.33,109.963z M516.953,102.844c0,1.406,0.375,2.479,1.125,3.217s1.834,1.107,3.252,1.107
			c1.43,0,2.52-0.369,3.27-1.107s1.125-1.811,1.125-3.217c0-1.43-0.373-2.52-1.115-3.27c-0.744-0.75-1.836-1.125-3.277-1.125
			c-1.418,0-2.502,0.378-3.252,1.134S516.953,101.426,516.953,102.844z"/>
		<path d="M644.693,121.881v-3.27c0.738,0.434,1.523,0.765,2.355,0.993s1.699,0.343,2.602,0.343c2.25,0,3.951-0.847,5.105-2.54
			c1.154-1.693,1.732-4.188,1.732-7.479c-0.553,1.172-1.324,2.071-2.32,2.698s-2.139,0.94-3.428,0.94
			c-2.531,0-4.492-0.779-5.881-2.338c-1.391-1.559-2.082-3.768-2.082-6.627c0-2.824,0.711-5.013,2.135-6.565
			c1.424-1.552,3.438-2.329,6.039-2.329c3.047,0,5.277,1.096,6.697,3.287c1.418,2.191,2.127,5.637,2.127,10.336
			c0,4.418-0.855,7.79-2.561,10.116c-1.705,2.326-4.18,3.489-7.426,3.489c-0.855,0-1.717-0.091-2.584-0.272
			C646.337,122.482,645.501,122.221,644.693,121.881z M651.021,110.79c1.512,0,2.697-0.545,3.559-1.635
			c0.863-1.09,1.293-2.596,1.293-4.519c0-1.922-0.432-3.428-1.293-4.518s-2.047-1.635-3.559-1.635c-1.57,0-2.754,0.519-3.551,1.556
			s-1.195,2.569-1.195,4.597c0,2.039,0.395,3.574,1.186,4.605C648.251,110.273,649.439,110.79,651.021,110.79z"/>
		<path d="M675.859,108.381c1.723,0.457,3.041,1.269,3.955,2.435s1.371,2.622,1.371,4.368c0,2.414-0.812,4.31-2.436,5.687
			c-1.625,1.377-3.869,2.065-6.74,2.065c-1.207,0-2.438-0.111-3.691-0.334c-1.252-0.223-2.484-0.545-3.691-0.967v-3.533
			c1.195,0.621,2.373,1.084,3.533,1.389c1.16,0.305,2.314,0.457,3.463,0.457c1.945,0,3.439-0.439,4.482-1.318
			s1.564-2.145,1.564-3.797c0-1.523-0.521-2.733-1.564-3.63s-2.455-1.345-4.236-1.345h-2.707v-2.918h2.707
			c1.629,0,2.9-0.357,3.814-1.072c0.914-0.715,1.371-1.711,1.371-2.988c0-1.348-0.426-2.382-1.275-3.103
			c-0.85-0.721-2.059-1.081-3.629-1.081c-1.043,0-2.121,0.117-3.234,0.352c-1.113,0.235-2.279,0.586-3.498,1.055v-3.27
			c1.418-0.375,2.68-0.656,3.787-0.844c1.107-0.188,2.09-0.281,2.945-0.281c2.555,0,4.596,0.642,6.125,1.925
			c1.529,1.283,2.295,2.985,2.295,5.106c0,1.441-0.402,2.643-1.205,3.604S677.394,107.983,675.859,108.381z"/>
		<path d="M795.179,96.182h7.77c2.684,0,4.752,0.58,6.205,1.74s2.18,2.801,2.18,4.922c0,1.137-0.385,2.168-1.152,3.094
			c-0.766,0.926-1.918,1.506-3.451,1.74c1.723,0.258,3.07,0.993,4.051,2.206c0.979,1.213,1.469,2.991,1.469,5.335
			c0,2.379-0.779,4.175-2.338,5.388c-1.561,1.213-3.879,1.819-6.961,1.819h-7.771V96.182L795.179,96.182z M798.748,99.1v7.207h4.131
			c1.711,0,2.949-0.328,3.717-0.984c0.77-0.656,1.152-1.482,1.152-2.479c0-1.324-0.379-2.279-1.135-2.865s-2-0.879-3.734-0.879
			H798.748z M798.748,109.19v10.318h4.201c2.062,0,3.533-0.36,4.412-1.081c0.879-0.721,1.318-1.907,1.318-3.56
			c0-2.18-0.463-3.671-1.389-4.474s-2.373-1.204-4.342-1.204L798.748,109.19L798.748,109.19z"/>
		<path d="M15.536,139.382h14.572v2.988h-5.502v20.268h5.502v2.987H15.536v-2.987h5.502V142.37h-5.502V139.382z"/>
		<path d="M52.151,153.427v12.199h-3.252v-12.199c0-1.77-0.311-3.07-0.932-3.902c-0.621-0.832-1.594-1.248-2.918-1.248
			c-1.512,0-2.675,0.536-3.489,1.608c-0.814,1.072-1.222,2.61-1.222,4.614v11.126h-3.234v-19.688h3.234v2.953
			c0.574-1.125,1.354-1.978,2.338-2.558c0.984-0.58,2.15-0.87,3.498-0.87c2.004,0,3.501,0.659,4.491,1.978
			C51.655,148.76,52.151,150.755,52.151,153.427z"/>
		<path d="M73.667,164.361c0,2.953-0.697,5.19-2.092,6.716c-1.395,1.523-3.445,2.284-6.152,2.284c-0.891,0-1.822-0.082-2.795-0.245
			c-0.973-0.164-1.945-0.404-2.918-0.722v-3.199c1.148,0.539,2.191,0.938,3.129,1.195s1.799,0.387,2.584,0.387
			c1.746,0,3.018-0.476,3.814-1.424c0.796-0.949,1.195-2.455,1.195-4.519v-0.141v-2.197c-0.516,1.103-1.219,1.922-2.109,2.461
			c-0.89,0.539-1.975,0.81-3.252,0.81c-2.297,0-4.131-0.92-5.502-2.761c-1.371-1.84-2.057-4.301-2.057-7.383
			c0-3.093,0.686-5.561,2.057-7.399c1.371-1.839,3.205-2.76,5.502-2.76c1.266,0,2.338,0.252,3.217,0.756
			c0.879,0.504,1.594,1.283,2.145,2.338v-2.549h3.234V164.361L73.667,164.361z M70.432,155.625c0-2.426-0.396-4.27-1.187-5.528
			c-0.791-1.259-1.942-1.89-3.454-1.89c-1.582,0-2.789,0.63-3.621,1.89c-0.832,1.26-1.248,3.103-1.248,5.528
			c0,2.424,0.419,4.273,1.257,5.545c0.838,1.272,2.054,1.908,3.647,1.908c1.488,0,2.628-0.64,3.419-1.916
			C70.036,159.885,70.432,158.04,70.432,155.625z"/>
		<path d="M97.327,150c-0.691-0.539-1.395-0.932-2.109-1.178c-0.714-0.246-1.5-0.369-2.355-0.369c-2.016,0-3.557,0.633-4.624,1.898
			c-1.066,1.266-1.6,3.094-1.6,5.483v9.791h-3.252v-19.688h3.252v3.85c0.539-1.395,1.368-2.464,2.487-3.208s2.447-1.116,3.982-1.116
			c0.797,0,1.541,0.1,2.232,0.299c0.691,0.199,1.354,0.51,1.986,0.932L97.327,150L97.327,150z"/>
		<path d="M117.313,154.394v11.231h-3.252v-2.918c-0.691,1.172-1.562,2.037-2.61,2.594c-1.048,0.557-2.323,0.834-3.823,0.834
			c-2.004,0-3.604-0.564-4.799-1.695c-1.195-1.131-1.793-2.646-1.793-4.544c0-2.19,0.735-3.854,2.206-4.992
			c1.471-1.137,3.63-1.705,6.478-1.705h4.342v-0.51c-0.012-1.57-0.41-2.71-1.195-3.419c-0.785-0.709-2.039-1.063-3.762-1.063
			c-1.102,0-2.215,0.158-3.34,0.475s-2.221,0.779-3.287,1.389v-3.234c1.195-0.457,2.341-0.8,3.437-1.028
			c1.096-0.228,2.159-0.343,3.19-0.343c1.629,0,3.021,0.24,4.175,0.721c1.154,0.481,2.089,1.201,2.804,2.162
			c0.445,0.586,0.762,1.31,0.949,2.171S117.313,152.671,117.313,154.394z M111.038,155.73h-1.072c-1.887,0-3.308,0.331-4.263,0.993
			s-1.433,1.648-1.433,2.962c0,1.185,0.357,2.104,1.072,2.76c0.715,0.656,1.705,0.983,2.971,0.983c1.781,0,3.182-0.617,4.201-1.854
			s1.535-2.943,1.547-5.123v-0.722H111.038z"/>
		<path d="M132.255,147.943c0.398-0.844,0.905-1.468,1.521-1.872c0.616-0.404,1.356-0.606,2.224-0.606
			c1.582,0,2.698,0.612,3.349,1.837c0.651,1.225,0.976,3.53,0.976,6.917v11.409h-2.953v-11.269c0-2.777-0.155-4.503-0.466-5.177
			c-0.312-0.674-0.876-1.011-1.696-1.011c-0.938,0-1.579,0.36-1.925,1.081c-0.346,0.721-0.519,2.423-0.519,5.106v11.268h-2.953
			v-11.268c0-2.812-0.167-4.547-0.501-5.203c-0.334-0.656-0.935-0.984-1.802-0.984c-0.855,0-1.45,0.36-1.784,1.081
			c-0.334,0.721-0.501,2.423-0.501,5.106v11.268h-2.936v-19.688h2.936v1.688c0.387-0.703,0.87-1.239,1.45-1.608
			c0.58-0.369,1.239-0.554,1.978-0.554c0.891,0,1.632,0.205,2.224,0.615S131.927,147.111,132.255,147.943z"/>
		<path d="M193.128,139.382c4.008,0,6.961,1.066,8.859,3.199s2.848,5.449,2.848,9.949c0,4.476-0.949,7.778-2.848,9.905
			s-4.852,3.19-8.859,3.19h-5.326v-26.245L193.128,139.382L193.128,139.382z M193.058,162.708c2.988,0,5.074-0.734,6.258-2.205
			s1.775-4.129,1.775-7.972c0-3.879-0.589-6.554-1.767-8.024c-1.178-1.47-3.267-2.206-6.267-2.206h-1.688v20.408H193.058z"/>
		<path d="M225.683,154.394v11.231h-3.252v-2.918c-0.691,1.172-1.562,2.037-2.61,2.594c-1.048,0.557-2.323,0.834-3.823,0.834
			c-2.004,0-3.604-0.564-4.799-1.695c-1.195-1.131-1.793-2.646-1.793-4.544c0-2.19,0.735-3.854,2.206-4.992
			c1.471-1.137,3.63-1.705,6.478-1.705h4.342v-0.51c-0.012-1.57-0.41-2.71-1.195-3.419c-0.785-0.709-2.039-1.063-3.762-1.063
			c-1.102,0-2.215,0.158-3.34,0.475s-2.221,0.779-3.287,1.389v-3.234c1.195-0.457,2.341-0.8,3.437-1.028
			c1.096-0.228,2.159-0.343,3.19-0.343c1.629,0,3.021,0.24,4.175,0.721c1.154,0.481,2.089,1.201,2.804,2.162
			c0.445,0.586,0.762,1.31,0.949,2.171S225.683,152.671,225.683,154.394z M219.407,155.73h-1.072c-1.887,0-3.308,0.331-4.263,0.993
			c-0.955,0.662-1.433,1.648-1.433,2.962c0,1.185,0.357,2.104,1.072,2.76c0.715,0.656,1.705,0.983,2.971,0.983
			c1.781,0,3.182-0.617,4.201-1.854c1.019-1.236,1.535-2.943,1.547-5.123v-0.722H219.407z"/>
		<path d="M247.216,153.427v12.199h-3.252v-12.199c0-1.77-0.311-3.07-0.932-3.902c-0.621-0.832-1.594-1.248-2.918-1.248
			c-1.512,0-2.675,0.536-3.489,1.608c-0.814,1.072-1.222,2.61-1.222,4.614v11.126h-3.234v-19.688h3.234v2.953
			c0.574-1.125,1.354-1.978,2.338-2.558c0.984-0.58,2.15-0.87,3.498-0.87c2.004,0,3.501,0.659,4.491,1.978
			S247.216,150.755,247.216,153.427z"/>
		<path d="M268.89,153.427v12.199h-3.252v-12.199c0-1.77-0.311-3.07-0.932-3.902s-1.594-1.248-2.918-1.248
			c-1.512,0-2.675,0.536-3.489,1.608c-0.814,1.072-1.222,2.61-1.222,4.614v11.126h-3.234v-19.688h3.234v2.953
			c0.574-1.125,1.354-1.978,2.338-2.558s2.15-0.87,3.498-0.87c2.004,0,3.501,0.659,4.491,1.978
			C268.394,148.76,268.89,150.755,268.89,153.427z"/>
		<path d="M277.644,146.009h8.279v17.105h6.416v2.514h-16.066v-2.514h6.416v-14.591h-5.045V146.009L277.644,146.009z
			 M282.688,138.363h3.234v4.078h-3.234V138.363z"/>
		<path d="M313.45,154.166v1.583h-14.01v0.104c-0.094,2.685,0.419,4.61,1.538,5.782c1.119,1.173,2.698,1.759,4.737,1.759
			c1.031,0,2.109-0.164,3.234-0.492c1.125-0.327,2.326-0.825,3.604-1.493v3.217c-1.229,0.504-2.417,0.881-3.56,1.133
			c-1.144,0.252-2.247,0.379-3.313,0.379c-3.059,0-5.449-0.918-7.172-2.752c-1.723-1.834-2.584-4.361-2.584-7.584
			c0-3.141,0.844-5.648,2.531-7.523s3.938-2.812,6.75-2.812c2.508,0,4.485,0.85,5.933,2.549
			C312.586,149.714,313.356,151.763,313.45,154.166z M310.216,153.216c-0.141-1.359-0.636-2.534-1.484-3.524
			c-0.85-0.99-2.071-1.485-3.666-1.485c-1.559,0-2.842,0.516-3.85,1.547c-1.008,1.031-1.559,2.191-1.652,3.48L310.216,153.216z"/>
		<path d="M344.845,151.687c-1.512-0.387-2.691-1.107-3.542-2.162c-0.85-1.055-1.273-2.326-1.273-3.814
			c0-2.086,0.709-3.741,2.127-4.966c1.418-1.225,3.346-1.837,5.783-1.837c2.448,0,4.383,0.612,5.801,1.837
			c1.418,1.225,2.127,2.88,2.127,4.966c0,1.488-0.425,2.76-1.274,3.814c-0.849,1.054-2.029,1.775-3.542,2.162
			c1.758,0.387,3.104,1.166,4.034,2.338c0.931,1.173,1.397,2.688,1.397,4.554c0,2.366-0.756,4.219-2.269,5.555
			c-1.512,1.336-3.604,2.004-6.274,2.004c-2.672,0-4.762-0.665-6.268-1.995s-2.259-3.173-2.259-5.528c0-1.875,0.466-3.4,1.397-4.579
			C341.741,152.857,343.087,152.074,344.845,151.687z M347.938,153.164c-1.582,0-2.804,0.442-3.664,1.327
			c-0.861,0.884-1.293,2.136-1.293,3.753c0,1.616,0.438,2.873,1.311,3.771s2.089,1.345,3.646,1.345c1.595,0,2.821-0.441,3.684-1.326
			c0.862-0.886,1.292-2.148,1.292-3.789c0-1.604-0.438-2.854-1.31-3.744C350.73,153.611,349.509,153.164,347.938,153.164z
			 M343.562,146.044c0,1.406,0.375,2.479,1.125,3.217c0.75,0.738,1.834,1.107,3.252,1.107c1.43,0,2.52-0.369,3.27-1.107
			c0.75-0.738,1.125-1.811,1.125-3.217c0-1.43-0.372-2.52-1.116-3.27s-1.837-1.125-3.277-1.125c-1.419,0-2.503,0.378-3.253,1.134
			C343.938,143.539,343.562,144.626,343.562,146.044z"/>
		<path d="M371.124,139.382h4.113v17.104h3.498v2.884h-3.498v6.258h-3.533v-6.258h-11.127v-3.357L371.124,139.382z M371.704,142.617
			l-8.279,13.869h8.279V142.617z"/>
		<path d="M496.562,151.687c-1.512-0.387-2.693-1.107-3.543-2.162s-1.273-2.326-1.273-3.814c0-2.086,0.709-3.741,2.127-4.966
			c1.418-1.225,3.346-1.837,5.783-1.837c2.449,0,4.383,0.612,5.801,1.837c1.418,1.225,2.127,2.88,2.127,4.966
			c0,1.488-0.426,2.76-1.275,3.814c-0.848,1.054-2.027,1.775-3.541,2.162c1.76,0.387,3.104,1.166,4.033,2.338
			c0.932,1.173,1.398,2.688,1.398,4.554c0,2.366-0.756,4.219-2.268,5.555s-3.604,2.004-6.275,2.004c-2.67,0-4.762-0.665-6.268-1.995
			s-2.258-3.173-2.258-5.528c0-1.875,0.465-3.4,1.396-4.579C493.457,152.857,494.804,152.074,496.562,151.687z M499.656,153.164
			c-1.582,0-2.805,0.442-3.666,1.327c-0.861,0.884-1.291,2.136-1.291,3.753c0,1.616,0.436,2.873,1.309,3.771s2.09,1.345,3.648,1.345
			c1.594,0,2.82-0.441,3.682-1.326c0.863-0.886,1.293-2.148,1.293-3.789c0-1.604-0.438-2.854-1.311-3.744
			S501.226,153.164,499.656,153.164z M495.279,146.044c0,1.406,0.375,2.479,1.125,3.217c0.75,0.738,1.834,1.107,3.252,1.107
			c1.43,0,2.52-0.369,3.27-1.107c0.75-0.738,1.125-1.811,1.125-3.217c0-1.43-0.373-2.52-1.117-3.27s-1.836-1.125-3.275-1.125
			c-1.418,0-2.502,0.378-3.252,1.134C495.656,143.539,495.279,144.626,495.279,146.044z"/>
		<path d="M514.14,139.382h13.289v2.988h-10.055v6.451c0.504-0.188,1.01-0.325,1.52-0.413c0.51-0.088,1.023-0.132,1.539-0.132
			c2.719,0,4.875,0.803,6.469,2.408s2.391,3.779,2.391,6.521c0,2.766-0.836,4.944-2.506,6.539c-1.67,1.594-3.951,2.391-6.846,2.391
			c-1.395,0-2.67-0.094-3.824-0.281s-2.188-0.469-3.102-0.844v-3.604c1.078,0.586,2.162,1.021,3.252,1.309
			c1.09,0.289,2.203,0.432,3.34,0.432c1.957,0,3.465-0.516,4.525-1.547s1.592-2.496,1.592-4.395c0-1.875-0.549-3.334-1.645-4.377
			s-2.621-1.564-4.578-1.564c-0.949,0-1.875,0.108-2.777,0.325c-0.902,0.217-1.764,0.542-2.584,0.976V139.382L514.14,139.382z"/>
		<path d="M644.693,165.083v-3.271c0.738,0.435,1.523,0.765,2.355,0.993s1.699,0.343,2.602,0.343c2.25,0,3.951-0.847,5.105-2.54
			s1.732-4.188,1.732-7.479c-0.553,1.172-1.324,2.071-2.32,2.698s-2.139,0.94-3.428,0.94c-2.531,0-4.492-0.779-5.881-2.338
			c-1.391-1.559-2.082-3.768-2.082-6.627c0-2.824,0.711-5.013,2.135-6.565c1.424-1.552,3.438-2.329,6.039-2.329
			c3.047,0,5.277,1.096,6.697,3.287c1.418,2.191,2.127,5.637,2.127,10.336c0,4.418-0.855,7.79-2.561,10.116s-4.18,3.488-7.426,3.488
			c-0.855,0-1.717-0.09-2.584-0.271C646.337,165.683,645.501,165.42,644.693,165.083z M651.021,153.99
			c1.512,0,2.697-0.545,3.559-1.635c0.863-1.09,1.293-2.596,1.293-4.518s-0.432-3.428-1.293-4.518
			c-0.861-1.09-2.047-1.635-3.559-1.635c-1.57,0-2.754,0.519-3.551,1.556c-0.797,1.037-1.195,2.569-1.195,4.597
			c0,2.039,0.395,3.574,1.186,4.605C648.251,153.473,649.439,153.99,651.021,153.99z"/>
		<path d="M674.558,139.382h4.113v17.104h3.498v2.884h-3.498v6.258h-3.533v-6.258h-11.127v-3.357L674.558,139.382z M675.138,142.617
			l-8.279,13.869h8.279V142.617z"/>
		<path d="M795.179,139.382h7.77c2.684,0,4.752,0.58,6.205,1.74s2.18,2.801,2.18,4.922c0,1.137-0.385,2.168-1.152,3.094
			c-0.766,0.926-1.918,1.506-3.451,1.74c1.723,0.258,3.07,0.993,4.051,2.206c0.979,1.213,1.469,2.991,1.469,5.334
			c0,2.379-0.779,4.176-2.338,5.389c-1.561,1.213-3.879,1.818-6.961,1.818h-7.771V139.382L795.179,139.382z M798.748,142.3v7.207
			h4.131c1.711,0,2.949-0.328,3.717-0.984c0.77-0.656,1.152-1.482,1.152-2.479c0-1.324-0.379-2.279-1.135-2.865
			c-0.756-0.586-2-0.879-3.734-0.879H798.748z M798.748,152.39v10.317h4.201c2.062,0,3.533-0.359,4.412-1.08
			s1.318-1.908,1.318-3.561c0-2.18-0.463-3.671-1.389-4.474c-0.926-0.803-2.373-1.204-4.342-1.204L798.748,152.39L798.748,152.39z"
			/>
		<path d="M826.591,144.919v7.787h7.822v2.97h-7.822v7.787h-2.953v-7.787h-7.805v-2.97h7.805v-7.787H826.591z"/>
		<path d="M12.002,182.583h3.463l2.514,21.305l2.988-14.098h3.709l3.023,14.133l2.514-21.34h3.463l-3.92,26.244h-3.357
			l-3.568-15.593l-3.551,15.593h-3.357L12.002,182.583z"/>
		<path d="M53.979,193.2c-0.691-0.539-1.395-0.933-2.109-1.179s-1.5-0.369-2.355-0.369c-2.016,0-3.557,0.634-4.623,1.897
			c-1.066,1.266-1.6,3.095-1.6,5.484v9.791H40.04v-19.688h3.252v3.85c0.539-1.395,1.368-2.464,2.487-3.208
			c1.119-0.743,2.446-1.116,3.981-1.116c0.797,0,1.541,0.101,2.232,0.299c0.691,0.199,1.354,0.511,1.986,0.933L53.979,193.2
			L53.979,193.2z"/>
		<path d="M60.905,189.209h8.279v17.104H75.6v2.514H59.534v-2.514h6.416v-14.59h-5.045V189.209z M65.95,181.562h3.234v4.078H65.95
			V181.562z"/>
		<path d="M95.341,207.561c0,2.953-0.697,5.191-2.092,6.715s-3.445,2.285-6.153,2.285c-0.891,0-1.822-0.082-2.795-0.246
			c-0.973-0.164-1.945-0.404-2.918-0.721v-3.199c1.148,0.539,2.191,0.938,3.129,1.195c0.938,0.257,1.799,0.387,2.584,0.387
			c1.747,0,3.018-0.475,3.815-1.424s1.195-2.455,1.195-4.518v-0.142v-2.196c-0.516,1.102-1.219,1.922-2.109,2.461
			s-1.975,0.809-3.252,0.809c-2.297,0-4.131-0.92-5.502-2.76s-2.057-4.301-2.057-7.383c0-3.095,0.686-5.562,2.057-7.4
			c1.371-1.84,3.205-2.76,5.502-2.76c1.266,0,2.338,0.252,3.217,0.756s1.594,1.283,2.145,2.338v-2.549h3.234V207.561z
			 M92.106,198.825c0-2.427-0.396-4.27-1.188-5.529c-0.792-1.258-1.941-1.889-3.454-1.889c-1.582,0-2.789,0.629-3.621,1.889
			c-0.832,1.261-1.248,3.104-1.248,5.529c0,2.424,0.419,4.273,1.257,5.545c0.838,1.272,2.054,1.907,3.647,1.907
			c1.489,0,2.627-0.639,3.418-1.916C91.708,203.084,92.106,201.239,92.106,198.825z"/>
		<path d="M117.173,196.627v12.199h-3.252v-12.199c0-1.771-0.311-3.07-0.932-3.902c-0.621-0.832-1.594-1.248-2.918-1.248
			c-1.512,0-2.675,0.536-3.489,1.607c-0.814,1.072-1.222,2.61-1.222,4.615v11.127h-3.234v-27.353h3.234v10.616
			c0.574-1.125,1.354-1.977,2.338-2.557c0.984-0.58,2.15-0.871,3.498-0.871c2.004,0,3.501,0.66,4.491,1.979
			C116.677,191.959,117.173,193.956,117.173,196.627z"/>
		<path d="M131.165,183.549v5.59h7.348v2.514h-7.348v10.688c0,1.453,0.275,2.468,0.826,3.041c0.551,0.574,1.512,0.861,2.883,0.861
			h3.639v2.584h-3.955c-2.426,0-4.137-0.486-5.133-1.459c-0.996-0.973-1.494-2.648-1.494-5.027v-10.688h-5.256v-2.514h5.256v-5.59
			H131.165L131.165,183.549z"/>
		<path d="M186.026,182.67h4.746l4.535,13.324l4.57-13.324h4.764v26.156h-3.287v-23.115l-4.676,13.781h-2.689l-4.693-13.781v23.115
			h-3.27V182.67L186.026,182.67z"/>
		<path d="M217.896,188.665c2.73,0,4.819,0.885,6.267,2.653c1.448,1.769,2.171,4.33,2.171,7.683c0,3.363-0.721,5.926-2.162,7.689
			s-3.533,2.646-6.275,2.646c-2.73,0-4.816-0.883-6.258-2.646s-2.162-4.326-2.162-7.689c0-3.353,0.721-5.912,2.162-7.683
			S215.165,188.665,217.896,188.665z M217.896,191.407c-1.641,0-2.883,0.639-3.727,1.916c-0.844,1.276-1.266,3.17-1.266,5.678
			c0,2.496,0.422,4.385,1.266,5.668c0.844,1.283,2.086,1.926,3.727,1.926c1.652,0,2.9-0.643,3.744-1.926
			c0.844-1.283,1.266-3.172,1.266-5.668c0-2.508-0.422-4.4-1.266-5.678C220.796,192.043,219.548,191.407,217.896,191.407z"/>
		<path d="M249.044,193.2c-0.691-0.539-1.395-0.933-2.109-1.179s-1.5-0.369-2.355-0.369c-2.016,0-3.557,0.634-4.623,1.897
			c-1.066,1.266-1.6,3.095-1.6,5.484v9.791h-3.252v-19.688h3.252v3.85c0.539-1.395,1.368-2.464,2.487-3.208
			c1.119-0.743,2.446-1.116,3.981-1.116c0.797,0,1.541,0.101,2.232,0.299c0.691,0.199,1.354,0.511,1.986,0.933L249.044,193.2
			L249.044,193.2z"/>
		<path d="M261.208,183.549v5.59h7.348v2.514h-7.348v10.688c0,1.453,0.275,2.468,0.826,3.041c0.551,0.574,1.512,0.861,2.883,0.861
			h3.639v2.584h-3.955c-2.426,0-4.137-0.486-5.133-1.459c-0.996-0.973-1.494-2.648-1.494-5.027v-10.688h-5.256v-2.514h5.256v-5.59
			H261.208L261.208,183.549z"/>
		<path d="M287.171,202.499c-0.539,1.371-1.225,3.176-2.057,5.414c-1.16,3.094-1.939,4.979-2.338,5.66
			c-0.539,0.913-1.213,1.6-2.021,2.057s-1.752,0.686-2.83,0.686h-2.602v-2.707h1.916c0.949,0,1.693-0.275,2.232-0.826
			c0.539-0.551,1.225-1.975,2.057-4.271l-7.611-19.37h3.428l5.836,15.397l5.748-15.397h3.428L287.171,202.499z"/>
		<path d="M339.554,182.583h16.523v1.512l-9.387,24.732h-3.71l9.142-23.257h-12.568V182.583z"/>
		<path d="M362.423,182.583h13.289v2.987h-10.055v6.451c0.504-0.188,1.011-0.325,1.521-0.413s1.022-0.132,1.538-0.132
			c2.719,0,4.875,0.803,6.469,2.407c1.595,1.605,2.392,3.779,2.392,6.521c0,2.766-0.835,4.945-2.505,6.539s-3.952,2.391-6.848,2.391
			c-1.395,0-2.669-0.094-3.822-0.28c-1.154-0.187-2.188-0.47-3.104-0.845v-3.604c1.078,0.586,2.162,1.021,3.252,1.311
			c1.09,0.287,2.203,0.431,3.34,0.431c1.957,0,3.467-0.517,4.526-1.548c1.06-1.03,1.591-2.495,1.591-4.395
			c0-1.875-0.548-3.334-1.644-4.377c-1.097-1.043-2.622-1.564-4.579-1.564c-0.949,0-1.875,0.109-2.777,0.326
			c-0.901,0.217-1.764,0.541-2.584,0.976V182.583z"/>
		<path d="M491.271,182.583h16.523v1.512l-9.387,24.732h-3.709l9.141-23.257h-12.568V182.583z"/>
		<path d="M527.921,183.163v3.27c-0.738-0.434-1.523-0.766-2.355-0.993s-1.699-0.343-2.602-0.343c-2.25,0-3.955,0.847-5.115,2.539
			c-1.16,1.693-1.74,4.188-1.74,7.48c0.562-1.173,1.342-2.072,2.338-2.699s2.139-0.939,3.428-0.939c2.531,0,4.49,0.775,5.879,2.329
			c1.391,1.553,2.084,3.753,2.084,6.601c0,2.836-0.715,5.033-2.145,6.592c-1.43,1.56-3.439,2.338-6.029,2.338
			c-3.047,0-5.279-1.092-6.697-3.277s-2.127-5.628-2.127-10.327c0-4.431,0.854-7.808,2.559-10.134
			c1.703-2.326,4.176-3.489,7.408-3.489c0.867,0,1.734,0.091,2.604,0.272C526.277,182.562,527.113,182.823,527.921,183.163z
			 M521.593,194.254c-1.512,0-2.701,0.545-3.568,1.635s-1.301,2.596-1.301,4.518s0.434,3.428,1.301,4.518
			c0.867,1.091,2.057,1.636,3.568,1.636c1.57,0,2.754-0.519,3.551-1.556s1.195-2.569,1.195-4.598c0-2.039-0.398-3.574-1.195-4.605
			C524.347,194.771,523.164,194.254,521.593,194.254z"/>
		<path d="M642.988,182.583h16.523v1.512l-9.387,24.732h-3.709l9.141-23.257h-12.568V182.583z"/>
		<path d="M666.367,208.282v-3.271c0.738,0.435,1.523,0.766,2.355,0.994c0.832,0.228,1.699,0.343,2.602,0.343
			c2.25,0,3.951-0.847,5.105-2.54s1.732-4.188,1.732-7.479c-0.551,1.172-1.324,2.07-2.32,2.697s-2.139,0.939-3.428,0.939
			c-2.531,0-4.492-0.778-5.881-2.338c-1.391-1.559-2.082-3.768-2.082-6.627c0-2.824,0.711-5.012,2.135-6.564
			s3.438-2.329,6.039-2.329c3.047,0,5.279,1.097,6.697,3.287s2.127,5.638,2.127,10.336c0,4.418-0.855,7.79-2.561,10.116
			s-4.18,3.488-7.426,3.488c-0.854,0-1.717-0.09-2.584-0.271S667.175,208.622,666.367,208.282z M672.695,197.189
			c1.512,0,2.697-0.545,3.559-1.635c0.863-1.091,1.293-2.597,1.293-4.519s-0.432-3.428-1.293-4.518s-2.047-1.635-3.559-1.635
			c-1.57,0-2.754,0.519-3.551,1.556s-1.195,2.569-1.195,4.597c0,2.039,0.395,3.574,1.186,4.605S671.113,197.189,672.695,197.189z"/>
		<path d="M811.123,207.895c-0.902,0.48-1.828,0.841-2.777,1.081c-0.947,0.239-1.957,0.36-3.021,0.36
			c-3.363,0-5.977-1.189-7.832-3.568c-1.857-2.379-2.785-5.725-2.785-10.037c0-4.289,0.934-7.632,2.803-10.027
			c1.869-2.396,4.475-3.596,7.814-3.596c1.064,0,2.074,0.12,3.021,0.359c0.949,0.24,1.875,0.602,2.777,1.082v3.639
			c-0.867-0.715-1.799-1.26-2.795-1.635s-1.998-0.562-3.006-0.562c-2.309,0-4.037,0.891-5.186,2.672s-1.723,4.471-1.723,8.068
			c0,3.586,0.574,6.27,1.723,8.051s2.877,2.672,5.186,2.672c1.031,0,2.041-0.188,3.031-0.562s1.914-0.92,2.77-1.636V207.895
			L811.123,207.895z"/>
		<path d="M826.591,188.12v7.787h7.822v2.971h-7.822v7.787h-2.953v-7.787h-7.805v-2.971h7.805v-7.787H826.591z"/>
		<path d="M13.918,250.954v-4.147c1.066,0.948,2.168,1.661,3.305,2.136c1.137,0.475,2.314,0.712,3.533,0.712
			c1.676,0,2.845-0.437,3.507-1.31c0.662-0.873,0.993-2.499,0.993-4.879v-14.694h-6.697v-2.987h10.248v17.684
			c0,3.305-0.618,5.643-1.854,7.014c-1.236,1.371-3.302,2.057-6.196,2.057c-1.125,0-2.244-0.129-3.357-0.387
			C16.287,251.893,15.125,251.493,13.918,250.954z"/>
		<path d="M44.504,231.864c2.73,0,4.819,0.885,6.267,2.654c1.448,1.77,2.171,4.33,2.171,7.682c0,3.363-0.721,5.928-2.162,7.69
			c-1.441,1.763-3.533,2.646-6.275,2.646c-2.73,0-4.816-0.882-6.258-2.646c-1.442-1.765-2.162-4.327-2.162-7.69
			c0-3.352,0.721-5.912,2.162-7.682S41.774,231.864,44.504,231.864z M44.504,234.606c-1.641,0-2.883,0.639-3.727,1.916
			c-0.844,1.277-1.266,3.17-1.266,5.678c0,2.496,0.422,4.387,1.266,5.67c0.844,1.282,2.086,1.924,3.727,1.924
			c1.652,0,2.9-0.642,3.744-1.924c0.844-1.283,1.266-3.174,1.266-5.67c0-2.508-0.422-4.4-1.266-5.678
			C47.404,235.245,46.157,234.606,44.504,234.606z"/>
		<path d="M73.825,239.827v12.199h-3.252v-12.199c0-1.77-0.311-3.07-0.932-3.902s-1.594-1.248-2.918-1.248
			c-1.512,0-2.675,0.537-3.489,1.609c-0.814,1.071-1.222,2.609-1.222,4.613v11.127h-3.234v-27.352h3.234v10.617
			c0.574-1.125,1.354-1.979,2.338-2.559s2.15-0.869,3.498-0.869c2.004,0,3.501,0.658,4.491,1.977
			C73.329,235.161,73.825,237.155,73.825,239.827z"/>
		<path d="M95.499,239.827v12.199h-3.252v-12.199c0-1.77-0.311-3.07-0.932-3.902s-1.594-1.248-2.918-1.248
			c-1.512,0-2.675,0.537-3.489,1.609c-0.814,1.071-1.222,2.609-1.222,4.613v11.127h-3.234v-19.688h3.234v2.953
			c0.574-1.125,1.354-1.979,2.338-2.559s2.15-0.869,3.499-0.869c2.004,0,3.5,0.658,4.49,1.977
			C95.003,235.161,95.499,237.155,95.499,239.827z"/>
		<path d="M117.173,239.827v12.199h-3.252v-12.199c0-1.77-0.311-3.07-0.932-3.902c-0.621-0.832-1.594-1.248-2.918-1.248
			c-1.512,0-2.675,0.537-3.489,1.609c-0.814,1.071-1.222,2.609-1.222,4.613v11.127h-3.234v-19.688h3.234v2.953
			c0.574-1.125,1.354-1.979,2.338-2.559c0.984-0.58,2.15-0.869,3.498-0.869c2.004,0,3.501,0.658,4.491,1.977
			C116.677,235.161,117.173,237.155,117.173,239.827z"/>
		<path d="M125.927,232.409h8.279v17.104h6.416v2.514h-16.066v-2.514h6.416v-14.591h-5.045V232.409z M130.972,224.763h3.234v4.077
			h-3.234V224.763z"/>
		<path d="M161.733,240.565v1.582h-14.01v0.105c-0.094,2.684,0.419,4.611,1.538,5.783c1.119,1.172,2.698,1.758,4.737,1.758
			c1.031,0,2.109-0.164,3.234-0.492s2.326-0.826,3.604-1.494v3.217c-1.23,0.504-2.417,0.883-3.56,1.135s-2.247,0.377-3.313,0.377
			c-3.059,0-5.449-0.916-7.172-2.75s-2.584-4.363-2.584-7.586c0-3.141,0.844-5.648,2.531-7.523s3.938-2.811,6.75-2.811
			c2.508,0,4.485,0.85,5.933,2.549C160.869,236.113,161.64,238.163,161.733,240.565z M158.499,239.616
			c-0.141-1.359-0.636-2.533-1.485-3.523c-0.849-0.99-2.071-1.485-3.665-1.485c-1.559,0-2.842,0.517-3.85,1.547
			c-1.008,1.031-1.559,2.19-1.652,3.479L158.499,239.616z"/>
		<path d="M194.077,225.782h4.307l8.033,26.244h-3.674l-1.934-6.838h-9.193l-1.898,6.838h-3.674L194.077,225.782z M196.222,228.911
			l-3.744,13.43h7.488L196.222,228.911z"/>
		<path d="M222.149,234.853v-10.179h3.234v27.353h-3.234v-2.479c-0.539,0.974-1.257,1.715-2.153,2.225s-1.931,0.766-3.103,0.766
			c-2.379,0-4.251-0.924-5.616-2.77c-1.365-1.846-2.048-4.393-2.048-7.639c0-3.198,0.686-5.709,2.057-7.531s3.24-2.732,5.607-2.732
			c1.184,0,2.227,0.254,3.129,0.764C220.924,233.14,221.634,233.879,222.149,234.853z M212.64,242.2c0,2.508,0.398,4.4,1.195,5.678
			c0.797,1.279,1.975,1.916,3.533,1.916c1.558,0,2.745-0.645,3.56-1.934c0.815-1.289,1.222-3.176,1.222-5.66
			c0-2.496-0.407-4.386-1.222-5.668c-0.815-1.283-2.001-1.926-3.56-1.926c-1.559,0-2.736,0.639-3.533,1.916
			S212.64,239.692,212.64,242.2z"/>
		<path d="M247.356,240.793v11.232h-3.252v-2.918c-0.691,1.172-1.562,2.036-2.61,2.594c-1.048,0.557-2.323,0.834-3.823,0.834
			c-2.004,0-3.604-0.564-4.799-1.695c-1.195-1.131-1.793-2.646-1.793-4.545c0-2.19,0.735-3.854,2.206-4.991
			c1.471-1.138,3.63-1.705,6.478-1.705h4.342v-0.511c-0.012-1.569-0.41-2.709-1.195-3.418c-0.785-0.709-2.039-1.063-3.762-1.063
			c-1.102,0-2.215,0.158-3.34,0.476c-1.125,0.316-2.221,0.778-3.287,1.389v-3.234c1.195-0.457,2.341-0.8,3.437-1.027
			c1.096-0.229,2.159-0.344,3.19-0.344c1.629,0,3.021,0.24,4.175,0.721c1.154,0.481,2.089,1.201,2.804,2.162
			c0.445,0.586,0.762,1.311,0.949,2.172S247.356,239.071,247.356,240.793z M241.081,242.129h-1.072
			c-1.887,0-3.308,0.332-4.263,0.994s-1.433,1.648-1.433,2.961c0,1.185,0.357,2.104,1.072,2.76c0.715,0.656,1.705,0.984,2.971,0.984
			c1.781,0,3.182-0.617,4.201-1.854s1.535-2.943,1.547-5.124v-0.722H241.081z"/>
		<path d="M255.97,232.409h8.279v17.104h6.416v2.514h-16.066v-2.514h6.416v-14.591h-5.045L255.97,232.409L255.97,232.409z
			 M261.015,224.763h3.234v4.077h-3.234V224.763z"/>
		<path d="M292.392,236.399c-0.691-0.539-1.395-0.932-2.109-1.178c-0.714-0.246-1.5-0.369-2.355-0.369
			c-2.016,0-3.557,0.633-4.623,1.898c-1.066,1.265-1.6,3.094-1.6,5.483v9.791h-3.252v-19.688h3.252v3.851
			c0.539-1.396,1.368-2.464,2.487-3.208c1.119-0.744,2.446-1.115,3.981-1.115c0.797,0,1.541,0.1,2.232,0.299
			c0.691,0.198,1.354,0.51,1.986,0.932L292.392,236.399L292.392,236.399z"/>
		<path d="M339.554,225.782h16.523v1.512l-9.387,24.732h-3.71l9.142-23.256h-12.568V225.782z"/>
		<path d="M366.52,238.086c-1.513-0.387-2.692-1.106-3.543-2.162c-0.85-1.055-1.273-2.325-1.273-3.813
			c0-2.086,0.709-3.741,2.127-4.966s3.346-1.837,5.783-1.837c2.449,0,4.383,0.612,5.801,1.837s2.127,2.88,2.127,4.966
			c0,1.488-0.425,2.761-1.273,3.813c-0.85,1.055-2.03,1.775-3.543,2.162c1.759,0.388,3.104,1.166,4.034,2.338
			c0.932,1.173,1.397,2.689,1.397,4.554c0,2.366-0.756,4.22-2.269,5.556c-1.512,1.336-3.604,2.004-6.274,2.004
			s-4.762-0.666-6.268-1.996s-2.259-3.172-2.259-5.527c0-1.875,0.466-3.401,1.397-4.579
			C363.415,239.256,364.761,238.474,366.52,238.086z M369.612,239.563c-1.582,0-2.805,0.441-3.665,1.327
			c-0.861,0.885-1.292,2.136-1.292,3.753s0.437,2.874,1.31,3.771c0.873,0.896,2.089,1.344,3.647,1.344
			c1.594,0,2.82-0.441,3.683-1.326s1.292-2.146,1.292-3.788c0-1.604-0.437-2.854-1.31-3.744S371.183,239.563,369.612,239.563z
			 M365.235,232.444c0,1.406,0.375,2.479,1.125,3.217s1.834,1.107,3.252,1.107c1.43,0,2.52-0.369,3.27-1.107
			s1.125-1.811,1.125-3.217c0-1.43-0.372-2.52-1.116-3.27s-1.837-1.125-3.277-1.125c-1.418,0-2.502,0.377-3.252,1.134
			C365.611,229.939,365.235,231.026,365.235,232.444z"/>
		<path d="M492.976,251.481v-3.27c0.738,0.434,1.523,0.765,2.355,0.992c0.832,0.229,1.699,0.344,2.602,0.344
			c2.25,0,3.951-0.848,5.105-2.541c1.154-1.692,1.73-4.187,1.73-7.479c-0.551,1.172-1.322,2.071-2.318,2.698s-2.141,0.94-3.43,0.94
			c-2.529,0-4.49-0.779-5.881-2.338c-1.389-1.56-2.082-3.769-2.082-6.627c0-2.824,0.711-5.014,2.137-6.566
			c1.424-1.551,3.438-2.328,6.039-2.328c3.047,0,5.277,1.096,6.695,3.287s2.127,5.637,2.127,10.336
			c0,4.418-0.854,7.789-2.559,10.115s-4.18,3.49-7.426,3.49c-0.855,0-1.717-0.092-2.584-0.272S493.785,251.821,492.976,251.481z
			 M499.304,240.39c1.512,0,2.697-0.546,3.559-1.636s1.293-2.596,1.293-4.518s-0.432-3.428-1.293-4.518s-2.047-1.635-3.559-1.635
			c-1.57,0-2.754,0.519-3.551,1.556c-0.797,1.036-1.195,2.569-1.195,4.597c0,2.039,0.395,3.574,1.186,4.605
			S497.722,240.39,499.304,240.39z"/>
		<path d="M522.841,225.782h4.113v17.104h3.498v2.884h-3.498v6.258h-3.533v-6.258h-11.127v-3.356L522.841,225.782z M523.421,229.017
			l-8.279,13.868h8.279V229.017z"/>
		<path d="M648.279,238.086c-1.512-0.387-2.693-1.106-3.543-2.162c-0.85-1.055-1.273-2.325-1.273-3.813
			c0-2.086,0.709-3.741,2.127-4.966s3.346-1.837,5.783-1.837c2.449,0,4.383,0.612,5.801,1.837s2.127,2.88,2.127,4.966
			c0,1.488-0.426,2.761-1.273,3.813c-0.85,1.055-2.029,1.775-3.541,2.162c1.758,0.388,3.102,1.166,4.031,2.338
			c0.932,1.173,1.398,2.689,1.398,4.554c0,2.366-0.756,4.22-2.268,5.556s-3.604,2.004-6.275,2.004c-2.67,0-4.762-0.666-6.268-1.996
			s-2.258-3.172-2.258-5.527c0-1.875,0.465-3.401,1.396-4.579C645.173,239.256,646.521,238.474,648.279,238.086z M651.373,239.563
			c-1.582,0-2.805,0.441-3.666,1.327c-0.861,0.885-1.291,2.136-1.291,3.753s0.436,2.874,1.309,3.771
			c0.873,0.896,2.092,1.344,3.648,1.344c1.594,0,2.82-0.441,3.682-1.326c0.863-0.885,1.293-2.146,1.293-3.788
			c0-1.604-0.438-2.854-1.311-3.744S652.943,239.563,651.373,239.563z M646.996,232.444c0,1.406,0.375,2.479,1.125,3.217
			s1.834,1.107,3.252,1.107c1.43,0,2.52-0.369,3.27-1.107s1.125-1.811,1.125-3.217c0-1.43-0.373-2.52-1.115-3.27
			c-0.744-0.75-1.836-1.125-3.277-1.125c-1.418,0-2.502,0.377-3.252,1.134C647.373,229.939,646.996,231.026,646.996,232.444z"/>
		<path d="M664.662,225.782h16.523v1.512l-9.387,24.732h-3.709l9.141-23.256h-12.568V225.782z"/>
		<path d="M795.179,225.782h7.77c2.684,0,4.752,0.58,6.205,1.74s2.18,2.801,2.18,4.922c0,1.137-0.385,2.168-1.152,3.094
			c-0.766,0.926-1.918,1.506-3.451,1.74c1.723,0.258,3.07,0.993,4.051,2.206c0.979,1.214,1.469,2.991,1.469,5.335
			c0,2.379-0.779,4.176-2.338,5.389c-1.561,1.213-3.879,1.818-6.961,1.818h-7.771V225.782L795.179,225.782z M798.748,228.7v7.207
			h4.131c1.711,0,2.949-0.328,3.717-0.984c0.77-0.655,1.152-1.481,1.152-2.479c0-1.324-0.379-2.279-1.135-2.865
			s-2-0.879-3.734-0.879H798.748z M798.748,238.79v10.318h4.201c2.062,0,3.533-0.359,4.412-1.081
			c0.879-0.721,1.318-1.907,1.318-3.56c0-2.18-0.463-3.672-1.389-4.475s-2.373-1.203-4.342-1.203H798.748L798.748,238.79z"/>
	</g>
</g>
</svg>
