<?xml version="1.0" encoding="utf-8"?>
<!-- Generator: Adobe Illustrator 16.0.0, SVG Export Plug-In . SVG Version: 6.00 Build 0)  -->
<!DOCTYPE svg PUBLIC "-//W3C//DTD SVG 1.1//EN" "http://www.w3.org/Graphics/SVG/1.1/DTD/svg11.dtd">
<svg version="1.1" id="Layer_1" xmlns="http://www.w3.org/2000/svg" xmlns:xlink="http://www.w3.org/1999/xlink" x="0px" y="0px"
	 width="861px" height="506px" viewBox="0 0 861 506" enable-background="new 0 0 861 506" xml:space="preserve">
<g>
	<rect x="20.05" y="21.508" fill="none" width="593.222" height="481.355"/>
	<path fill="#3FA9F5" d="M22.968,22.624h7.77c2.684,0,4.752,0.58,6.205,1.74s2.18,2.801,2.18,4.922c0,1.137-0.384,2.168-1.151,3.094
		s-1.919,1.506-3.454,1.74c1.723,0.258,3.073,0.993,4.052,2.206s1.468,2.991,1.468,5.335c0,2.379-0.779,4.175-2.338,5.388
		s-3.879,1.819-6.961,1.819h-7.77V22.624z M26.536,25.542v7.207h4.131c1.711,0,2.95-0.328,3.718-0.984s1.151-1.482,1.151-2.479
		c0-1.324-0.378-2.279-1.134-2.865s-2.001-0.879-3.735-0.879H26.536z M26.536,35.631V45.95h4.201c2.062,0,3.533-0.36,4.412-1.081
		s1.318-1.907,1.318-3.56c0-2.18-0.463-3.671-1.389-4.474s-2.373-1.204-4.342-1.204H26.536z"/>
	<path fill="#3FA9F5" d="M45.187,22.624h15.574v2.988H48.737v7.066h11.496v2.988H48.737v10.213h12.357v2.988H45.187V22.624z"/>
	<path fill="#3FA9F5" d="M82.804,46.706c-0.949,0.879-2.019,1.544-3.208,1.995s-2.476,0.677-3.858,0.677
		c-3.328,0-5.918-1.192-7.77-3.577s-2.777-5.728-2.777-10.028c0-4.289,0.938-7.632,2.812-10.028s4.482-3.595,7.822-3.595
		c1.102,0,2.156,0.155,3.164,0.466s1.98,0.782,2.918,1.415v3.639c-0.949-0.902-1.922-1.567-2.918-1.995s-2.051-0.642-3.164-0.642
		c-2.309,0-4.04,0.894-5.194,2.681s-1.731,4.474-1.731,8.06c0,3.645,0.56,6.343,1.679,8.095s2.839,2.628,5.159,2.628
		c0.785,0,1.474-0.091,2.065-0.272s1.128-0.466,1.608-0.853v-7.049h-3.814v-2.918h7.207V46.706z"/>
	<path fill="#3FA9F5" d="M88.604,22.624h14.572v2.988h-5.502v20.268h5.502v2.988H88.604v-2.988h5.502V25.612h-5.502V22.624z"/>
	<path fill="#3FA9F5" d="M107.079,22.711h4.852l10.266,21.533V22.711h3.779v26.156h-4.852l-10.266-21.533v21.533h-3.779V22.711z"/>
	<path fill="#3FA9F5" d="M168.233,49.764v2.531h-1.125c-2.918,0-4.872-0.434-5.862-1.301s-1.485-2.596-1.485-5.186v-3.516
		c0-1.277-0.36-2.379-1.081-3.305s-1.837-1.389-3.349-1.389h-2.145v-2.514h2.145c1.652,0,2.804-0.393,3.454-1.178
		s0.976-1.939,0.976-3.463v-4.57c0-2.59,0.495-4.315,1.485-5.177s2.944-1.292,5.862-1.292h1.125v2.514h-1.23
		c-1.641,0-2.71,0.255-3.208,0.765s-0.747,1.597-0.747,3.261v4.711c0,2.062-0.404,3.448-1.213,4.157s-2.385,1.222-4.729,1.538
		c2.273,0.27,3.832,0.788,4.676,1.556s1.266,2.153,1.266,4.157v3.674c0,1.676,0.249,2.766,0.747,3.27s1.567,0.756,3.208,0.756
		H168.233z"/>
	<path fill="#3FA9F5" d="M100.698,65.823h3.34L90.222,95.407h-3.357L100.698,65.823z"/>
	<path fill="#3FA9F5" d="M122.372,65.823h3.34l-13.816,29.584h-3.357L122.372,65.823z"/>
	<path fill="#3FA9F5" d="M155.647,72.45h8.279v17.104h6.416v2.514h-16.066v-2.514h6.416v-14.59h-5.045V72.45z M160.692,64.804h3.234
		v4.078h-3.234V64.804z"/>
	<path fill="#3FA9F5" d="M190.241,79.868v12.199h-3.252V79.868c0-1.77-0.311-3.07-0.932-3.902s-1.594-1.248-2.918-1.248
		c-1.512,0-2.675,0.536-3.489,1.608s-1.222,2.61-1.222,4.614v11.127h-3.234V72.38h3.234v2.953c0.574-1.125,1.354-1.978,2.338-2.558
		s2.15-0.87,3.498-0.87c2.004,0,3.501,0.659,4.491,1.978S190.241,77.196,190.241,79.868z"/>
	<path fill="#3FA9F5" d="M198.995,72.45h8.279v17.104h6.416v2.514h-16.066v-2.514h6.416v-14.59h-5.045V72.45z M204.04,64.804h3.234
		v4.078h-3.234V64.804z"/>
	<path fill="#3FA9F5" d="M225.907,66.79v5.59h7.348v2.514h-7.348v10.688c0,1.453,0.275,2.467,0.826,3.041s1.512,0.861,2.883,0.861
		h3.639v2.584H229.3c-2.426,0-4.137-0.486-5.133-1.459s-1.494-2.648-1.494-5.027V74.894h-5.256V72.38h5.256v-5.59H225.907z"/>
	<path fill="#3FA9F5" d="M242.343,72.45h8.279v17.104h6.416v2.514h-16.066v-2.514h6.416v-14.59h-5.045V72.45z M247.388,64.804h3.234
		v4.078h-3.234V64.804z"/>
	<path fill="#3FA9F5" d="M277.077,80.835v11.232h-3.252v-2.918c-0.691,1.172-1.562,2.036-2.61,2.593s-2.323,0.835-3.823,0.835
		c-2.004,0-3.604-0.565-4.799-1.696s-1.793-2.646-1.793-4.544c0-2.191,0.735-3.855,2.206-4.992s3.63-1.705,6.478-1.705h4.342v-0.51
		c-0.012-1.57-0.41-2.71-1.195-3.419s-2.039-1.063-3.762-1.063c-1.102,0-2.215,0.158-3.34,0.475s-2.221,0.779-3.287,1.389v-3.234
		c1.195-0.457,2.341-0.8,3.437-1.028s2.159-0.343,3.19-0.343c1.629,0,3.021,0.24,4.175,0.721s2.089,1.201,2.804,2.162
		c0.445,0.586,0.762,1.31,0.949,2.171S277.077,79.112,277.077,80.835z M270.802,82.171h-1.072c-1.887,0-3.308,0.331-4.263,0.993
		s-1.433,1.649-1.433,2.962c0,1.184,0.357,2.104,1.072,2.76s1.705,0.984,2.971,0.984c1.781,0,3.182-0.618,4.201-1.854
		s1.535-2.944,1.547-5.124v-0.721H270.802z"/>
	<path fill="#3FA9F5" d="M292.774,84.948c0,1.453,0.267,2.549,0.8,3.287s1.321,1.107,2.364,1.107h3.779v2.725h-4.096
		c-1.934,0-3.431-0.618-4.491-1.854s-1.591-2.991-1.591-5.265V67.142h-5.186V64.61h8.42V84.948z"/>
	<path fill="#3FA9F5" d="M307.364,72.45h8.279v17.104h6.416v2.514h-16.066v-2.514h6.416v-14.59h-5.045V72.45z M312.409,64.804h3.234
		v4.078h-3.234V64.804z"/>
	<path fill="#3FA9F5" d="M327.474,72.345h14.291v2.953l-11.303,14.133h11.303v2.637h-14.713v-2.988l11.303-14.15h-10.881V72.345z"/>
	<path fill="#3FA9F5" d="M364.845,80.606v1.582h-14.01v0.105c-0.094,2.684,0.419,4.611,1.538,5.783s2.698,1.758,4.737,1.758
		c1.031,0,2.109-0.164,3.234-0.492s2.326-0.826,3.604-1.494v3.217c-1.23,0.504-2.417,0.882-3.56,1.134s-2.247,0.378-3.313,0.378
		c-3.059,0-5.449-0.917-7.172-2.751s-2.584-4.362-2.584-7.585c0-3.141,0.844-5.648,2.531-7.523s3.938-2.812,6.75-2.812
		c2.508,0,4.485,0.85,5.933,2.549S364.751,78.204,364.845,80.606z M361.61,79.657c-0.141-1.359-0.636-2.534-1.485-3.524
		s-2.071-1.485-3.665-1.485c-1.559,0-2.842,0.516-3.85,1.547s-1.559,2.191-1.652,3.48L361.61,79.657z"/>
	<path fill="#3FA9F5" d="M390.263,72.38h3.357l5.713,16.523l5.73-16.523h3.357l-6.996,19.688h-4.166L390.263,72.38z"/>
	<path fill="#3FA9F5" d="M428.794,80.835v11.232h-3.252v-2.918c-0.691,1.172-1.562,2.036-2.61,2.593s-2.323,0.835-3.823,0.835
		c-2.004,0-3.604-0.565-4.799-1.696s-1.793-2.646-1.793-4.544c0-2.191,0.735-3.855,2.206-4.992s3.63-1.705,6.478-1.705h4.342v-0.51
		c-0.012-1.57-0.41-2.71-1.195-3.419s-2.039-1.063-3.762-1.063c-1.102,0-2.215,0.158-3.34,0.475s-2.221,0.779-3.287,1.389v-3.234
		c1.195-0.457,2.341-0.8,3.437-1.028s2.159-0.343,3.19-0.343c1.629,0,3.021,0.24,4.175,0.721s2.089,1.201,2.804,2.162
		c0.445,0.586,0.762,1.31,0.949,2.171S428.794,79.112,428.794,80.835z M422.519,82.171h-1.072c-1.887,0-3.308,0.331-4.263,0.993
		s-1.433,1.649-1.433,2.962c0,1.184,0.357,2.104,1.072,2.76s1.705,0.984,2.971,0.984c1.781,0,3.182-0.618,4.201-1.854
		s1.535-2.944,1.547-5.124v-0.721H422.519z"/>
	<path fill="#3FA9F5" d="M452.155,76.44c-0.691-0.539-1.395-0.932-2.109-1.178s-1.5-0.369-2.355-0.369
		c-2.016,0-3.557,0.633-4.623,1.898s-1.6,3.094-1.6,5.484v9.791h-3.252V72.38h3.252v3.85c0.539-1.395,1.368-2.464,2.487-3.208
		s2.446-1.116,3.981-1.116c0.797,0,1.541,0.1,2.232,0.299s1.354,0.51,1.986,0.932V76.44z"/>
	<path fill="#3FA9F5" d="M459.081,72.45h8.279v17.104h6.416v2.514H457.71v-2.514h6.416v-14.59h-5.045V72.45z M464.126,64.804h3.234
		v4.078h-3.234V64.804z"/>
	<path fill="#3FA9F5" d="M493.815,80.835v11.232h-3.252v-2.918c-0.691,1.172-1.562,2.036-2.61,2.593s-2.323,0.835-3.823,0.835
		c-2.004,0-3.604-0.565-4.799-1.696s-1.793-2.646-1.793-4.544c0-2.191,0.735-3.855,2.206-4.992s3.63-1.705,6.478-1.705h4.342v-0.51
		c-0.012-1.57-0.41-2.71-1.195-3.419s-2.039-1.063-3.762-1.063c-1.102,0-2.215,0.158-3.34,0.475s-2.221,0.779-3.287,1.389v-3.234
		c1.195-0.457,2.341-0.8,3.437-1.028s2.159-0.343,3.19-0.343c1.629,0,3.021,0.24,4.175,0.721s2.089,1.201,2.804,2.162
		c0.445,0.586,0.762,1.31,0.949,2.171S493.815,79.112,493.815,80.835z M487.54,82.171h-1.072c-1.887,0-3.308,0.331-4.263,0.993
		s-1.433,1.649-1.433,2.962c0,1.184,0.357,2.104,1.072,2.76s1.705,0.984,2.971,0.984c1.781,0,3.182-0.618,4.201-1.854
		s1.535-2.944,1.547-5.124v-0.721H487.54z"/>
	<path fill="#3FA9F5" d="M503.501,74.894c0.516-0.961,1.228-1.699,2.136-2.215s1.96-0.773,3.155-0.773
		c2.367,0,4.23,0.911,5.59,2.733s2.039,4.333,2.039,7.532c0,3.246-0.683,5.792-2.048,7.638s-3.237,2.769-5.616,2.769
		c-1.172,0-2.206-0.255-3.103-0.765s-1.614-1.251-2.153-2.224v2.479h-3.234V64.716h3.234V74.894z M513.011,82.241
		c0-2.508-0.398-4.4-1.195-5.678s-1.975-1.916-3.533-1.916c-1.57,0-2.76,0.642-3.568,1.925s-1.213,3.173-1.213,5.669
		c0,2.484,0.404,4.371,1.213,5.66s1.998,1.934,3.568,1.934c1.559,0,2.736-0.639,3.533-1.916S513.011,84.749,513.011,82.241z"/>
	<path fill="#3FA9F5" d="M531.187,84.948c0,1.453,0.267,2.549,0.8,3.287s1.321,1.107,2.364,1.107h3.779v2.725h-4.096
		c-1.934,0-3.431-0.618-4.491-1.854s-1.591-2.991-1.591-5.265V67.142h-5.186V64.61h8.42V84.948z"/>
	<path fill="#3FA9F5" d="M559.909,80.606v1.582h-14.01v0.105c-0.094,2.684,0.419,4.611,1.538,5.783s2.698,1.758,4.737,1.758
		c1.031,0,2.109-0.164,3.234-0.492s2.326-0.826,3.604-1.494v3.217c-1.23,0.504-2.417,0.882-3.56,1.134s-2.247,0.378-3.313,0.378
		c-3.059,0-5.449-0.917-7.172-2.751s-2.584-4.362-2.584-7.585c0-3.141,0.844-5.648,2.531-7.523s3.938-2.812,6.75-2.812
		c2.508,0,4.485,0.85,5.933,2.549S559.815,78.204,559.909,80.606z M556.675,79.657c-0.141-1.359-0.636-2.534-1.485-3.524
		s-2.071-1.485-3.665-1.485c-1.559,0-2.842,0.516-3.85,1.547s-1.559,2.191-1.652,3.48L556.675,79.657z"/>
	<path fill="#3FA9F5" d="M578.999,73.065v3.164c-0.926-0.539-1.857-0.943-2.795-1.213s-1.893-0.404-2.865-0.404
		c-1.465,0-2.558,0.237-3.278,0.712s-1.081,1.198-1.081,2.171c0,0.879,0.27,1.535,0.809,1.969s1.881,0.855,4.025,1.266l1.301,0.246
		c1.605,0.305,2.821,0.914,3.647,1.828s1.239,2.104,1.239,3.568c0,1.945-0.691,3.466-2.074,4.562s-3.305,1.644-5.766,1.644
		c-0.973,0-1.992-0.103-3.059-0.308s-2.221-0.513-3.463-0.923v-3.34c1.207,0.621,2.361,1.087,3.463,1.397s2.145,0.466,3.129,0.466
		c1.43,0,2.537-0.29,3.322-0.87s1.178-1.392,1.178-2.435c0-1.5-1.436-2.537-4.307-3.111l-0.141-0.035l-1.213-0.246
		c-1.863-0.363-3.223-0.976-4.078-1.837s-1.283-2.036-1.283-3.524c0-1.887,0.639-3.343,1.916-4.368s3.1-1.538,5.467-1.538
		c1.055,0,2.068,0.097,3.041,0.29S578.062,72.679,578.999,73.065z"/>
	<path fill="#3FA9F5" d="M25.13,136.164c1.641,0,2.71-0.252,3.208-0.756s0.747-1.594,0.747-3.27v-3.674
		c0-2.004,0.422-3.39,1.266-4.157s2.402-1.286,4.676-1.556c-2.344-0.316-3.92-0.829-4.729-1.538s-1.213-2.095-1.213-4.157v-4.711
		c0-1.664-0.249-2.751-0.747-3.261s-1.567-0.765-3.208-0.765h-1.23v-2.514h1.125c2.918,0,4.872,0.431,5.862,1.292
		s1.485,2.587,1.485,5.177v4.57c0,1.523,0.325,2.678,0.976,3.463s1.802,1.178,3.454,1.178h2.145V124h-2.145
		c-1.512,0-2.628,0.463-3.349,1.389s-1.081,2.027-1.081,3.305v3.516c0,2.59-0.495,4.318-1.485,5.186s-2.944,1.301-5.862,1.301
		h-1.125v-2.531H25.13z"/>
	<path fill="#7AC943" d="M38.19,222.564v2.531h-1.125c-2.918,0-4.872-0.434-5.862-1.301s-1.485-2.596-1.485-5.186v-3.516
		c0-1.277-0.36-2.379-1.081-3.305S26.8,210.4,25.288,210.4h-2.145v-2.514h2.145c1.652,0,2.804-0.393,3.454-1.178
		s0.976-1.939,0.976-3.463v-4.57c0-2.59,0.495-4.315,1.485-5.177s2.944-1.292,5.862-1.292h1.125v2.514h-1.23
		c-1.641,0-2.71,0.255-3.208,0.765s-0.747,1.597-0.747,3.261v4.711c0,2.062-0.404,3.448-1.213,4.157s-2.385,1.222-4.729,1.538
		c2.273,0.27,3.832,0.788,4.676,1.556s1.266,2.153,1.266,4.157v3.674c0,1.676,0.249,2.766,0.747,3.27s1.567,0.756,3.208,0.756H38.19
		z"/>
	<path fill="#7AC943" d="M122.372,238.624h3.34l-13.816,29.584h-3.357L122.372,238.624z"/>
	<path fill="#7AC943" d="M135.011,262.389v9.967h-3.252V245.18h3.252v2.514c0.539-0.973,1.257-1.714,2.153-2.224
		s1.931-0.765,3.103-0.765c2.379,0,4.245,0.92,5.599,2.76s2.03,4.389,2.03,7.646c0,3.199-0.68,5.71-2.039,7.532
		s-3.223,2.733-5.59,2.733c-1.195,0-2.241-0.255-3.138-0.765S135.526,263.362,135.011,262.389z M144.503,255.042
		c0-2.508-0.396-4.4-1.187-5.678s-1.966-1.916-3.524-1.916c-1.57,0-2.76,0.642-3.568,1.925s-1.213,3.173-1.213,5.669
		c0,2.484,0.404,4.371,1.213,5.66s1.998,1.934,3.568,1.934c1.559,0,2.733-0.639,3.524-1.916S144.503,257.549,144.503,255.042z"/>
	<path fill="#7AC943" d="M168.708,253.635v11.232h-3.252v-2.918c-0.691,1.172-1.562,2.036-2.61,2.593s-2.323,0.835-3.823,0.835
		c-2.004,0-3.604-0.565-4.799-1.696s-1.793-2.646-1.793-4.544c0-2.191,0.735-3.855,2.206-4.992s3.63-1.705,6.478-1.705h4.342v-0.51
		c-0.012-1.57-0.41-2.71-1.195-3.419s-2.039-1.063-3.762-1.063c-1.102,0-2.215,0.158-3.34,0.475s-2.221,0.779-3.287,1.389v-3.234
		c1.195-0.457,2.341-0.8,3.437-1.028s2.159-0.343,3.19-0.343c1.629,0,3.021,0.24,4.175,0.721s2.089,1.201,2.804,2.162
		c0.445,0.586,0.762,1.31,0.949,2.171S168.708,251.913,168.708,253.635z M162.433,254.971h-1.072c-1.887,0-3.308,0.331-4.263,0.993
		s-1.433,1.649-1.433,2.962c0,1.184,0.357,2.104,1.072,2.76s1.705,0.984,2.971,0.984c1.781,0,3.182-0.618,4.201-1.854
		s1.535-2.944,1.547-5.124v-0.721H162.433z"/>
	<path fill="#7AC943" d="M182.56,239.59v5.59h7.348v2.514h-7.348v10.688c0,1.453,0.275,2.467,0.826,3.041s1.512,0.861,2.883,0.861
		h3.639v2.584h-3.955c-2.426,0-4.137-0.486-5.133-1.459s-1.494-2.648-1.494-5.027v-10.688h-5.256v-2.514h5.256v-5.59H182.56z"/>
	<path fill="#7AC943" d="M204.233,239.59v5.59h7.348v2.514h-7.348v10.688c0,1.453,0.275,2.467,0.826,3.041s1.512,0.861,2.883,0.861
		h3.639v2.584h-3.955c-2.426,0-4.137-0.486-5.133-1.459s-1.494-2.648-1.494-5.027v-10.688h-5.256v-2.514h5.256v-5.59H204.233z"/>
	<path fill="#7AC943" d="M234.802,253.407v1.582h-14.01v0.105c-0.094,2.684,0.419,4.611,1.538,5.783s2.698,1.758,4.737,1.758
		c1.031,0,2.109-0.164,3.234-0.492s2.326-0.826,3.604-1.494v3.217c-1.23,0.504-2.417,0.882-3.56,1.134s-2.247,0.378-3.313,0.378
		c-3.059,0-5.449-0.917-7.172-2.751s-2.584-4.362-2.584-7.585c0-3.141,0.844-5.648,2.531-7.523s3.938-2.812,6.75-2.812
		c2.508,0,4.485,0.85,5.933,2.549S234.708,251.004,234.802,253.407z M231.567,252.458c-0.141-1.359-0.636-2.534-1.485-3.524
		s-2.071-1.485-3.665-1.485c-1.559,0-2.842,0.516-3.85,1.547s-1.559,2.191-1.652,3.48L231.567,252.458z"/>
	<path fill="#7AC943" d="M257.091,249.241c-0.691-0.539-1.395-0.932-2.109-1.178s-1.5-0.369-2.355-0.369
		c-2.016,0-3.557,0.633-4.623,1.898s-1.6,3.094-1.6,5.484v9.791h-3.252V245.18h3.252v3.85c0.539-1.395,1.368-2.464,2.487-3.208
		s2.446-1.116,3.981-1.116c0.797,0,1.541,0.1,2.232,0.299s1.354,0.51,1.986,0.932V249.241z"/>
	<path fill="#7AC943" d="M276.937,252.668v12.199h-3.252v-12.199c0-1.77-0.311-3.07-0.932-3.902s-1.594-1.248-2.918-1.248
		c-1.512,0-2.675,0.536-3.489,1.608s-1.222,2.61-1.222,4.614v11.127h-3.234V245.18h3.234v2.953c0.574-1.125,1.354-1.978,2.338-2.558
		s2.15-0.87,3.498-0.87c2.004,0,3.501,0.659,4.491,1.978S276.937,249.997,276.937,252.668z"/>
	<path fill="#7AC943" d="M295.763,238.624h3.34l-13.816,29.584h-3.357L295.763,238.624z"/>
	<path fill="#7AC943" d="M341.624,265.764v2.531h-1.125c-2.918,0-4.872-0.434-5.862-1.301s-1.485-2.596-1.485-5.186v-3.516
		c0-1.277-0.36-2.379-1.081-3.305s-1.837-1.389-3.349-1.389h-2.145v-2.514h2.145c1.652,0,2.804-0.393,3.454-1.178
		s0.976-1.939,0.976-3.463v-4.57c0-2.59,0.495-4.315,1.485-5.177s2.944-1.292,5.862-1.292h1.125v2.514h-1.23
		c-1.641,0-2.71,0.255-3.208,0.765s-0.747,1.597-0.747,3.261v4.711c0,2.062-0.404,3.448-1.213,4.157s-2.385,1.222-4.729,1.538
		c2.273,0.27,3.832,0.788,4.676,1.556s1.266,2.153,1.266,4.157v3.674c0,1.676,0.249,2.766,0.747,3.27s1.567,0.756,3.208,0.756
		H341.624z"/>
	<path fill="#7AC943" d="M385.446,253.635v11.232h-3.252v-2.918c-0.691,1.172-1.562,2.036-2.61,2.593s-2.323,0.835-3.823,0.835
		c-2.004,0-3.604-0.565-4.799-1.696s-1.793-2.646-1.793-4.544c0-2.191,0.735-3.855,2.206-4.992s3.63-1.705,6.478-1.705h4.342v-0.51
		c-0.012-1.57-0.41-2.71-1.195-3.419s-2.039-1.063-3.762-1.063c-1.102,0-2.215,0.158-3.34,0.475s-2.221,0.779-3.287,1.389v-3.234
		c1.195-0.457,2.341-0.8,3.437-1.028s2.159-0.343,3.19-0.343c1.629,0,3.021,0.24,4.175,0.721s2.089,1.201,2.804,2.162
		c0.445,0.586,0.762,1.31,0.949,2.171S385.446,251.913,385.446,253.635z M379.171,254.971h-1.072c-1.887,0-3.308,0.331-4.263,0.993
		s-1.433,1.649-1.433,2.962c0,1.184,0.357,2.104,1.072,2.76s1.705,0.984,2.971,0.984c1.781,0,3.182-0.618,4.201-1.854
		s1.535-2.944,1.547-5.124v-0.721H379.171z"/>
	<path fill="#7AC943" d="M407.155,263.866c-0.867,0.504-1.761,0.882-2.681,1.134s-1.86,0.378-2.821,0.378
		c-3.047,0-5.429-0.914-7.146-2.742s-2.575-4.359-2.575-7.594s0.858-5.766,2.575-7.594s4.099-2.742,7.146-2.742
		c0.949,0,1.875,0.123,2.777,0.369s1.811,0.627,2.725,1.143v3.393c-0.855-0.762-1.714-1.312-2.575-1.652s-1.837-0.51-2.927-0.51
		c-2.027,0-3.586,0.656-4.676,1.969s-1.635,3.188-1.635,5.625c0,2.426,0.548,4.298,1.644,5.616s2.651,1.978,4.667,1.978
		c1.125,0,2.133-0.173,3.023-0.519s1.717-0.882,2.479-1.608V263.866z"/>
	<path fill="#7AC943" d="M420.972,239.59v5.59h7.348v2.514h-7.348v10.688c0,1.453,0.275,2.467,0.826,3.041s1.512,0.861,2.883,0.861
		h3.639v2.584h-3.955c-2.426,0-4.137-0.486-5.133-1.459s-1.494-2.648-1.494-5.027v-10.688h-5.256v-2.514h5.256v-5.59H420.972z"/>
	<path fill="#7AC943" d="M437.407,245.25h8.279v17.104h6.416v2.514h-16.066v-2.514h6.416v-14.59h-5.045V245.25z M442.452,237.604
		h3.234v4.078h-3.234V237.604z"/>
	<path fill="#7AC943" d="M464.354,244.706c2.73,0,4.819,0.885,6.267,2.654s2.171,4.33,2.171,7.682c0,3.363-0.721,5.927-2.162,7.69
		s-3.533,2.646-6.275,2.646c-2.73,0-4.816-0.882-6.258-2.646s-2.162-4.327-2.162-7.69c0-3.352,0.721-5.912,2.162-7.682
		S461.624,244.706,464.354,244.706z M464.354,247.448c-1.641,0-2.883,0.639-3.727,1.916s-1.266,3.17-1.266,5.678
		c0,2.496,0.422,4.386,1.266,5.669s2.086,1.925,3.727,1.925c1.652,0,2.9-0.642,3.744-1.925s1.266-3.173,1.266-5.669
		c0-2.508-0.422-4.4-1.266-5.678S466.007,247.448,464.354,247.448z"/>
	<path fill="#7AC943" d="M493.675,252.668v12.199h-3.252v-12.199c0-1.77-0.311-3.07-0.932-3.902s-1.594-1.248-2.918-1.248
		c-1.512,0-2.675,0.536-3.489,1.608s-1.222,2.61-1.222,4.614v11.127h-3.234V245.18h3.234v2.953c0.574-1.125,1.354-1.978,2.338-2.558
		s2.15-0.87,3.498-0.87c2.004,0,3.501,0.659,4.491,1.978S493.675,249.997,493.675,252.668z"/>
	<path fill="#7AC943" d="M523.628,265.764c1.641,0,2.71-0.252,3.208-0.756s0.747-1.594,0.747-3.27v-3.674
		c0-2.004,0.422-3.39,1.266-4.157s2.402-1.286,4.676-1.556c-2.344-0.316-3.92-0.829-4.729-1.538s-1.213-2.095-1.213-4.157v-4.711
		c0-1.664-0.249-2.751-0.747-3.261s-1.567-0.765-3.208-0.765h-1.23v-2.514h1.125c2.918,0,4.872,0.431,5.862,1.292
		s1.485,2.587,1.485,5.177v4.57c0,1.523,0.325,2.678,0.976,3.463s1.802,1.178,3.454,1.178h2.145v2.514H535.3
		c-1.512,0-2.628,0.463-3.349,1.389s-1.081,2.027-1.081,3.305v3.516c0,2.59-0.495,4.318-1.485,5.186s-2.944,1.301-5.862,1.301
		h-1.125v-2.531H523.628z"/>
	<path fill="#7AC943" d="M25.13,308.964c1.641,0,2.71-0.252,3.208-0.756s0.747-1.594,0.747-3.27v-3.674
		c0-2.004,0.422-3.39,1.266-4.157s2.402-1.286,4.676-1.556c-2.344-0.316-3.92-0.829-4.729-1.538s-1.213-2.095-1.213-4.157v-4.711
		c0-1.664-0.249-2.751-0.747-3.261s-1.567-0.765-3.208-0.765h-1.23v-2.514h1.125c2.918,0,4.872,0.431,5.862,1.292
		s1.485,2.587,1.485,5.177v4.57c0,1.523,0.325,2.678,0.976,3.463s1.802,1.178,3.454,1.178h2.145v2.514h-2.145
		c-1.512,0-2.628,0.463-3.349,1.389s-1.081,2.027-1.081,3.305v3.516c0,2.59-0.495,4.318-1.485,5.186s-2.944,1.301-5.862,1.301
		h-1.125v-2.531H25.13z"/>
	<path fill="#FF1D25" d="M23.513,368.224h15.574v2.988H27.063v7.066H38.56v2.988H27.063v10.213h12.357v2.988H23.513V368.224z"/>
	<path fill="#FF1D25" d="M42.058,368.312h4.852l10.266,21.533v-21.533h3.779v26.156h-4.852l-10.266-21.533v21.533h-3.779V368.312z"
		/>
	<path fill="#FF1D25" d="M71.132,368.224c4.008,0,6.961,1.066,8.859,3.199s2.848,5.449,2.848,9.949c0,4.477-0.949,7.778-2.848,9.905
		s-4.852,3.19-8.859,3.19h-5.326v-26.244H71.132z M71.062,391.55c2.988,0,5.074-0.735,6.258-2.206s1.775-4.128,1.775-7.972
		c0-3.879-0.589-6.554-1.767-8.024s-3.267-2.206-6.267-2.206h-1.688v20.408H71.062z"/>
	<path fill="#FF1D25" d="M124.886,395.364v2.531h-1.125c-2.918,0-4.872-0.434-5.862-1.301s-1.485-2.596-1.485-5.186v-3.516
		c0-1.277-0.36-2.379-1.081-3.305s-1.837-1.389-3.349-1.389h-2.145v-2.514h2.145c1.652,0,2.804-0.393,3.454-1.178
		s0.976-1.939,0.976-3.463v-4.57c0-2.59,0.495-4.315,1.485-5.177s2.944-1.292,5.862-1.292h1.125v2.514h-1.23
		c-1.641,0-2.71,0.255-3.208,0.765s-0.747,1.597-0.747,3.261v4.711c0,2.062-0.404,3.448-1.213,4.157s-2.385,1.222-4.729,1.538
		c2.273,0.27,3.832,0.788,4.676,1.556s1.266,2.153,1.266,4.157v3.674c0,1.676,0.249,2.766,0.747,3.27s1.567,0.756,3.208,0.756
		H124.886z"/>
	<path fill="#FF1D25" d="M122.372,411.423h3.34l-13.816,29.584h-3.357L122.372,411.423z"/>
	<path fill="#FF1D25" d="M144.046,411.423h3.34l-13.816,29.584h-3.357L144.046,411.423z"/>
	<path fill="#FF1D25" d="M190.417,436.666c-0.867,0.504-1.761,0.882-2.681,1.134s-1.86,0.378-2.821,0.378
		c-3.047,0-5.429-0.914-7.146-2.742s-2.575-4.359-2.575-7.594s0.858-5.766,2.575-7.594s4.099-2.742,7.146-2.742
		c0.949,0,1.875,0.123,2.777,0.369s1.811,0.627,2.725,1.143v3.393c-0.855-0.762-1.714-1.312-2.575-1.652s-1.837-0.51-2.927-0.51
		c-2.027,0-3.586,0.656-4.676,1.969s-1.635,3.188-1.635,5.625c0,2.426,0.548,4.298,1.644,5.616s2.651,1.978,4.667,1.978
		c1.125,0,2.133-0.173,3.023-0.519s1.717-0.882,2.479-1.608V436.666z"/>
	<path fill="#FF1D25" d="M206.079,430.548c0,1.453,0.267,2.549,0.8,3.287s1.321,1.107,2.364,1.107h3.779v2.725h-4.096
		c-1.934,0-3.431-0.618-4.491-1.854s-1.591-2.991-1.591-5.265v-17.807h-5.186v-2.531h8.42V430.548z"/>
	<path fill="#FF1D25" d="M234.802,426.207v1.582h-14.01v0.105c-0.094,2.684,0.419,4.611,1.538,5.783s2.698,1.758,4.737,1.758
		c1.031,0,2.109-0.164,3.234-0.492s2.326-0.826,3.604-1.494v3.217c-1.23,0.504-2.417,0.882-3.56,1.134s-2.247,0.378-3.313,0.378
		c-3.059,0-5.449-0.917-7.172-2.751s-2.584-4.362-2.584-7.585c0-3.141,0.844-5.648,2.531-7.523s3.938-2.812,6.75-2.812
		c2.508,0,4.485,0.85,5.933,2.549S234.708,423.804,234.802,426.207z M231.567,425.257c-0.141-1.359-0.636-2.534-1.485-3.524
		s-2.071-1.485-3.665-1.485c-1.559,0-2.842,0.516-3.85,1.547s-1.559,2.191-1.652,3.48L231.567,425.257z"/>
	<path fill="#FF1D25" d="M255.403,426.435v11.232h-3.252v-2.918c-0.691,1.172-1.562,2.036-2.61,2.593s-2.323,0.835-3.823,0.835
		c-2.004,0-3.604-0.565-4.799-1.696s-1.793-2.646-1.793-4.544c0-2.191,0.735-3.855,2.206-4.992s3.63-1.705,6.478-1.705h4.342v-0.51
		c-0.012-1.57-0.41-2.71-1.195-3.419s-2.039-1.063-3.762-1.063c-1.102,0-2.215,0.158-3.34,0.475s-2.221,0.779-3.287,1.389v-3.234
		c1.195-0.457,2.341-0.8,3.437-1.028s2.159-0.343,3.19-0.343c1.629,0,3.021,0.24,4.175,0.721s2.089,1.201,2.804,2.162
		c0.445,0.586,0.762,1.31,0.949,2.171S255.403,424.712,255.403,426.435z M249.128,427.771h-1.072c-1.887,0-3.308,0.331-4.263,0.993
		s-1.433,1.649-1.433,2.962c0,1.184,0.357,2.104,1.072,2.76s1.705,0.984,2.971,0.984c1.781,0,3.182-0.618,4.201-1.854
		s1.535-2.944,1.547-5.124v-0.721H249.128z"/>
	<path fill="#FF1D25" d="M276.937,425.468v12.199h-3.252v-12.199c0-1.77-0.311-3.07-0.932-3.902s-1.594-1.248-2.918-1.248
		c-1.512,0-2.675,0.536-3.489,1.608s-1.222,2.61-1.222,4.614v11.127h-3.234V417.98h3.234v2.953c0.574-1.125,1.354-1.978,2.338-2.558
		s2.15-0.87,3.498-0.87c2.004,0,3.501,0.659,4.491,1.978S276.937,422.796,276.937,425.468z"/>
	<path fill="#FF1D25" d="M283.563,430.214v-12.199h3.234v12.199c0,1.77,0.313,3.07,0.94,3.902s1.597,1.248,2.909,1.248
		c1.523,0,2.689-0.536,3.498-1.608s1.213-2.61,1.213-4.614v-11.127h3.252v19.652h-3.252v-2.953
		c-0.574,1.137-1.356,1.998-2.347,2.584s-2.147,0.879-3.472,0.879c-2.016,0-3.516-0.659-4.5-1.978S283.563,432.886,283.563,430.214z
		"/>
	<path fill="#FF1D25" d="M308.401,435.189v9.967h-3.252V417.98h3.252v2.514c0.539-0.973,1.257-1.714,2.153-2.224
		s1.931-0.765,3.103-0.765c2.379,0,4.245,0.92,5.599,2.76s2.03,4.389,2.03,7.646c0,3.199-0.68,5.71-2.039,7.532
		s-3.223,2.733-5.59,2.733c-1.195,0-2.241-0.255-3.138-0.765S308.917,436.162,308.401,435.189z M317.894,427.841
		c0-2.508-0.396-4.4-1.187-5.678s-1.966-1.916-3.524-1.916c-1.57,0-2.76,0.642-3.568,1.925s-1.213,3.173-1.213,5.669
		c0,2.484,0.404,4.371,1.213,5.66s1.998,1.934,3.568,1.934c1.559,0,2.733-0.639,3.524-1.916S317.894,430.349,317.894,427.841z"/>
	<path fill="#FF1D25" d="M25.13,481.764c1.641,0,2.71-0.252,3.208-0.756s0.747-1.594,0.747-3.27v-3.674
		c0-2.004,0.422-3.39,1.266-4.157s2.402-1.286,4.676-1.556c-2.344-0.316-3.92-0.829-4.729-1.538s-1.213-2.095-1.213-4.157v-4.711
		c0-1.664-0.249-2.751-0.747-3.261s-1.567-0.765-3.208-0.765h-1.23v-2.514h1.125c2.918,0,4.872,0.431,5.862,1.292
		s1.485,2.587,1.485,5.177v4.57c0,1.523,0.325,2.678,0.976,3.463s1.802,1.178,3.454,1.178h2.145v2.514h-2.145
		c-1.512,0-2.628,0.463-3.349,1.389s-1.081,2.027-1.081,3.305v3.516c0,2.59-0.495,4.318-1.485,5.186s-2.944,1.301-5.862,1.301
		h-1.125v-2.531H25.13z"/>
</g>
<g>
	<g>
		<path fill="none" stroke="#3FA9F5" stroke-width="6" stroke-miterlimit="10" d="M707.761,114.148
			C685.893,95.505,645.395,83,599,83"/>
		<g>
			<path fill="#3FA9F5" d="M725,146c-3.167-17.896-4.559-41.589-1.334-58.673l-19.391,23.34l-29.831,5.532
				C690.93,121.721,710.931,134.499,725,146z"/>
		</g>
	</g>
</g>
<g>
	<g>
		<path fill="none" stroke="#7AC943" stroke-width="7" stroke-miterlimit="10" d="M821.682,278.463
			c-6.214,36.146-32.664,67.25-70.375,77.573c-51.933,14.217-105.559-16.358-119.774-68.292
			c-14.217-51.932,16.357-105.558,68.291-119.773c51.934-14.217,105.559,16.359,119.773,68.292"/>
		<g>
			<path fill="#7AC943" d="M819.597,236.263c-6.802,20.083-18.674,45.098-31.559,60.763l32.931-12.992l33.616,11.081
				C840.822,280.215,827.534,255.922,819.597,236.263z"/>
		</g>
	</g>
</g>
<g>
	<g>
		<path fill="none" stroke="#FF1D25" stroke-width="6" stroke-miterlimit="10" d="M729,381c0,27.71-64.353,50.77-149.804,55.924"/>
		<g>
			<path fill="#FF1D25" d="M543,438c16.82-6.884,37.591-18.366,50.31-30.22l-9.369,28.862l11.262,28.171
				C581.726,453.828,560.239,443.748,543,438z"/>
		</g>
	</g>
</g>
<g>
	<g>
		<path fill="none" stroke="#7AC943" stroke-width="7" stroke-miterlimit="10" d="M629.729,246.573
			c6.214-36.146,32.664-67.25,70.375-77.574c51.933-14.217,105.557,16.359,119.774,68.292
			c14.217,51.933-16.359,105.557-68.292,119.772c-51.933,14.218-105.556-16.357-119.774-68.291"/>
		<g>
			<path fill="#7AC943" d="M631.812,288.773c6.803-20.083,18.675-45.097,31.561-60.762l-32.932,12.991l-33.616-11.082
				C610.589,244.821,623.876,269.114,631.812,288.773z"/>
		</g>
	</g>
</g>
<g>
	<rect x="657" y="50" fill="none" width="47" height="39"/>
	<path fill="#3FA9F5" d="M660.445,58.06v-2.426c2.285-0.223,3.879-0.595,4.781-1.116s1.576-1.755,2.021-3.7h2.496v25.066h-3.375
		V58.06H660.445z"/>
</g>
<g>
	<rect x="687" y="249" fill="none" width="75" height="37"/>
	<path fill="#7AC943" d="M700.954,269.224c0.779-1.605,2.3-3.064,4.562-4.377l3.375-1.951c1.512-0.879,2.572-1.629,3.182-2.252
		c0.961-0.975,1.441-2.09,1.441-3.346c0-1.468-0.439-2.633-1.318-3.496s-2.051-1.294-3.516-1.294c-2.168,0-3.668,0.823-4.5,2.468
		c-0.445,0.881-0.691,2.104-0.738,3.667h-3.217c0.035-2.191,0.439-3.979,1.213-5.361c1.371-2.438,3.791-3.656,7.26-3.656
		c2.883,0,4.989,0.779,6.319,2.338s1.995,3.293,1.995,5.203c0,2.016-0.709,3.738-2.127,5.168c-0.82,0.832-2.291,1.84-4.412,3.023
		l-2.408,1.336c-1.148,0.633-2.051,1.236-2.707,1.811c-1.172,1.02-1.91,2.15-2.215,3.393h13.746v2.988h-17.279
		C699.727,272.716,700.175,270.829,700.954,269.224z"/>
	<path fill="#7AC943" d="M720,263.229h8.824v3.252H720V263.229z"/>
	<path fill="#7AC943" d="M742.447,274.884v-6.152h-11.039v-3.094l11.531-15.996h2.672v16.33h3.709v2.76h-3.709v6.152H742.447z
		 M742.395,265.972v-11.433l-8.068,11.433H742.395z"/>
</g>
<g>
	<rect x="667" y="434" fill="none" width="47" height="39"/>
	<path fill="#FF1D25" d="M671.447,453.468c0.211,1.805,1.049,3.053,2.514,3.744c0.75,0.352,1.617,0.527,2.602,0.527
		c1.875,0,3.264-0.598,4.166-1.793s1.354-2.52,1.354-3.973c0-1.758-0.536-3.117-1.608-4.078s-2.358-1.441-3.858-1.441
		c-1.09,0-2.024,0.211-2.804,0.633s-1.444,1.008-1.995,1.758l-2.742-0.158l1.917-13.553h13.077v3.059h-10.705l-1.072,6.996
		c0.586-0.445,1.143-0.779,1.67-1.002c0.938-0.387,2.021-0.58,3.252-0.58c2.309,0,4.266,0.744,5.871,2.232s2.408,3.375,2.408,5.66
		c0,2.379-0.735,4.477-2.206,6.293s-3.817,2.725-7.04,2.725c-2.051,0-3.864-0.577-5.44-1.731s-2.458-2.927-2.646-5.317H671.447z"/>
</g>
<g>
</g>
<g>
</g>
<g>
</g>
<g>
</g>
<g>
</g>
<g>
</g>
<g>
</g>
<g>
</g>
<g>
</g>
<g>
</g>
<g>
</g>
<g>
</g>
<g>
</g>
<g>
</g>
<g>
</g>
<g>
</g>
</svg>
