<?xml version="1.0" encoding="utf-8"?>
<!-- Generator: Adobe Illustrator 16.0.0, SVG Export Plug-In . SVG Version: 6.00 Build 0)  -->
<!DOCTYPE svg PUBLIC "-//W3C//DTD SVG 1.1//EN" "http://www.w3.org/Graphics/SVG/1.1/DTD/svg11.dtd">
<svg version="1.1" xmlns="http://www.w3.org/2000/svg" xmlns:xlink="http://www.w3.org/1999/xlink" x="0px" y="0px"
	 width="581.11px" height="413px" viewBox="0 0 581.11 413" enable-background="new 0 0 581.11 413" xml:space="preserve">
<g id="Layer_1">
	<circle fill="none" stroke="#000000" stroke-width="5" stroke-miterlimit="10" cx="330.606" cy="193.588" r="141.465"/>
	<g>
		<rect x="1.844" y="6.667" fill="none" width="105.783" height="32.791"/>
		<path d="M3.188,19.351c0.819,0.504,2.016,0.924,3.275,0.924c1.869,0,2.96-0.987,2.96-2.415c0-1.323-0.756-2.079-2.667-2.813
			c-2.31-0.819-3.737-2.016-3.737-4.01c0-2.205,1.827-3.842,4.577-3.842c1.449,0,2.499,0.336,3.128,0.693l-0.504,1.491
			C9.759,9.125,8.814,8.706,7.534,8.706c-1.932,0-2.667,1.155-2.667,2.121c0,1.323,0.861,1.974,2.813,2.729
			c2.394,0.924,3.611,2.079,3.611,4.157c0,2.184-1.617,4.073-4.955,4.073c-1.365,0-2.855-0.399-3.611-0.903L3.188,19.351z"/>
		<path d="M15.892,8.496v2.918h2.646v1.407h-2.646v5.48c0,1.26,0.357,1.974,1.386,1.974c0.483,0,0.84-0.063,1.071-0.126l0.084,1.386
			c-0.357,0.147-0.924,0.252-1.638,0.252c-0.861,0-1.554-0.273-1.995-0.777c-0.525-0.546-0.714-1.449-0.714-2.646v-5.543h-1.575
			v-1.407h1.575V8.979L15.892,8.496z"/>
		<path d="M26.244,21.576l-0.147-1.281h-0.063c-0.567,0.798-1.659,1.512-3.107,1.512c-2.058,0-3.107-1.449-3.107-2.918
			c0-2.457,2.184-3.8,6.11-3.779v-0.21c0-0.84-0.231-2.352-2.31-2.352c-0.945,0-1.932,0.294-2.646,0.756l-0.42-1.218
			c0.84-0.546,2.058-0.903,3.338-0.903c3.107,0,3.863,2.121,3.863,4.157v3.8c0,0.882,0.042,1.743,0.168,2.436H26.244z M25.971,16.39
			c-2.016-0.042-4.304,0.315-4.304,2.289c0,1.197,0.798,1.764,1.743,1.764c1.323,0,2.163-0.84,2.457-1.701
			c0.063-0.189,0.105-0.399,0.105-0.588V16.39z"/>
		<path d="M30.739,14.165c0-1.05-0.021-1.911-0.084-2.75h1.638l0.105,1.68h0.042c0.504-0.966,1.68-1.911,3.359-1.911
			c1.407,0,3.59,0.84,3.59,4.325v6.068h-1.848v-5.858c0-1.638-0.609-3.002-2.352-3.002c-1.218,0-2.163,0.861-2.478,1.89
			c-0.084,0.231-0.126,0.546-0.126,0.861v6.11h-1.848V14.165z"/>
		<path d="M51.17,6.669v12.283c0,0.903,0.021,1.932,0.084,2.625h-1.659l-0.084-1.764H49.47c-0.567,1.134-1.806,1.995-3.464,1.995
			c-2.457,0-4.346-2.079-4.346-5.165c-0.021-3.38,2.079-5.459,4.556-5.459c1.554,0,2.604,0.735,3.065,1.554h0.042V6.669H51.17z
			 M49.323,15.55c0-0.231-0.021-0.546-0.084-0.777c-0.273-1.176-1.281-2.142-2.667-2.142c-1.911,0-3.044,1.68-3.044,3.926
			c0,2.058,1.008,3.758,3.002,3.758c1.239,0,2.373-0.819,2.708-2.205c0.063-0.252,0.084-0.504,0.084-0.798V15.55z"/>
		<path d="M59.865,21.576l-0.147-1.281h-0.063c-0.567,0.798-1.659,1.512-3.107,1.512c-2.058,0-3.107-1.449-3.107-2.918
			c0-2.457,2.184-3.8,6.11-3.779v-0.21c0-0.84-0.231-2.352-2.31-2.352c-0.945,0-1.932,0.294-2.646,0.756l-0.42-1.218
			c0.84-0.546,2.058-0.903,3.338-0.903c3.107,0,3.863,2.121,3.863,4.157v3.8c0,0.882,0.042,1.743,0.168,2.436H59.865z M59.592,16.39
			c-2.016-0.042-4.304,0.315-4.304,2.289c0,1.197,0.798,1.764,1.743,1.764c1.323,0,2.163-0.84,2.457-1.701
			c0.063-0.189,0.105-0.399,0.105-0.588V16.39z"/>
		<path d="M64.36,14.584c0-1.197-0.021-2.226-0.084-3.17h1.617l0.063,1.995h0.084c0.462-1.365,1.575-2.226,2.813-2.226
			c0.21,0,0.357,0.021,0.525,0.063v1.743c-0.189-0.042-0.378-0.063-0.63-0.063c-1.302,0-2.226,0.987-2.478,2.373
			c-0.042,0.252-0.084,0.546-0.084,0.861v5.417H64.36V14.584z"/>
		<path d="M79.793,6.669v12.283c0,0.903,0.021,1.932,0.084,2.625h-1.659l-0.084-1.764h-0.042c-0.567,1.134-1.806,1.995-3.464,1.995
			c-2.457,0-4.346-2.079-4.346-5.165c-0.021-3.38,2.079-5.459,4.556-5.459c1.554,0,2.604,0.735,3.065,1.554h0.042V6.669H79.793z
			 M77.946,15.55c0-0.231-0.021-0.546-0.084-0.777c-0.273-1.176-1.281-2.142-2.667-2.142c-1.911,0-3.044,1.68-3.044,3.926
			c0,2.058,1.008,3.758,3.002,3.758c1.239,0,2.373-0.819,2.708-2.205c0.063-0.252,0.084-0.504,0.084-0.798V15.55z"/>
		<path d="M89.37,8.559c0.021,0.63-0.441,1.134-1.176,1.134c-0.651,0-1.113-0.504-1.113-1.134c0-0.651,0.483-1.155,1.155-1.155
			C88.929,7.404,89.37,7.908,89.37,8.559z M87.312,21.576V11.414h1.848v10.162H87.312z"/>
		<path d="M92.227,14.165c0-1.05-0.021-1.911-0.084-2.75h1.638l0.105,1.68h0.042c0.504-0.966,1.68-1.911,3.359-1.911
			c1.407,0,3.59,0.84,3.59,4.325v6.068h-1.848v-5.858c0-1.638-0.609-3.002-2.352-3.002c-1.218,0-2.163,0.861-2.478,1.89
			c-0.084,0.231-0.126,0.546-0.126,0.861v6.11h-1.848V14.165z"/>
	</g>
	<g>
		<g>
			<path fill="#3FA9F5" d="M453.274,124.241c-4.942-14.316-9.179-33.635-8.753-48.117l-12.915,21.74l-23.83,8.445
				C422.065,108.704,440.194,116.61,453.274,124.241z"/>
		</g>
	</g>
	<g>
		<rect x="232.781" y="145.255" fill="none" width="104.822" height="24.698"/>
		<path d="M234.033,145.979c0.691-0.115,1.597-0.214,2.75-0.214c1.416,0,2.453,0.329,3.111,0.922
			c0.609,0.527,0.972,1.333,0.972,2.322c0,1.004-0.297,1.794-0.856,2.371c-0.757,0.807-1.992,1.218-3.392,1.218
			c-0.428,0-0.823-0.016-1.152-0.099v4.445h-1.432V145.979z M235.465,151.331c0.313,0.083,0.708,0.115,1.186,0.115
			c1.729,0,2.782-0.84,2.782-2.371c0-1.465-1.037-2.173-2.617-2.173c-0.626,0-1.104,0.049-1.351,0.115V151.331z"/>
		<path d="M246.728,156.945l-0.115-1.004h-0.05c-0.444,0.625-1.3,1.186-2.437,1.186c-1.613,0-2.437-1.136-2.437-2.289
			c0-1.926,1.712-2.98,4.791-2.963v-0.165c0-0.658-0.181-1.844-1.811-1.844c-0.741,0-1.515,0.23-2.075,0.593l-0.329-0.955
			c0.659-0.428,1.613-0.708,2.618-0.708c2.437,0,3.029,1.663,3.029,3.26v2.98c0,0.691,0.033,1.366,0.132,1.91H246.728z
			 M246.514,152.878c-1.581-0.033-3.375,0.247-3.375,1.795c0,0.938,0.625,1.383,1.366,1.383c1.037,0,1.696-0.659,1.927-1.333
			c0.049-0.148,0.082-0.313,0.082-0.461V152.878z"/>
		<path d="M251.931,146.688v2.289h2.074v1.103h-2.074v4.297c0,0.988,0.279,1.547,1.087,1.547c0.378,0,0.658-0.049,0.839-0.099
			l0.066,1.087c-0.28,0.115-0.725,0.197-1.284,0.197c-0.675,0-1.219-0.214-1.564-0.609c-0.411-0.428-0.56-1.136-0.56-2.075v-4.347
			h-1.235v-1.103h1.235v-1.91L251.931,146.688z"/>
		<path d="M257.381,146.688v2.289h2.074v1.103h-2.074v4.297c0,0.988,0.279,1.547,1.087,1.547c0.378,0,0.658-0.049,0.839-0.099
			l0.066,1.087c-0.28,0.115-0.725,0.197-1.284,0.197c-0.675,0-1.219-0.214-1.564-0.609c-0.411-0.428-0.56-1.136-0.56-2.075v-4.347
			h-1.235v-1.103h1.235v-1.91L257.381,146.688z"/>
		<path d="M261.794,153.224c0.033,1.959,1.284,2.766,2.733,2.766c1.037,0,1.662-0.181,2.206-0.412l0.247,1.038
			c-0.511,0.23-1.384,0.494-2.651,0.494c-2.453,0-3.918-1.613-3.918-4.017s1.416-4.297,3.737-4.297c2.602,0,3.293,2.289,3.293,3.754
			c0,0.296-0.033,0.527-0.05,0.675H261.794z M266.042,152.187c0.016-0.922-0.379-2.354-2.009-2.354c-1.466,0-2.107,1.35-2.223,2.354
			H266.042z"/>
		<path d="M269.236,151.462c0-0.938-0.017-1.746-0.066-2.486h1.268l0.05,1.564h0.065c0.362-1.07,1.235-1.745,2.207-1.745
			c0.164,0,0.279,0.017,0.411,0.049v1.367c-0.148-0.033-0.296-0.049-0.494-0.049c-1.021,0-1.745,0.774-1.942,1.86
			c-0.033,0.198-0.066,0.428-0.066,0.675v4.248h-1.432V151.462z"/>
		<path d="M274.687,151.133c0-0.823-0.017-1.498-0.066-2.157h1.284l0.083,1.317h0.032c0.396-0.757,1.317-1.499,2.635-1.499
			c1.103,0,2.815,0.659,2.815,3.392v4.758h-1.449v-4.594c0-1.284-0.478-2.354-1.844-2.354c-0.955,0-1.696,0.675-1.942,1.481
			c-0.066,0.181-0.1,0.428-0.1,0.675v4.791h-1.448V151.133z"/>
		<path d="M287.166,155.2c0.643,0.395,1.58,0.724,2.568,0.724c1.466,0,2.321-0.773,2.321-1.893c0-1.038-0.593-1.63-2.091-2.207
			c-1.811-0.642-2.931-1.581-2.931-3.145c0-1.729,1.433-3.013,3.589-3.013c1.137,0,1.96,0.263,2.454,0.543l-0.396,1.169
			c-0.362-0.197-1.104-0.527-2.107-0.527c-1.515,0-2.091,0.906-2.091,1.663c0,1.037,0.675,1.548,2.206,2.14
			c1.877,0.725,2.832,1.63,2.832,3.26c0,1.712-1.268,3.194-3.886,3.194c-1.07,0-2.239-0.312-2.832-0.708L287.166,155.2z"/>
		<path d="M295.432,151.578c0-1.021-0.033-1.844-0.066-2.602h1.301l0.066,1.367h0.032c0.593-0.972,1.531-1.548,2.832-1.548
			c1.927,0,3.375,1.63,3.375,4.05c0,2.865-1.745,4.281-3.622,4.281c-1.054,0-1.976-0.461-2.453-1.251h-0.033v4.33h-1.432V151.578z
			 M296.863,153.701c0,0.214,0.033,0.412,0.066,0.593c0.264,1.004,1.136,1.696,2.173,1.696c1.531,0,2.421-1.251,2.421-3.079
			c0-1.597-0.84-2.963-2.371-2.963c-0.988,0-1.91,0.708-2.189,1.794c-0.05,0.181-0.1,0.395-0.1,0.593V153.701z"/>
		<path d="M309.212,156.945l-0.115-1.004h-0.05c-0.444,0.625-1.3,1.186-2.437,1.186c-1.613,0-2.437-1.136-2.437-2.289
			c0-1.926,1.712-2.98,4.791-2.963v-0.165c0-0.658-0.181-1.844-1.811-1.844c-0.741,0-1.515,0.23-2.075,0.593l-0.329-0.955
			c0.659-0.428,1.613-0.708,2.618-0.708c2.437,0,3.029,1.663,3.029,3.26v2.98c0,0.691,0.033,1.366,0.132,1.91H309.212z
			 M308.998,152.878c-1.581-0.033-3.375,0.247-3.375,1.795c0,0.938,0.625,1.383,1.366,1.383c1.037,0,1.696-0.659,1.927-1.333
			c0.049-0.148,0.082-0.313,0.082-0.461V152.878z"/>
		<path d="M318.416,156.648c-0.379,0.198-1.218,0.461-2.288,0.461c-2.404,0-3.968-1.63-3.968-4.066c0-2.453,1.679-4.231,4.28-4.231
			c0.856,0,1.613,0.214,2.009,0.412l-0.329,1.12c-0.346-0.198-0.89-0.379-1.68-0.379c-1.827,0-2.815,1.35-2.815,3.013
			c0,1.844,1.186,2.98,2.767,2.98c0.822,0,1.366-0.214,1.777-0.395L318.416,156.648z"/>
		<path d="M320.82,153.224c0.033,1.959,1.284,2.766,2.732,2.766c1.038,0,1.663-0.181,2.207-0.412l0.247,1.038
			c-0.511,0.23-1.384,0.494-2.651,0.494c-2.453,0-3.918-1.613-3.918-4.017s1.416-4.297,3.737-4.297c2.602,0,3.293,2.289,3.293,3.754
			c0,0.296-0.033,0.527-0.05,0.675H320.82z M325.068,152.187c0.016-0.922-0.379-2.354-2.009-2.354c-1.466,0-2.107,1.35-2.223,2.354
			H325.068z"/>
	</g>
	<rect x="232" y="166" fill="none" stroke="#7AC943" stroke-width="6" stroke-miterlimit="10" width="194" height="44"/>
	<g>
		<g>
			<path fill="#3FA9F5" d="M213.755,276.113c6.485,13.687,12.82,32.423,13.988,46.863l10.447-23.027l22.758-11.013
				C246.482,288.127,227.595,282.26,213.755,276.113z"/>
		</g>
	</g>
	<g>
		<g>
			<path fill="#3FA9F5" d="M403.618,314.87c14.71-3.606,34.336-6.052,48.718-4.298l-20.463-14.856l-6.221-24.505
				C421.956,285.22,412.418,302.546,403.618,314.87z"/>
		</g>
	</g>
	<g>
		<rect x="1.844" y="374.271" fill="none" width="125.783" height="32.791"/>
		<path d="M3.188,386.955c0.819,0.504,2.016,0.924,3.275,0.924c1.869,0,2.96-0.986,2.96-2.414c0-1.322-0.756-2.078-2.667-2.813
			c-2.31-0.819-3.737-2.016-3.737-4.011c0-2.204,1.827-3.842,4.577-3.842c1.449,0,2.499,0.336,3.128,0.693l-0.504,1.49
			c-0.462-0.252-1.407-0.672-2.688-0.672c-1.932,0-2.667,1.154-2.667,2.121c0,1.322,0.861,1.973,2.813,2.729
			c2.394,0.924,3.611,2.079,3.611,4.158c0,2.184-1.617,4.072-4.955,4.072c-1.365,0-2.855-0.398-3.611-0.902L3.188,386.955z"/>
		<path d="M15.892,376.101v2.919h2.646v1.406h-2.646v5.48c0,1.26,0.357,1.973,1.386,1.973c0.483,0,0.84-0.062,1.071-0.125
			l0.084,1.385c-0.357,0.147-0.924,0.252-1.638,0.252c-0.861,0-1.554-0.272-1.995-0.776c-0.525-0.546-0.714-1.448-0.714-2.646
			v-5.543h-1.575v-1.406h1.575v-2.436L15.892,376.101z"/>
		<path d="M26.244,389.182l-0.147-1.281h-0.063c-0.567,0.798-1.659,1.512-3.107,1.512c-2.058,0-3.107-1.449-3.107-2.918
			c0-2.457,2.184-3.801,6.11-3.779v-0.211c0-0.84-0.231-2.352-2.31-2.352c-0.945,0-1.932,0.295-2.646,0.756l-0.42-1.217
			c0.84-0.547,2.058-0.903,3.338-0.903c3.107,0,3.863,2.12,3.863,4.157v3.801c0,0.881,0.042,1.742,0.168,2.436H26.244z
			 M25.971,383.995c-2.016-0.042-4.304,0.315-4.304,2.288c0,1.197,0.798,1.764,1.743,1.764c1.323,0,2.163-0.84,2.457-1.7
			c0.063-0.188,0.105-0.399,0.105-0.588V383.995z"/>
		<path d="M30.739,381.77c0-1.05-0.021-1.91-0.084-2.75h1.638l0.105,1.68h0.042c0.504-0.967,1.68-1.911,3.359-1.911
			c1.407,0,3.59,0.84,3.59,4.325v6.068h-1.848v-5.858c0-1.638-0.609-3.003-2.352-3.003c-1.218,0-2.163,0.861-2.478,1.891
			c-0.084,0.23-0.126,0.545-0.126,0.86v6.11h-1.848V381.77z"/>
		<path d="M51.17,374.273v12.283c0,0.902,0.021,1.932,0.084,2.625h-1.659l-0.084-1.764H49.47c-0.567,1.133-1.806,1.994-3.464,1.994
			c-2.457,0-4.346-2.078-4.346-5.165c-0.021-3.38,2.079-5.459,4.556-5.459c1.554,0,2.604,0.735,3.065,1.554h0.042v-6.068H51.17z
			 M49.323,383.155c0-0.231-0.021-0.546-0.084-0.776c-0.273-1.176-1.281-2.143-2.667-2.143c-1.911,0-3.044,1.68-3.044,3.927
			c0,2.058,1.008,3.759,3.002,3.759c1.239,0,2.373-0.819,2.708-2.205c0.063-0.252,0.084-0.504,0.084-0.798V383.155z"/>
		<path d="M59.865,389.182l-0.147-1.281h-0.063c-0.567,0.798-1.659,1.512-3.107,1.512c-2.058,0-3.107-1.449-3.107-2.918
			c0-2.457,2.184-3.801,6.11-3.779v-0.211c0-0.84-0.231-2.352-2.31-2.352c-0.945,0-1.932,0.295-2.646,0.756l-0.42-1.217
			c0.84-0.547,2.058-0.903,3.338-0.903c3.107,0,3.863,2.12,3.863,4.157v3.801c0,0.881,0.042,1.742,0.168,2.436H59.865z
			 M59.592,383.995c-2.016-0.042-4.304,0.315-4.304,2.288c0,1.197,0.798,1.764,1.743,1.764c1.323,0,2.163-0.84,2.457-1.7
			c0.063-0.188,0.105-0.399,0.105-0.588V383.995z"/>
		<path d="M64.36,382.189c0-1.197-0.021-2.226-0.084-3.17h1.617l0.063,1.994h0.084c0.462-1.365,1.575-2.226,2.813-2.226
			c0.21,0,0.357,0.021,0.525,0.063v1.742c-0.189-0.042-0.378-0.062-0.63-0.062c-1.302,0-2.226,0.986-2.478,2.372
			c-0.042,0.252-0.084,0.546-0.084,0.86v5.418H64.36V382.189z"/>
		<path d="M79.793,374.273v12.283c0,0.902,0.021,1.932,0.084,2.625h-1.659l-0.084-1.764h-0.042
			c-0.567,1.133-1.806,1.994-3.464,1.994c-2.457,0-4.346-2.078-4.346-5.165c-0.021-3.38,2.079-5.459,4.556-5.459
			c1.554,0,2.604,0.735,3.065,1.554h0.042v-6.068H79.793z M77.946,383.155c0-0.231-0.021-0.546-0.084-0.776
			c-0.273-1.176-1.281-2.143-2.667-2.143c-1.911,0-3.044,1.68-3.044,3.927c0,2.058,1.008,3.759,3.002,3.759
			c1.239,0,2.373-0.819,2.708-2.205c0.063-0.252,0.084-0.504,0.084-0.798V383.155z"/>
		<path d="M96.509,384.016c0,3.759-2.604,5.396-5.06,5.396c-2.75,0-4.871-2.016-4.871-5.229c0-3.4,2.226-5.396,5.039-5.396
			C94.535,378.788,96.509,380.908,96.509,384.016z M88.446,384.121c0,2.226,1.281,3.905,3.086,3.905
			c1.764,0,3.086-1.659,3.086-3.947c0-1.722-0.861-3.905-3.044-3.905S88.446,382.189,88.446,384.121z"/>
		<path d="M107.345,386.41c0,1.049,0.021,1.973,0.084,2.771h-1.638l-0.105-1.659h-0.042c-0.483,0.819-1.554,1.89-3.359,1.89
			c-1.596,0-3.506-0.882-3.506-4.451v-5.941h1.848v5.627c0,1.932,0.588,3.232,2.268,3.232c1.239,0,2.1-0.86,2.436-1.68
			c0.105-0.272,0.168-0.608,0.168-0.944v-6.235h1.848V386.41z"/>
		<path d="M112.638,376.101v2.919h2.646v1.406h-2.646v5.48c0,1.26,0.357,1.973,1.386,1.973c0.483,0,0.84-0.062,1.071-0.125
			l0.084,1.385c-0.357,0.147-0.924,0.252-1.638,0.252c-0.861,0-1.554-0.272-1.995-0.776c-0.525-0.546-0.714-1.448-0.714-2.646
			v-5.543h-1.575v-1.406h1.575v-2.436L112.638,376.101z"/>
	</g>
	<g>
		<g>
			<path fill="none" stroke="#FF931E" stroke-width="4" stroke-miterlimit="10" d="M333.637,334.604
				c0,25.136-70.671,45.854-162.293,48.986"/>
			<g>
				<path fill="#FF931E" d="M147.201,384c11.27-4.45,25.211-11.933,33.787-19.729l-6.484,19.162l7.274,18.873
					C172.886,394.871,158.646,387.974,147.201,384z"/>
			</g>
		</g>
	</g>
	<g>
		<g>
			<path fill="none" stroke="#FF931E" stroke-width="4" stroke-miterlimit="10" d="M32.5,28.5c0,11.36,11.18,21.209,27.588,26.14"/>
			<g>
				<path fill="#FF931E" d="M84,58c-11.874,2.413-26.907,7.345-36.714,13.524l9.732-17.735l-3.866-19.853
					C60.609,42.81,73.426,52.088,84,58z"/>
			</g>
		</g>
	</g>
	<g>
		<g>
			<path fill="none" stroke="#FF931E" stroke-width="4" stroke-miterlimit="10" d="M299.882,110.479
				c-13.885-26.97-51.077-46.249-94.838-46.249"/>
			<g>
				<path fill="#FF931E" d="M305.702,133.907c1.084-12.067,4.323-27.555,9.379-37.985l-16.549,11.634l-20.159-1.646
					C288.017,112.34,298.656,124.052,305.702,133.907z"/>
			</g>
		</g>
	</g>
	<g>
		<g>
			<path fill="#3FA9F5" d="M247.5,78.333c-13.754,6.34-32.557,12.475-47.009,13.491l22.916,10.691l10.771,22.873
				C235.14,110.932,241.207,92.107,247.5,78.333z"/>
		</g>
	</g>
	<g>
		<g>
			<path fill="none" stroke="#FF931E" stroke-width="4" stroke-miterlimit="10" d="M335.01,211.116
				c0,25.135-70.671,45.854-162.293,48.986"/>
			<g>
				<path fill="#FF931E" d="M148.574,260.512c11.27-4.45,25.21-11.933,33.787-19.729l-6.484,19.162l7.274,18.873
					C174.258,271.383,160.018,264.485,148.574,260.512z"/>
			</g>
		</g>
	</g>
	<g>
		<rect x="104.521" y="250.778" fill="none" width="51.369" height="24.952"/>
		<path fill="#FF1D25" d="M106.398,251.886c1.31-0.198,2.866-0.347,4.57-0.347c3.088,0,5.287,0.717,6.744,2.075
			c1.482,1.359,2.347,3.286,2.347,5.979c0,2.718-0.84,4.941-2.396,6.473c-1.557,1.557-4.125,2.396-7.362,2.396
			c-1.532,0-2.816-0.074-3.903-0.198V251.886z M108.547,266.609c0.543,0.099,1.334,0.123,2.174,0.123c4.595,0,7.09-2.569,7.09-7.065
			c0.025-3.928-2.198-6.423-6.744-6.423c-1.111,0-1.952,0.099-2.52,0.223V266.609z"/>
		<path fill="#FF1D25" d="M131.468,260.507h-6.472v6.003h7.213v1.804h-9.363v-16.65h8.992v1.804h-6.843v5.262h6.472V260.507z"/>
		<path fill="#FF1D25" d="M134.997,251.663h2.149v14.847h7.115v1.804h-9.264V251.663z"/>
	</g>
</g>
<g id="Layer_2">
	<g>
		<rect x="87" y="45.603" fill="none" width="108.197" height="94.572"/>
		<path d="M99.944,47.587h-0.028l-1.583,0.854l-0.238-0.938l1.989-1.064h1.051v9.105h-1.191V47.587z"/>
		<path d="M104.1,57.238c0.995-1.387,1.765-3.208,1.765-5.729c0-2.507-0.756-4.3-1.765-5.687h0.953
			c0.896,1.148,1.835,2.941,1.835,5.701c0,2.745-0.938,4.524-1.835,5.715H104.1z"/>
		<path d="M111.828,46.228c0.616-0.126,1.499-0.196,2.339-0.196c1.303,0,2.143,0.238,2.731,0.771
			c0.476,0.42,0.743,1.064,0.743,1.793c0,1.247-0.785,2.073-1.779,2.409v0.042c0.729,0.252,1.163,0.925,1.387,1.905
			c0.308,1.316,0.532,2.227,0.729,2.591h-1.261c-0.154-0.266-0.364-1.079-0.63-2.255c-0.28-1.303-0.784-1.793-1.891-1.835h-1.148
			v4.09h-1.219V46.228z M113.047,50.528h1.247c1.303,0,2.129-0.714,2.129-1.793c0-1.219-0.883-1.751-2.171-1.765
			c-0.588,0-1.008,0.056-1.205,0.112V50.528z"/>
		<path d="M120.061,52.377c0.028,1.667,1.093,2.353,2.325,2.353c0.882,0,1.415-0.154,1.877-0.35l0.21,0.882
			c-0.434,0.196-1.176,0.42-2.255,0.42c-2.087,0-3.334-1.373-3.334-3.418c0-2.045,1.205-3.656,3.18-3.656
			c2.213,0,2.802,1.947,2.802,3.193c0,0.252-0.028,0.448-0.042,0.575H120.061z M123.674,51.495c0.014-0.784-0.322-2.003-1.709-2.003
			c-1.247,0-1.793,1.148-1.891,2.003H123.674z"/>
		<path d="M130.142,55.543l-0.098-0.854h-0.042c-0.378,0.532-1.107,1.009-2.073,1.009c-1.373,0-2.073-0.967-2.073-1.947
			c0-1.639,1.457-2.535,4.076-2.521v-0.14c0-0.56-0.154-1.569-1.541-1.569c-0.63,0-1.289,0.196-1.765,0.504l-0.28-0.812
			c0.561-0.364,1.373-0.602,2.227-0.602c2.073,0,2.578,1.415,2.578,2.773v2.535c0,0.588,0.028,1.163,0.112,1.625H130.142z
			 M129.96,52.083c-1.345-0.028-2.872,0.21-2.872,1.527c0,0.798,0.532,1.177,1.163,1.177c0.882,0,1.442-0.561,1.639-1.135
			c0.042-0.126,0.07-0.266,0.07-0.392V52.083z"/>
		<path d="M138.991,45.598v8.194c0,0.603,0.014,1.289,0.056,1.751h-1.106l-0.056-1.177h-0.028c-0.378,0.756-1.205,1.331-2.312,1.331
			c-1.639,0-2.899-1.387-2.899-3.446c-0.014-2.255,1.387-3.642,3.04-3.642c1.037,0,1.737,0.49,2.045,1.037h0.028v-4.048H138.991z
			 M137.758,51.523c0-0.154-0.014-0.364-0.056-0.519c-0.182-0.784-0.854-1.429-1.779-1.429c-1.275,0-2.031,1.121-2.031,2.62
			c0,1.373,0.672,2.507,2.003,2.507c0.826,0,1.583-0.546,1.807-1.471c0.042-0.168,0.056-0.336,0.056-0.533V51.523z"/>
		<path d="M144,45.598h1.233v9.945H144V45.598z"/>
		<path d="M148.676,46.858c0.014,0.42-0.294,0.756-0.785,0.756c-0.434,0-0.742-0.336-0.742-0.756c0-0.435,0.322-0.771,0.77-0.771
			C148.382,46.088,148.676,46.424,148.676,46.858z M147.303,55.543v-6.78h1.233v6.78H147.303z"/>
		<path d="M150.579,50.598c0-0.7-0.014-1.274-0.056-1.835h1.093l0.07,1.121h0.028c0.336-0.644,1.121-1.274,2.241-1.274
			c0.938,0,2.395,0.56,2.395,2.885v4.048h-1.232v-3.908c0-1.092-0.406-2.003-1.569-2.003c-0.812,0-1.443,0.574-1.653,1.261
			c-0.056,0.154-0.084,0.364-0.084,0.574v4.076h-1.233V50.598z"/>
		<path d="M159.036,52.377c0.028,1.667,1.092,2.353,2.325,2.353c0.882,0,1.415-0.154,1.877-0.35l0.21,0.882
			c-0.434,0.196-1.176,0.42-2.255,0.42c-2.087,0-3.334-1.373-3.334-3.418c0-2.045,1.205-3.656,3.18-3.656
			c2.213,0,2.802,1.947,2.802,3.193c0,0.252-0.028,0.448-0.042,0.575H159.036z M162.649,51.495c0.014-0.784-0.322-2.003-1.709-2.003
			c-1.247,0-1.793,1.148-1.891,2.003H162.649z"/>
		<path d="M168.457,55.543v-5.841h-0.952v-0.938h0.952v-0.322c0-0.952,0.21-1.821,0.785-2.367c0.462-0.448,1.079-0.63,1.653-0.63
			c0.434,0,0.812,0.098,1.051,0.196l-0.168,0.953c-0.182-0.084-0.434-0.154-0.784-0.154c-1.051,0-1.317,0.924-1.317,1.961v0.364
			h1.639v0.938h-1.639v5.841H168.457z"/>
		<path d="M172.418,50.878c0-0.798-0.014-1.485-0.056-2.115h1.079l0.042,1.331h0.056c0.308-0.911,1.051-1.485,1.877-1.485
			c0.14,0,0.238,0.014,0.351,0.042v1.163c-0.126-0.028-0.252-0.042-0.42-0.042c-0.869,0-1.485,0.658-1.653,1.583
			c-0.028,0.168-0.056,0.364-0.056,0.575v3.614h-1.219V50.878z"/>
		<path d="M182.992,52.097c0,2.507-1.737,3.6-3.375,3.6c-1.835,0-3.25-1.345-3.25-3.488c0-2.269,1.485-3.6,3.362-3.6
			C181.675,48.609,182.992,50.024,182.992,52.097z M177.613,52.167c0,1.485,0.854,2.605,2.059,2.605
			c1.177,0,2.059-1.106,2.059-2.633c0-1.148-0.574-2.605-2.031-2.605C178.243,49.534,177.613,50.878,177.613,52.167z"/>
		<path d="M184.542,50.598c0-0.7-0.014-1.274-0.056-1.835h1.079l0.056,1.093h0.042c0.378-0.645,1.009-1.247,2.129-1.247
			c0.924,0,1.625,0.56,1.919,1.358h0.028c0.21-0.378,0.477-0.672,0.756-0.882c0.406-0.308,0.854-0.476,1.499-0.476
			c0.896,0,2.227,0.588,2.227,2.941v3.992h-1.205v-3.838c0-1.303-0.476-2.087-1.471-2.087c-0.7,0-1.247,0.519-1.457,1.121
			c-0.056,0.168-0.098,0.392-0.098,0.616v4.188h-1.205v-4.062c0-1.079-0.477-1.863-1.415-1.863c-0.771,0-1.331,0.616-1.527,1.233
			c-0.07,0.182-0.098,0.392-0.098,0.602v4.09h-1.205V50.598z"/>
		<path d="M118.184,71.082c0.364,0.238,1.008,0.49,1.625,0.49c0.896,0,1.316-0.448,1.316-1.008c0-0.588-0.35-0.911-1.261-1.247
			c-1.218-0.435-1.793-1.107-1.793-1.919c0-1.092,0.883-1.989,2.339-1.989c0.687,0,1.289,0.196,1.667,0.42l-0.308,0.896
			c-0.266-0.168-0.756-0.392-1.387-0.392c-0.729,0-1.135,0.42-1.135,0.924c0,0.561,0.406,0.812,1.289,1.149
			c1.177,0.448,1.779,1.037,1.779,2.045c0,1.191-0.925,2.031-2.536,2.031c-0.742,0-1.429-0.182-1.905-0.462L118.184,71.082z"/>
		<path d="M125.381,63.616v1.947h1.765v0.938h-1.765v3.656c0,0.84,0.238,1.316,0.924,1.316c0.322,0,0.561-0.042,0.714-0.084
			l0.056,0.925c-0.238,0.098-0.616,0.168-1.092,0.168c-0.575,0-1.037-0.182-1.331-0.519c-0.35-0.364-0.476-0.966-0.476-1.765v-3.698
			h-1.051v-0.938h1.051v-1.625L125.381,63.616z"/>
		<path d="M132.284,72.343l-0.098-0.854h-0.042c-0.378,0.532-1.107,1.009-2.073,1.009c-1.373,0-2.073-0.967-2.073-1.947
			c0-1.639,1.457-2.535,4.076-2.521v-0.14c0-0.56-0.154-1.569-1.541-1.569c-0.63,0-1.289,0.196-1.765,0.504l-0.28-0.812
			c0.561-0.364,1.373-0.602,2.227-0.602c2.073,0,2.578,1.415,2.578,2.773v2.535c0,0.588,0.028,1.163,0.112,1.625H132.284z
			 M132.102,68.883c-1.345-0.028-2.871,0.21-2.871,1.527c0,0.798,0.532,1.177,1.163,1.177c0.882,0,1.442-0.561,1.639-1.135
			c0.042-0.126,0.07-0.266,0.07-0.392V68.883z"/>
		<path d="M135.278,67.398c0-0.7-0.014-1.274-0.056-1.835h1.093l0.07,1.121h0.028c0.336-0.644,1.121-1.274,2.241-1.274
			c0.938,0,2.395,0.56,2.395,2.885v4.048h-1.232v-3.908c0-1.092-0.406-2.003-1.569-2.003c-0.812,0-1.443,0.574-1.653,1.261
			c-0.056,0.154-0.084,0.364-0.084,0.574v4.076h-1.233V67.398z"/>
		<path d="M148.903,62.397v8.194c0,0.603,0.014,1.289,0.056,1.751h-1.106l-0.056-1.177h-0.028c-0.378,0.756-1.205,1.331-2.312,1.331
			c-1.639,0-2.899-1.387-2.899-3.446c-0.014-2.255,1.387-3.642,3.04-3.642c1.037,0,1.737,0.49,2.045,1.037h0.028v-4.048H148.903z
			 M147.67,68.323c0-0.154-0.014-0.364-0.056-0.519c-0.182-0.784-0.854-1.429-1.779-1.429c-1.275,0-2.031,1.121-2.031,2.62
			c0,1.373,0.672,2.507,2.003,2.507c0.826,0,1.583-0.546,1.807-1.471c0.042-0.168,0.056-0.336,0.056-0.533V68.323z"/>
		<path d="M154.698,72.343l-0.098-0.854h-0.042c-0.378,0.532-1.107,1.009-2.073,1.009c-1.373,0-2.073-0.967-2.073-1.947
			c0-1.639,1.457-2.535,4.076-2.521v-0.14c0-0.56-0.154-1.569-1.541-1.569c-0.63,0-1.289,0.196-1.765,0.504l-0.28-0.812
			c0.561-0.364,1.373-0.602,2.227-0.602c2.073,0,2.578,1.415,2.578,2.773v2.535c0,0.588,0.028,1.163,0.112,1.625H154.698z
			 M154.516,68.883c-1.345-0.028-2.871,0.21-2.871,1.527c0,0.798,0.532,1.177,1.163,1.177c0.882,0,1.442-0.561,1.639-1.135
			c0.042-0.126,0.07-0.266,0.07-0.392V68.883z"/>
		<path d="M157.692,67.678c0-0.798-0.014-1.485-0.056-2.115h1.079l0.042,1.331h0.056c0.308-0.911,1.051-1.485,1.877-1.485
			c0.14,0,0.238,0.014,0.351,0.042v1.163c-0.126-0.028-0.252-0.042-0.42-0.042c-0.869,0-1.485,0.658-1.653,1.583
			c-0.028,0.168-0.056,0.364-0.056,0.575v3.614h-1.219V67.678z"/>
		<path d="M167.985,62.397v8.194c0,0.603,0.014,1.289,0.056,1.751h-1.106l-0.056-1.177h-0.028c-0.378,0.756-1.205,1.331-2.312,1.331
			c-1.639,0-2.899-1.387-2.899-3.446c-0.014-2.255,1.387-3.642,3.04-3.642c1.037,0,1.737,0.49,2.045,1.037h0.028v-4.048H167.985z
			 M166.752,68.323c0-0.154-0.014-0.364-0.056-0.519c-0.182-0.784-0.854-1.429-1.779-1.429c-1.275,0-2.031,1.121-2.031,2.62
			c0,1.373,0.672,2.507,2.003,2.507c0.826,0,1.583-0.546,1.807-1.471c0.042-0.168,0.056-0.336,0.056-0.533V68.323z"/>
		<path d="M174.367,63.658c0.014,0.42-0.294,0.756-0.785,0.756c-0.434,0-0.742-0.336-0.742-0.756c0-0.435,0.322-0.771,0.77-0.771
			C174.072,62.888,174.367,63.224,174.367,63.658z M172.994,72.343v-6.78h1.233v6.78H172.994z"/>
		<path d="M176.27,67.398c0-0.7-0.014-1.274-0.056-1.835h1.093l0.07,1.121h0.028c0.336-0.644,1.121-1.274,2.241-1.274
			c0.938,0,2.395,0.56,2.395,2.885v4.048h-1.232v-3.908c0-1.092-0.406-2.003-1.569-2.003c-0.812,0-1.443,0.574-1.653,1.261
			c-0.056,0.154-0.084,0.364-0.084,0.574v4.076h-1.233V67.398z"/>
		<path d="M185.469,63.616v1.947h1.765v0.938h-1.765v3.656c0,0.84,0.238,1.316,0.924,1.316c0.322,0,0.561-0.042,0.714-0.084
			l0.056,0.925c-0.238,0.098-0.616,0.168-1.092,0.168c-0.575,0-1.037-0.182-1.331-0.519c-0.35-0.364-0.476-0.966-0.476-1.765v-3.698
			h-1.051v-0.938h1.051v-1.625L185.469,63.616z"/>
		<path d="M194.669,68.897c0,2.507-1.737,3.6-3.375,3.6c-1.835,0-3.25-1.345-3.25-3.488c0-2.269,1.485-3.6,3.362-3.6
			C193.353,65.409,194.669,66.824,194.669,68.897z M189.29,68.967c0,1.485,0.854,2.605,2.059,2.605c1.177,0,2.059-1.106,2.059-2.633
			c0-1.148-0.574-2.605-2.031-2.605C189.92,66.333,189.29,67.678,189.29,68.967z"/>
		<path d="M116.533,84.577c0-0.869-0.028-1.569-0.056-2.213h1.107l0.056,1.163h0.028c0.504-0.826,1.303-1.316,2.409-1.316
			c1.639,0,2.872,1.387,2.872,3.446c0,2.437-1.485,3.642-3.082,3.642c-0.896,0-1.681-0.393-2.087-1.065h-0.028v3.684h-1.219V84.577z
			 M117.751,86.384c0,0.182,0.028,0.35,0.056,0.504c0.224,0.854,0.966,1.443,1.849,1.443c1.303,0,2.06-1.064,2.06-2.619
			c0-1.359-0.715-2.521-2.017-2.521c-0.841,0-1.625,0.602-1.863,1.527c-0.042,0.154-0.084,0.336-0.084,0.504V86.384z"/>
		<path d="M128.252,89.143l-0.098-0.854h-0.042c-0.378,0.532-1.107,1.009-2.073,1.009c-1.373,0-2.073-0.967-2.073-1.947
			c0-1.639,1.457-2.535,4.076-2.521v-0.14c0-0.56-0.154-1.569-1.541-1.569c-0.63,0-1.289,0.196-1.765,0.504l-0.28-0.812
			c0.561-0.364,1.373-0.602,2.227-0.602c2.073,0,2.578,1.415,2.578,2.773v2.535c0,0.588,0.028,1.163,0.112,1.625H128.252z
			 M128.07,85.683c-1.345-0.028-2.871,0.21-2.871,1.527c0,0.798,0.532,1.177,1.163,1.177c0.882,0,1.442-0.561,1.639-1.135
			c0.042-0.126,0.07-0.266,0.07-0.392V85.683z"/>
		<path d="M132.675,80.417v1.947h1.765v0.938h-1.765v3.656c0,0.84,0.238,1.316,0.924,1.316c0.322,0,0.561-0.042,0.715-0.084
			l0.056,0.925c-0.238,0.098-0.616,0.168-1.092,0.168c-0.575,0-1.037-0.182-1.331-0.519c-0.35-0.364-0.476-0.966-0.476-1.765v-3.698
			h-1.051v-0.938h1.051v-1.625L132.675,80.417z"/>
		<path d="M137.309,80.417v1.947h1.765v0.938h-1.765v3.656c0,0.84,0.238,1.316,0.924,1.316c0.322,0,0.561-0.042,0.715-0.084
			l0.056,0.925c-0.238,0.098-0.616,0.168-1.092,0.168c-0.575,0-1.037-0.182-1.331-0.519c-0.35-0.364-0.476-0.966-0.476-1.765v-3.698
			h-1.051v-0.938h1.051v-1.625L137.309,80.417z"/>
		<path d="M141.061,85.978c0.028,1.667,1.093,2.353,2.325,2.353c0.882,0,1.415-0.154,1.877-0.35l0.21,0.882
			c-0.434,0.196-1.176,0.42-2.255,0.42c-2.087,0-3.334-1.373-3.334-3.418s1.205-3.656,3.18-3.656c2.213,0,2.802,1.947,2.802,3.193
			c0,0.252-0.028,0.448-0.042,0.575H141.061z M144.674,85.095c0.014-0.784-0.322-2.003-1.709-2.003
			c-1.247,0-1.793,1.148-1.891,2.003H144.674z"/>
		<path d="M147.388,84.479c0-0.798-0.014-1.485-0.056-2.115h1.079l0.042,1.331h0.056c0.308-0.911,1.051-1.485,1.877-1.485
			c0.14,0,0.238,0.014,0.35,0.042v1.163c-0.126-0.028-0.252-0.042-0.42-0.042c-0.869,0-1.485,0.658-1.653,1.583
			c-0.028,0.168-0.056,0.364-0.056,0.575v3.614h-1.219V84.479z"/>
		<path d="M152.022,84.198c0-0.7-0.014-1.274-0.056-1.835h1.093l0.07,1.121h0.028c0.336-0.644,1.121-1.274,2.241-1.274
			c0.938,0,2.395,0.56,2.395,2.885v4.048h-1.232v-3.908c0-1.092-0.406-2.003-1.569-2.003c-0.812,0-1.443,0.574-1.653,1.261
			c-0.056,0.154-0.084,0.364-0.084,0.574v4.076h-1.233V84.198z"/>
		<path d="M162.592,87.882c0.364,0.238,1.008,0.49,1.625,0.49c0.896,0,1.316-0.448,1.316-1.008c0-0.588-0.35-0.911-1.261-1.247
			c-1.218-0.434-1.793-1.106-1.793-1.919c0-1.092,0.883-1.989,2.339-1.989c0.687,0,1.289,0.196,1.667,0.42l-0.308,0.896
			c-0.266-0.168-0.756-0.392-1.387-0.392c-0.729,0-1.135,0.42-1.135,0.924c0,0.561,0.406,0.812,1.289,1.149
			c1.177,0.448,1.779,1.037,1.779,2.045c0,1.191-0.925,2.031-2.536,2.031c-0.742,0-1.429-0.182-1.905-0.462L162.592,87.882z"/>
		<path d="M168.304,84.577c0-0.869-0.028-1.569-0.056-2.213h1.107l0.056,1.163h0.028c0.504-0.826,1.303-1.316,2.409-1.316
			c1.639,0,2.872,1.387,2.872,3.446c0,2.437-1.485,3.642-3.082,3.642c-0.896,0-1.681-0.393-2.087-1.065h-0.028v3.684h-1.219V84.577z
			 M169.522,86.384c0,0.182,0.028,0.35,0.056,0.504c0.224,0.854,0.966,1.443,1.849,1.443c1.302,0,2.059-1.064,2.059-2.619
			c0-1.359-0.714-2.521-2.017-2.521c-0.841,0-1.625,0.602-1.863,1.527c-0.042,0.154-0.084,0.336-0.084,0.504V86.384z"/>
		<path d="M180.023,89.143l-0.098-0.854h-0.042c-0.378,0.532-1.107,1.009-2.073,1.009c-1.373,0-2.073-0.967-2.073-1.947
			c0-1.639,1.457-2.535,4.076-2.521v-0.14c0-0.56-0.154-1.569-1.541-1.569c-0.63,0-1.289,0.196-1.765,0.504l-0.28-0.812
			c0.561-0.364,1.373-0.602,2.227-0.602c2.073,0,2.578,1.415,2.578,2.773v2.535c0,0.588,0.028,1.163,0.112,1.625H180.023z
			 M179.842,85.683c-1.345-0.028-2.872,0.21-2.872,1.527c0,0.798,0.532,1.177,1.163,1.177c0.882,0,1.442-0.561,1.639-1.135
			c0.042-0.126,0.07-0.266,0.07-0.392V85.683z"/>
		<path d="M187.85,88.891c-0.322,0.168-1.037,0.392-1.947,0.392c-2.045,0-3.376-1.387-3.376-3.46c0-2.087,1.429-3.6,3.642-3.6
			c0.729,0,1.373,0.182,1.709,0.351l-0.28,0.952c-0.294-0.168-0.756-0.322-1.429-0.322c-1.555,0-2.396,1.148-2.396,2.563
			c0,1.569,1.009,2.536,2.354,2.536c0.7,0,1.163-0.182,1.513-0.336L187.85,88.891z"/>
		<path d="M189.892,85.978c0.028,1.667,1.092,2.353,2.325,2.353c0.882,0,1.415-0.154,1.877-0.35l0.21,0.882
			c-0.434,0.196-1.176,0.42-2.255,0.42c-2.087,0-3.334-1.373-3.334-3.418s1.205-3.656,3.18-3.656c2.213,0,2.802,1.947,2.802,3.193
			c0,0.252-0.028,0.448-0.042,0.575H189.892z M193.506,85.095c0.014-0.784-0.322-2.003-1.709-2.003
			c-1.247,0-1.793,1.148-1.891,2.003H193.506z"/>
	</g>
	<g>
		<rect x="452.274" y="45.278" fill="none" width="105.992" height="73.667"/>
		<path d="M452.904,55.218v-0.756l0.967-0.938c2.325-2.213,3.376-3.39,3.391-4.763c0-0.924-0.449-1.779-1.808-1.779
			c-0.826,0-1.513,0.42-1.933,0.771l-0.393-0.869c0.631-0.532,1.527-0.924,2.577-0.924c1.962,0,2.788,1.345,2.788,2.647
			c0,1.681-1.219,3.04-3.139,4.888l-0.728,0.672v0.028h4.09v1.022H452.904z"/>
		<path d="M459.736,56.913c0.994-1.387,1.765-3.208,1.765-5.729c0-2.507-0.757-4.3-1.765-5.687h0.952
			c0.896,1.148,1.835,2.941,1.835,5.701c0,2.745-0.938,4.524-1.835,5.715H459.736z"/>
		<path d="M472.354,50.792h-3.67v3.404h4.09v1.022h-5.309v-9.441h5.099V46.8h-3.88v2.983h3.67V50.792z"/>
		<path d="M474.885,48.438l0.967,1.457c0.252,0.378,0.462,0.728,0.686,1.106h0.043c0.224-0.406,0.447-0.756,0.672-1.121l0.952-1.443
			h1.331l-2.312,3.278l2.382,3.502h-1.401l-0.994-1.527c-0.267-0.392-0.491-0.771-0.729-1.177h-0.028
			c-0.225,0.406-0.462,0.771-0.715,1.177l-0.98,1.527h-1.358l2.409-3.46l-2.297-3.32H474.885z"/>
		<path d="M481.269,52.053c0.028,1.667,1.093,2.353,2.325,2.353c0.883,0,1.414-0.154,1.877-0.35l0.21,0.882
			c-0.435,0.196-1.177,0.42-2.255,0.42c-2.088,0-3.334-1.373-3.334-3.418c0-2.045,1.205-3.656,3.18-3.656
			c2.213,0,2.802,1.947,2.802,3.193c0,0.252-0.028,0.448-0.042,0.575H481.269z M484.883,51.17c0.014-0.784-0.322-2.003-1.709-2.003
			c-1.247,0-1.793,1.148-1.891,2.003H484.883z"/>
		<path d="M492.428,54.966c-0.321,0.168-1.036,0.392-1.946,0.392c-2.046,0-3.376-1.387-3.376-3.46c0-2.087,1.429-3.6,3.643-3.6
			c0.729,0,1.372,0.182,1.709,0.351l-0.281,0.952c-0.293-0.168-0.756-0.322-1.428-0.322c-1.555,0-2.396,1.149-2.396,2.563
			c0,1.569,1.01,2.536,2.354,2.536c0.701,0,1.163-0.182,1.514-0.336L492.428,54.966z"/>
		<path d="M499.541,53.369c0,0.701,0.014,1.317,0.056,1.849h-1.093l-0.07-1.106h-0.027c-0.322,0.546-1.037,1.261-2.241,1.261
			c-1.064,0-2.339-0.588-2.339-2.97v-3.964h1.232v3.754c0,1.289,0.393,2.157,1.513,2.157c0.826,0,1.401-0.574,1.625-1.121
			c0.069-0.182,0.112-0.406,0.112-0.63v-4.16h1.232V53.369z"/>
		<path d="M503.066,46.492v1.947h1.766v0.938h-1.766v3.656c0,0.84,0.238,1.316,0.924,1.316c0.322,0,0.561-0.042,0.715-0.084
			l0.057,0.925c-0.238,0.098-0.617,0.168-1.093,0.168c-0.575,0-1.036-0.182-1.331-0.519c-0.35-0.364-0.477-0.966-0.477-1.765v-3.698
			h-1.051v-0.938h1.051v-1.625L503.066,46.492z"/>
		<path d="M506.818,52.053c0.027,1.667,1.092,2.353,2.324,2.353c0.883,0,1.415-0.154,1.877-0.35l0.211,0.882
			c-0.435,0.196-1.177,0.42-2.256,0.42c-2.087,0-3.334-1.373-3.334-3.418c0-2.045,1.205-3.656,3.18-3.656
			c2.214,0,2.803,1.947,2.803,3.193c0,0.252-0.029,0.448-0.043,0.575H506.818z M510.432,51.17c0.014-0.784-0.322-2.003-1.709-2.003
			c-1.246,0-1.793,1.148-1.891,2.003H510.432z"/>
		<path d="M515.945,53.958c0.363,0.238,1.008,0.49,1.625,0.49c0.896,0,1.316-0.448,1.316-1.008c0-0.588-0.351-0.911-1.262-1.247
			c-1.218-0.435-1.793-1.107-1.793-1.919c0-1.092,0.883-1.989,2.34-1.989c0.687,0,1.289,0.196,1.667,0.42l-0.308,0.896
			c-0.267-0.168-0.757-0.392-1.387-0.392c-0.729,0-1.135,0.42-1.135,0.924c0,0.561,0.406,0.812,1.288,1.149
			c1.177,0.448,1.779,1.037,1.779,2.045c0,1.191-0.925,2.031-2.536,2.031c-0.742,0-1.428-0.182-1.904-0.462L515.945,53.958z"/>
		<path d="M522.344,52.053c0.027,1.667,1.092,2.353,2.324,2.353c0.883,0,1.415-0.154,1.877-0.35l0.211,0.882
			c-0.435,0.196-1.177,0.42-2.256,0.42c-2.087,0-3.334-1.373-3.334-3.418c0-2.045,1.205-3.656,3.18-3.656
			c2.214,0,2.803,1.947,2.803,3.193c0,0.252-0.029,0.448-0.043,0.575H522.344z M525.957,51.17c0.014-0.784-0.322-2.003-1.709-2.003
			c-1.246,0-1.793,1.148-1.891,2.003H525.957z"/>
		<path d="M534.525,45.273v8.194c0,0.603,0.014,1.289,0.057,1.751h-1.107l-0.056-1.177h-0.028c-0.378,0.756-1.204,1.331-2.311,1.331
			c-1.639,0-2.9-1.387-2.9-3.446c-0.014-2.255,1.387-3.642,3.04-3.642c1.036,0,1.737,0.49,2.046,1.037h0.027v-4.048H534.525z
			 M533.293,51.198c0-0.154-0.014-0.364-0.057-0.519c-0.182-0.784-0.854-1.429-1.778-1.429c-1.274,0-2.031,1.121-2.031,2.62
			c0,1.373,0.673,2.507,2.003,2.507c0.826,0,1.583-0.546,1.807-1.471c0.043-0.168,0.057-0.336,0.057-0.533V51.198z"/>
		<path d="M458.129,71.766c-0.321,0.168-1.036,0.392-1.946,0.392c-2.046,0-3.376-1.387-3.376-3.46c0-2.087,1.429-3.6,3.643-3.6
			c0.729,0,1.372,0.182,1.709,0.351l-0.281,0.952c-0.293-0.168-0.756-0.322-1.428-0.322c-1.555,0-2.396,1.149-2.396,2.563
			c0,1.569,1.01,2.536,2.354,2.536c0.701,0,1.163-0.182,1.514-0.336L458.129,71.766z"/>
		<path d="M465.62,68.572c0,2.507-1.737,3.6-3.376,3.6c-1.834,0-3.25-1.345-3.25-3.488c0-2.269,1.485-3.6,3.362-3.6
			C464.304,65.084,465.62,66.499,465.62,68.572z M460.241,68.642c0,1.485,0.854,2.605,2.06,2.605c1.176,0,2.059-1.106,2.059-2.633
			c0-1.148-0.574-2.605-2.031-2.605S460.241,67.354,460.241,68.642z"/>
		<path d="M467.171,67.073c0-0.7-0.014-1.274-0.056-1.835h1.078l0.057,1.093h0.041c0.379-0.645,1.01-1.247,2.13-1.247
			c0.925,0,1.624,0.56,1.919,1.358h0.027c0.211-0.378,0.477-0.672,0.757-0.882c0.406-0.308,0.854-0.476,1.499-0.476
			c0.896,0,2.227,0.588,2.227,2.941v3.992h-1.204V68.18c0-1.303-0.476-2.087-1.471-2.087c-0.7,0-1.247,0.519-1.457,1.121
			c-0.056,0.168-0.098,0.392-0.098,0.616v4.188h-1.205v-4.062c0-1.079-0.476-1.863-1.415-1.863c-0.77,0-1.33,0.616-1.526,1.233
			c-0.069,0.182-0.099,0.392-0.099,0.602v4.09h-1.204V67.073z"/>
		<path d="M478.847,67.073c0-0.7-0.014-1.274-0.056-1.835h1.078l0.057,1.093h0.041c0.379-0.645,1.01-1.247,2.13-1.247
			c0.925,0,1.624,0.56,1.919,1.358h0.027c0.211-0.378,0.477-0.672,0.757-0.882c0.406-0.308,0.854-0.476,1.499-0.476
			c0.896,0,2.227,0.588,2.227,2.941v3.992h-1.204V68.18c0-1.303-0.476-2.087-1.471-2.087c-0.7,0-1.247,0.519-1.457,1.121
			c-0.056,0.168-0.098,0.392-0.098,0.616v4.188h-1.205v-4.062c0-1.079-0.476-1.863-1.415-1.863c-0.77,0-1.33,0.616-1.526,1.233
			c-0.069,0.182-0.099,0.392-0.099,0.602v4.09h-1.204V67.073z"/>
		<path d="M494.276,72.018l-0.098-0.854h-0.042c-0.379,0.532-1.107,1.009-2.073,1.009c-1.373,0-2.073-0.967-2.073-1.947
			c0-1.639,1.457-2.535,4.076-2.521v-0.14c0-0.56-0.154-1.569-1.541-1.569c-0.63,0-1.289,0.196-1.765,0.504l-0.28-0.812
			c0.561-0.364,1.373-0.602,2.227-0.602c2.074,0,2.578,1.415,2.578,2.773v2.535c0,0.588,0.027,1.163,0.111,1.625H494.276z
			 M494.095,68.558c-1.345-0.028-2.872,0.21-2.872,1.527c0,0.798,0.533,1.177,1.163,1.177c0.882,0,1.442-0.561,1.639-1.135
			c0.042-0.126,0.07-0.266,0.07-0.392V68.558z"/>
		<path d="M497.271,67.073c0-0.7-0.014-1.274-0.056-1.835h1.092l0.07,1.121h0.028c0.336-0.644,1.12-1.274,2.241-1.274
			c0.938,0,2.395,0.56,2.395,2.885v4.048h-1.232V68.11c0-1.092-0.406-2.003-1.568-2.003c-0.812,0-1.443,0.574-1.652,1.261
			c-0.057,0.154-0.084,0.364-0.084,0.574v4.076h-1.233V67.073z"/>
		<path d="M510.896,62.073v8.194c0,0.603,0.014,1.289,0.055,1.751h-1.105l-0.057-1.177h-0.027c-0.379,0.756-1.205,1.331-2.312,1.331
			c-1.639,0-2.898-1.387-2.898-3.446c-0.015-2.255,1.387-3.642,3.039-3.642c1.037,0,1.737,0.49,2.045,1.037h0.028v-4.048H510.896z
			 M509.663,67.998c0-0.154-0.015-0.364-0.056-0.519c-0.183-0.784-0.855-1.429-1.779-1.429c-1.275,0-2.031,1.121-2.031,2.62
			c0,1.373,0.672,2.507,2.004,2.507c0.826,0,1.582-0.546,1.807-1.471c0.041-0.168,0.056-0.336,0.056-0.533V67.998z"/>
		<path d="M522.039,68.572c0,2.507-1.736,3.6-3.375,3.6c-1.835,0-3.25-1.345-3.25-3.488c0-2.269,1.484-3.6,3.361-3.6
			C520.723,65.084,522.039,66.499,522.039,68.572z M516.66,68.642c0,1.485,0.855,2.605,2.06,2.605c1.177,0,2.06-1.106,2.06-2.633
			c0-1.148-0.574-2.605-2.031-2.605S516.66,67.354,516.66,68.642z"/>
		<path d="M523.59,67.073c0-0.7-0.014-1.274-0.056-1.835h1.093l0.07,1.121h0.027c0.336-0.644,1.121-1.274,2.242-1.274
			c0.938,0,2.395,0.56,2.395,2.885v4.048h-1.232V68.11c0-1.092-0.406-2.003-1.568-2.003c-0.812,0-1.443,0.574-1.653,1.261
			c-0.056,0.154-0.084,0.364-0.084,0.574v4.076h-1.233V67.073z"/>
		<path d="M453.297,84.252c0-0.869-0.027-1.569-0.057-2.213h1.107l0.056,1.163h0.028c0.504-0.826,1.303-1.316,2.409-1.316
			c1.64,0,2.872,1.387,2.872,3.446c0,2.437-1.485,3.642-3.082,3.642c-0.896,0-1.682-0.393-2.088-1.065h-0.027v3.684h-1.219V84.252z
			 M454.516,86.059c0,0.182,0.027,0.35,0.057,0.504c0.224,0.854,0.966,1.443,1.849,1.443c1.302,0,2.06-1.064,2.06-2.619
			c0-1.359-0.715-2.521-2.018-2.521c-0.841,0-1.625,0.602-1.863,1.527c-0.042,0.154-0.084,0.336-0.084,0.504V86.059z"/>
		<path d="M465.017,88.818l-0.098-0.854h-0.042c-0.379,0.532-1.107,1.009-2.073,1.009c-1.373,0-2.073-0.967-2.073-1.947
			c0-1.639,1.457-2.535,4.076-2.521v-0.14c0-0.56-0.154-1.569-1.541-1.569c-0.63,0-1.289,0.196-1.765,0.504l-0.28-0.812
			c0.561-0.364,1.373-0.602,2.227-0.602c2.074,0,2.578,1.415,2.578,2.773v2.535c0,0.588,0.027,1.163,0.111,1.625H465.017z
			 M464.835,85.358c-1.345-0.028-2.872,0.21-2.872,1.527c0,0.798,0.533,1.177,1.163,1.177c0.882,0,1.442-0.561,1.639-1.135
			c0.042-0.126,0.07-0.266,0.07-0.392V85.358z"/>
		<path d="M469.439,80.092v1.947h1.766v0.938h-1.766v3.656c0,0.84,0.238,1.316,0.924,1.316c0.322,0,0.561-0.042,0.715-0.084
			l0.057,0.925c-0.238,0.098-0.617,0.168-1.093,0.168c-0.575,0-1.036-0.182-1.331-0.519c-0.35-0.364-0.477-0.966-0.477-1.765v-3.698
			h-1.051v-0.938h1.051v-1.625L469.439,80.092z"/>
		<path d="M474.073,80.092v1.947h1.765v0.938h-1.765v3.656c0,0.84,0.238,1.316,0.925,1.316c0.322,0,0.561-0.042,0.714-0.084
			l0.056,0.925c-0.237,0.098-0.615,0.168-1.092,0.168c-0.574,0-1.037-0.182-1.331-0.519c-0.351-0.364-0.476-0.966-0.476-1.765
			v-3.698h-1.051v-0.938h1.051v-1.625L474.073,80.092z"/>
		<path d="M477.824,85.653c0.028,1.667,1.093,2.353,2.326,2.353c0.882,0,1.414-0.154,1.877-0.35l0.209,0.882
			c-0.434,0.196-1.176,0.42-2.254,0.42c-2.088,0-3.334-1.373-3.334-3.418s1.204-3.656,3.18-3.656c2.213,0,2.801,1.947,2.801,3.193
			c0,0.252-0.027,0.448-0.041,0.575H477.824z M481.438,84.77c0.015-0.784-0.322-2.003-1.709-2.003c-1.247,0-1.793,1.148-1.891,2.003
			H481.438z"/>
		<path d="M484.152,84.154c0-0.798-0.015-1.485-0.057-2.115h1.078l0.043,1.331h0.056c0.308-0.911,1.051-1.485,1.877-1.485
			c0.14,0,0.238,0.014,0.351,0.042v1.163c-0.127-0.028-0.252-0.042-0.42-0.042c-0.869,0-1.485,0.658-1.653,1.583
			c-0.028,0.168-0.056,0.364-0.056,0.575v3.614h-1.219V84.154z"/>
		<path d="M488.786,83.874c0-0.7-0.014-1.274-0.056-1.835h1.092l0.07,1.121h0.028c0.336-0.644,1.12-1.274,2.241-1.274
			c0.938,0,2.395,0.56,2.395,2.885v4.048h-1.232V84.91c0-1.092-0.406-2.003-1.568-2.003c-0.812,0-1.443,0.574-1.652,1.261
			c-0.057,0.154-0.084,0.364-0.084,0.574v4.076h-1.233V83.874z"/>
		<path d="M499.355,87.558c0.365,0.238,1.009,0.49,1.625,0.49c0.896,0,1.316-0.448,1.316-1.008c0-0.588-0.35-0.911-1.26-1.247
			c-1.219-0.434-1.793-1.106-1.793-1.919c0-1.092,0.883-1.989,2.339-1.989c0.687,0,1.289,0.196,1.667,0.42l-0.309,0.896
			c-0.266-0.168-0.756-0.392-1.387-0.392c-0.729,0-1.135,0.42-1.135,0.924c0,0.561,0.406,0.812,1.289,1.149
			c1.177,0.448,1.779,1.037,1.779,2.045c0,1.191-0.925,2.031-2.535,2.031c-0.742,0-1.43-0.182-1.905-0.462L499.355,87.558z"/>
		<path d="M505.068,84.252c0-0.869-0.028-1.569-0.057-2.213h1.107l0.056,1.163h0.028c0.504-0.826,1.303-1.316,2.408-1.316
			c1.64,0,2.872,1.387,2.872,3.446c0,2.437-1.485,3.642-3.081,3.642c-0.896,0-1.682-0.393-2.088-1.065h-0.027v3.684h-1.219V84.252z
			 M506.287,86.059c0,0.182,0.027,0.35,0.056,0.504c0.224,0.854,0.966,1.443,1.849,1.443c1.303,0,2.06-1.064,2.06-2.619
			c0-1.359-0.715-2.521-2.017-2.521c-0.842,0-1.625,0.602-1.863,1.527c-0.043,0.154-0.084,0.336-0.084,0.504V86.059z"/>
		<path d="M516.787,88.818l-0.098-0.854h-0.041c-0.379,0.532-1.107,1.009-2.074,1.009c-1.373,0-2.072-0.967-2.072-1.947
			c0-1.639,1.457-2.535,4.076-2.521v-0.14c0-0.56-0.154-1.569-1.541-1.569c-0.631,0-1.289,0.196-1.766,0.504l-0.279-0.812
			c0.561-0.364,1.372-0.602,2.227-0.602c2.073,0,2.578,1.415,2.578,2.773v2.535c0,0.588,0.027,1.163,0.111,1.625H516.787z
			 M516.605,85.358c-1.345-0.028-2.871,0.21-2.871,1.527c0,0.798,0.532,1.177,1.162,1.177c0.883,0,1.443-0.561,1.639-1.135
			c0.043-0.126,0.07-0.266,0.07-0.392V85.358z"/>
		<path d="M524.614,88.566c-0.321,0.168-1.036,0.392-1.946,0.392c-2.046,0-3.377-1.387-3.377-3.46c0-2.087,1.43-3.6,3.643-3.6
			c0.729,0,1.373,0.182,1.709,0.351l-0.28,0.952c-0.294-0.168-0.757-0.322-1.429-0.322c-1.555,0-2.396,1.148-2.396,2.563
			c0,1.569,1.009,2.536,2.354,2.536c0.7,0,1.163-0.182,1.513-0.336L524.614,88.566z"/>
		<path d="M526.656,85.653c0.027,1.667,1.093,2.353,2.325,2.353c0.882,0,1.415-0.154,1.877-0.35l0.21,0.882
			c-0.434,0.196-1.176,0.42-2.255,0.42c-2.087,0-3.334-1.373-3.334-3.418s1.204-3.656,3.18-3.656c2.214,0,2.802,1.947,2.802,3.193
			c0,0.252-0.028,0.448-0.042,0.575H526.656z M530.27,84.77c0.015-0.784-0.322-2.003-1.709-2.003c-1.246,0-1.793,1.148-1.891,2.003
			H530.27z"/>
	</g>
	<g>
		<rect x="453.274" y="290.605" fill="none" width="118.818" height="49.572"/>
		<path d="M454.199,299.131c0.35,0.225,1.162,0.574,2.017,0.574c1.583,0,2.073-1.009,2.06-1.766c-0.014-1.273-1.163-1.82-2.354-1.82
			h-0.687v-0.925h0.687c0.896,0,2.031-0.462,2.031-1.54c0-0.729-0.463-1.373-1.598-1.373c-0.729,0-1.428,0.322-1.82,0.602
			l-0.322-0.896c0.477-0.35,1.4-0.699,2.381-0.699c1.793,0,2.605,1.064,2.605,2.17c0,0.939-0.561,1.737-1.681,2.144v0.028
			c1.12,0.225,2.031,1.064,2.031,2.339c0,1.457-1.135,2.731-3.319,2.731c-1.023,0-1.92-0.322-2.367-0.616L454.199,299.131z"/>
		<path d="M460.736,302.24c0.994-1.387,1.765-3.207,1.765-5.729c0-2.508-0.757-4.301-1.765-5.688h0.953
			c0.896,1.148,1.834,2.941,1.834,5.701c0,2.745-0.938,4.524-1.834,5.715H460.736z"/>
		<path d="M476.533,295.727c0,3.25-1.976,4.973-4.385,4.973c-2.493,0-4.244-1.933-4.244-4.791c0-2.997,1.863-4.958,4.385-4.958
			C474.865,290.95,476.533,292.926,476.533,295.727z M469.207,295.881c0,2.018,1.092,3.824,3.012,3.824
			c1.933,0,3.025-1.779,3.025-3.922c0-1.877-0.98-3.838-3.012-3.838C470.215,291.945,469.207,293.808,469.207,295.881z"/>
		<path d="M483.783,298.696c0,0.7,0.014,1.317,0.057,1.849h-1.093l-0.07-1.105h-0.028c-0.322,0.546-1.036,1.26-2.24,1.26
			c-1.064,0-2.34-0.588-2.34-2.969v-3.965h1.232v3.754c0,1.289,0.393,2.157,1.514,2.157c0.826,0,1.4-0.574,1.625-1.12
			c0.069-0.183,0.111-0.406,0.111-0.631v-4.16h1.232V298.696z"/>
		<path d="M487.309,291.818v1.947h1.766v0.938h-1.766v3.656c0,0.841,0.238,1.316,0.925,1.316c0.322,0,0.561-0.042,0.714-0.084
			l0.057,0.925c-0.238,0.098-0.616,0.168-1.092,0.168c-0.575,0-1.037-0.182-1.332-0.519c-0.35-0.364-0.476-0.966-0.476-1.765v-3.698
			h-1.051v-0.938h1.051v-1.625L487.309,291.818z"/>
		<path d="M490.458,295.979c0-0.868-0.028-1.568-0.056-2.213h1.106l0.056,1.162h0.028c0.505-0.826,1.303-1.316,2.409-1.316
			c1.639,0,2.871,1.387,2.871,3.446c0,2.437-1.484,3.642-3.081,3.642c-0.896,0-1.681-0.393-2.087-1.064h-0.028v3.684h-1.219V295.979
			z M491.677,297.786c0,0.182,0.028,0.351,0.056,0.504c0.225,0.854,0.967,1.442,1.85,1.442c1.303,0,2.059-1.064,2.059-2.619
			c0-1.358-0.715-2.521-2.017-2.521c-0.841,0-1.625,0.603-1.863,1.527c-0.042,0.154-0.084,0.336-0.084,0.504V297.786z"/>
		<path d="M504.098,298.696c0,0.7,0.014,1.317,0.055,1.849h-1.092l-0.07-1.105h-0.027c-0.322,0.546-1.037,1.26-2.242,1.26
			c-1.064,0-2.339-0.588-2.339-2.969v-3.965h1.233v3.754c0,1.289,0.392,2.157,1.512,2.157c0.826,0,1.401-0.574,1.625-1.12
			c0.07-0.183,0.112-0.406,0.112-0.631v-4.16h1.233V298.696z"/>
		<path d="M507.623,291.818v1.947h1.765v0.938h-1.765v3.656c0,0.841,0.238,1.316,0.924,1.316c0.322,0,0.561-0.042,0.715-0.084
			l0.056,0.925c-0.237,0.098-0.616,0.168-1.093,0.168c-0.574,0-1.036-0.182-1.33-0.519c-0.351-0.364-0.477-0.966-0.477-1.765v-3.698
			h-1.051v-0.938h1.051v-1.625L507.623,291.818z"/>
		<path d="M513.739,295.601c0-0.7-0.015-1.274-0.056-1.835h1.078l0.057,1.093h0.041c0.379-0.645,1.01-1.247,2.13-1.247
			c0.925,0,1.624,0.561,1.919,1.359h0.027c0.211-0.379,0.477-0.673,0.757-0.883c0.406-0.309,0.854-0.477,1.499-0.477
			c0.896,0,2.227,0.589,2.227,2.941v3.992h-1.204v-3.838c0-1.303-0.476-2.087-1.471-2.087c-0.7,0-1.247,0.519-1.457,1.12
			c-0.056,0.168-0.098,0.393-0.098,0.617v4.188h-1.204v-4.062c0-1.079-0.477-1.863-1.416-1.863c-0.77,0-1.33,0.616-1.526,1.233
			c-0.069,0.182-0.099,0.392-0.099,0.602v4.09h-1.204V295.601z"/>
		<path d="M531.551,297.1c0,2.508-1.737,3.6-3.376,3.6c-1.835,0-3.25-1.344-3.25-3.488c0-2.269,1.485-3.6,3.362-3.6
			C530.234,293.611,531.551,295.026,531.551,297.1z M526.172,297.17c0,1.484,0.854,2.605,2.059,2.605
			c1.177,0,2.059-1.107,2.059-2.634c0-1.148-0.574-2.605-2.03-2.605C526.802,294.536,526.172,295.881,526.172,297.17z"/>
		<path d="M538.957,290.6v8.195c0,0.602,0.014,1.288,0.055,1.75h-1.105l-0.057-1.176h-0.027c-0.379,0.756-1.205,1.33-2.312,1.33
			c-1.639,0-2.898-1.387-2.898-3.445c-0.015-2.256,1.387-3.643,3.039-3.643c1.037,0,1.737,0.49,2.045,1.037h0.028V290.6H538.957z
			 M537.724,296.525c0-0.154-0.015-0.364-0.056-0.519c-0.183-0.784-0.855-1.429-1.779-1.429c-1.275,0-2.031,1.121-2.031,2.619
			c0,1.373,0.672,2.508,2.004,2.508c0.826,0,1.582-0.547,1.807-1.471c0.041-0.168,0.056-0.336,0.056-0.533V296.525z"/>
		<path d="M542.37,291.861c0.014,0.42-0.294,0.756-0.784,0.756c-0.435,0-0.742-0.336-0.742-0.756c0-0.436,0.321-0.771,0.77-0.771
			C542.076,291.09,542.37,291.426,542.37,291.861z M540.997,300.545v-6.779h1.233v6.779H540.997z"/>
		<path d="M544.398,300.545v-5.841h-0.951v-0.938h0.951v-0.364c0-1.793,1.051-2.956,2.956-2.956c0.63,0,1.373,0.197,1.724,0.449
			l-0.351,0.938c-0.294-0.209-0.827-0.392-1.429-0.392c-1.303,0-1.682,0.911-1.682,1.989v0.336h3.937v6.779h-1.218v-5.841h-2.719
			v5.841H544.398z"/>
		<path d="M552.281,297.38c0.027,1.667,1.092,2.353,2.325,2.353c0.882,0,1.415-0.153,1.877-0.35l0.21,0.883
			c-0.434,0.195-1.176,0.42-2.255,0.42c-2.087,0-3.334-1.373-3.334-3.418s1.204-3.656,3.18-3.656c2.214,0,2.802,1.947,2.802,3.193
			c0,0.253-0.028,0.449-0.042,0.575H552.281z M555.895,296.497c0.015-0.784-0.322-2.003-1.709-2.003
			c-1.246,0-1.793,1.148-1.891,2.003H555.895z"/>
		<path d="M564.464,290.6v8.195c0,0.602,0.014,1.288,0.056,1.75h-1.106l-0.056-1.176h-0.028c-0.378,0.756-1.204,1.33-2.312,1.33
			c-1.639,0-2.899-1.387-2.899-3.445c-0.015-2.256,1.387-3.643,3.04-3.643c1.036,0,1.736,0.49,2.045,1.037h0.027V290.6H564.464z
			 M563.23,296.525c0-0.154-0.014-0.364-0.056-0.519c-0.183-0.784-0.854-1.429-1.778-1.429c-1.275,0-2.031,1.121-2.031,2.619
			c0,1.373,0.672,2.508,2.003,2.508c0.826,0,1.583-0.547,1.807-1.471c0.042-0.168,0.056-0.336,0.056-0.533V296.525z"/>
		<path d="M459.129,317.094c-0.321,0.168-1.035,0.392-1.946,0.392c-2.046,0-3.376-1.387-3.376-3.46c0-2.087,1.429-3.6,3.643-3.6
			c0.729,0,1.372,0.182,1.709,0.35l-0.281,0.953c-0.293-0.168-0.756-0.322-1.428-0.322c-1.555,0-2.396,1.148-2.396,2.562
			c0,1.569,1.01,2.536,2.354,2.536c0.701,0,1.163-0.183,1.514-0.337L459.129,317.094z"/>
		<path d="M466.62,313.899c0,2.507-1.737,3.601-3.376,3.601c-1.834,0-3.25-1.346-3.25-3.488c0-2.27,1.485-3.6,3.362-3.6
			C465.304,310.412,466.62,311.826,466.62,313.899z M461.241,313.969c0,1.485,0.854,2.605,2.06,2.605
			c1.176,0,2.059-1.105,2.059-2.633c0-1.148-0.574-2.605-2.031-2.605S461.241,312.681,461.241,313.969z"/>
		<path d="M468.171,312.4c0-0.7-0.015-1.274-0.056-1.835h1.092l0.07,1.12h0.028c0.336-0.644,1.12-1.273,2.241-1.273
			c0.938,0,2.395,0.56,2.395,2.885v4.049h-1.232v-3.908c0-1.093-0.406-2.004-1.568-2.004c-0.812,0-1.443,0.574-1.652,1.262
			c-0.057,0.153-0.084,0.363-0.084,0.574v4.076h-1.233V312.4z"/>
		<path d="M477.369,308.619v1.946h1.766v0.938h-1.766v3.656c0,0.84,0.238,1.316,0.925,1.316c0.322,0,0.561-0.042,0.714-0.084
			l0.057,0.925c-0.238,0.098-0.616,0.168-1.092,0.168c-0.575,0-1.037-0.183-1.332-0.519c-0.35-0.363-0.476-0.967-0.476-1.765v-3.698
			h-1.051v-0.938h1.051v-1.625L477.369,308.619z"/>
		<path d="M481.121,314.18c0.028,1.666,1.094,2.354,2.326,2.354c0.882,0,1.414-0.154,1.877-0.351l0.209,0.882
			c-0.434,0.197-1.176,0.421-2.254,0.421c-2.088,0-3.334-1.373-3.334-3.418s1.204-3.655,3.18-3.655c2.213,0,2.801,1.946,2.801,3.193
			c0,0.252-0.027,0.447-0.041,0.574H481.121z M484.735,313.297c0.015-0.784-0.322-2.003-1.709-2.003
			c-1.247,0-1.793,1.148-1.891,2.003H484.735z"/>
		<path d="M487.449,312.4c0-0.7-0.014-1.274-0.057-1.835h1.093l0.069,1.12h0.029c0.336-0.644,1.12-1.273,2.24-1.273
			c0.939,0,2.396,0.56,2.396,2.885v4.049h-1.232v-3.908c0-1.093-0.406-2.004-1.569-2.004c-0.812,0-1.442,0.574-1.652,1.262
			c-0.057,0.153-0.084,0.363-0.084,0.574v4.076h-1.232V312.4z"/>
		<path d="M496.647,308.619v1.946h1.765v0.938h-1.765v3.656c0,0.84,0.238,1.316,0.925,1.316c0.322,0,0.561-0.042,0.715-0.084
			l0.055,0.925c-0.237,0.098-0.615,0.168-1.092,0.168c-0.574,0-1.037-0.183-1.331-0.519c-0.351-0.363-0.476-0.967-0.476-1.765
			v-3.698h-1.051v-0.938h1.051v-1.625L496.647,308.619z"/>
		<path d="M499.629,316.084c0.363,0.238,1.008,0.49,1.625,0.49c0.896,0,1.316-0.447,1.316-1.008c0-0.588-0.351-0.91-1.262-1.247
			c-1.218-0.435-1.793-1.106-1.793-1.919c0-1.092,0.883-1.988,2.34-1.988c0.687,0,1.289,0.195,1.667,0.42l-0.308,0.896
			c-0.267-0.168-0.757-0.393-1.387-0.393c-0.729,0-1.135,0.42-1.135,0.924c0,0.561,0.406,0.812,1.288,1.149
			c1.177,0.448,1.779,1.036,1.779,2.045c0,1.19-0.925,2.031-2.536,2.031c-0.742,0-1.428-0.183-1.904-0.462L499.629,316.084z"/>
		<path d="M509.793,308.619v1.946h1.766v0.938h-1.766v3.656c0,0.84,0.238,1.316,0.924,1.316c0.322,0,0.561-0.042,0.715-0.084
			l0.057,0.925c-0.238,0.098-0.617,0.168-1.093,0.168c-0.575,0-1.036-0.183-1.331-0.519c-0.35-0.363-0.477-0.967-0.477-1.765v-3.698
			h-1.051v-0.938h1.051v-1.625L509.793,308.619z"/>
		<path d="M518.993,313.899c0,2.507-1.737,3.601-3.376,3.601c-1.834,0-3.25-1.346-3.25-3.488c0-2.27,1.485-3.6,3.362-3.6
			C517.677,310.412,518.993,311.826,518.993,313.899z M513.614,313.969c0,1.485,0.854,2.605,2.06,2.605
			c1.176,0,2.059-1.105,2.059-2.633c0-1.148-0.574-2.605-2.031-2.605S513.614,312.681,513.614,313.969z"/>
		<path d="M454.129,332.885c0.364,0.238,1.008,0.49,1.625,0.49c0.896,0,1.316-0.448,1.316-1.008c0-0.589-0.35-0.911-1.261-1.247
			c-1.218-0.435-1.793-1.106-1.793-1.919c0-1.093,0.883-1.989,2.339-1.989c0.688,0,1.289,0.196,1.668,0.42l-0.309,0.896
			c-0.266-0.168-0.756-0.392-1.387-0.392c-0.729,0-1.135,0.42-1.135,0.924c0,0.561,0.406,0.812,1.289,1.148
			c1.176,0.449,1.779,1.037,1.779,2.045c0,1.191-0.926,2.031-2.536,2.031c-0.742,0-1.429-0.182-1.905-0.462L454.129,332.885z"/>
		<path d="M461.326,325.419v1.946h1.765v0.939h-1.765v3.656c0,0.84,0.238,1.316,0.924,1.316c0.322,0,0.561-0.043,0.715-0.084
			l0.056,0.924c-0.237,0.098-0.616,0.168-1.093,0.168c-0.574,0-1.036-0.182-1.33-0.518c-0.351-0.364-0.477-0.967-0.477-1.766v-3.697
			h-1.051v-0.939h1.051v-1.624L461.326,325.419z"/>
		<path d="M468.229,334.146l-0.098-0.854h-0.042c-0.378,0.532-1.106,1.009-2.073,1.009c-1.373,0-2.073-0.967-2.073-1.947
			c0-1.639,1.457-2.535,4.076-2.521v-0.14c0-0.561-0.153-1.569-1.54-1.569c-0.631,0-1.289,0.196-1.766,0.505l-0.28-0.812
			c0.561-0.365,1.372-0.603,2.228-0.603c2.072,0,2.577,1.415,2.577,2.773v2.535c0,0.589,0.028,1.163,0.112,1.625H468.229z
			 M468.047,330.686c-1.346-0.027-2.871,0.21-2.871,1.527c0,0.798,0.531,1.176,1.162,1.176c0.883,0,1.442-0.561,1.639-1.135
			c0.042-0.125,0.07-0.266,0.07-0.392V330.686z"/>
		<path d="M471.223,329.201c0-0.701-0.014-1.275-0.057-1.836h1.094l0.07,1.121h0.027c0.336-0.645,1.121-1.274,2.241-1.274
			c0.938,0,2.396,0.56,2.396,2.886v4.048h-1.232v-3.908c0-1.093-0.406-2.003-1.569-2.003c-0.812,0-1.442,0.574-1.653,1.261
			c-0.056,0.153-0.084,0.364-0.084,0.574v4.076h-1.232V329.201z"/>
		<path d="M484.848,324.2v8.194c0,0.603,0.014,1.289,0.057,1.751h-1.107l-0.056-1.177h-0.028c-0.378,0.756-1.204,1.331-2.311,1.331
			c-1.639,0-2.9-1.387-2.9-3.446c-0.014-2.255,1.387-3.642,3.04-3.642c1.036,0,1.737,0.49,2.046,1.036h0.027V324.2H484.848z
			 M483.615,330.125c0-0.154-0.014-0.363-0.057-0.518c-0.182-0.785-0.854-1.43-1.778-1.43c-1.274,0-2.031,1.121-2.031,2.62
			c0,1.372,0.673,2.507,2.003,2.507c0.826,0,1.583-0.546,1.807-1.471c0.043-0.168,0.057-0.336,0.057-0.532V330.125z"/>
		<path d="M490.643,334.146l-0.098-0.854h-0.042c-0.378,0.532-1.106,1.009-2.073,1.009c-1.373,0-2.073-0.967-2.073-1.947
			c0-1.639,1.457-2.535,4.076-2.521v-0.14c0-0.561-0.153-1.569-1.54-1.569c-0.631,0-1.289,0.196-1.766,0.505l-0.28-0.812
			c0.561-0.365,1.372-0.603,2.228-0.603c2.072,0,2.577,1.415,2.577,2.773v2.535c0,0.589,0.028,1.163,0.112,1.625H490.643z
			 M490.461,330.686c-1.346-0.027-2.871,0.21-2.871,1.527c0,0.798,0.531,1.176,1.162,1.176c0.883,0,1.442-0.561,1.639-1.135
			c0.042-0.125,0.07-0.266,0.07-0.392V330.686z"/>
		<path d="M493.637,329.48c0-0.798-0.014-1.484-0.057-2.115h1.079l0.042,1.332h0.057c0.308-0.911,1.051-1.485,1.877-1.485
			c0.14,0,0.238,0.014,0.35,0.042v1.162c-0.126-0.027-0.252-0.041-0.42-0.041c-0.869,0-1.484,0.658-1.652,1.582
			c-0.029,0.168-0.057,0.364-0.057,0.574v3.614h-1.219V329.48z"/>
		<path d="M503.93,324.2v8.194c0,0.603,0.014,1.289,0.057,1.751h-1.107l-0.056-1.177h-0.028c-0.378,0.756-1.204,1.331-2.311,1.331
			c-1.639,0-2.9-1.387-2.9-3.446c-0.014-2.255,1.387-3.642,3.04-3.642c1.036,0,1.737,0.49,2.046,1.036h0.027V324.2H503.93z
			 M502.697,330.125c0-0.154-0.014-0.363-0.057-0.518c-0.182-0.785-0.854-1.43-1.778-1.43c-1.274,0-2.031,1.121-2.031,2.62
			c0,1.372,0.673,2.507,2.003,2.507c0.826,0,1.583-0.546,1.807-1.471c0.043-0.168,0.057-0.336,0.057-0.532V330.125z"/>
		<path d="M515.074,330.699c0,2.508-1.737,3.601-3.376,3.601c-1.835,0-3.25-1.345-3.25-3.488c0-2.269,1.485-3.6,3.362-3.6
			C513.758,327.212,515.074,328.627,515.074,330.699z M509.695,330.77c0,1.484,0.854,2.605,2.059,2.605
			c1.177,0,2.059-1.106,2.059-2.633c0-1.148-0.574-2.605-2.03-2.605C510.325,328.137,509.695,329.48,509.695,330.77z"/>
		<path d="M522.298,332.297c0,0.7,0.014,1.316,0.056,1.849h-1.092l-0.07-1.106h-0.028c-0.322,0.546-1.036,1.261-2.241,1.261
			c-1.064,0-2.34-0.589-2.34-2.97v-3.965h1.233v3.755c0,1.288,0.392,2.157,1.513,2.157c0.826,0,1.4-0.574,1.625-1.121
			c0.07-0.182,0.111-0.406,0.111-0.631v-4.16h1.233V332.297z"/>
		<path d="M525.823,325.419v1.946h1.765v0.939h-1.765v3.656c0,0.84,0.238,1.316,0.925,1.316c0.322,0,0.561-0.043,0.715-0.084
			l0.055,0.924c-0.237,0.098-0.615,0.168-1.092,0.168c-0.574,0-1.037-0.182-1.331-0.518c-0.351-0.364-0.476-0.967-0.476-1.766
			v-3.697h-1.051v-0.939h1.051v-1.624L525.823,325.419z"/>
	</g>
	<g>
		<rect x="92.098" y="290" fill="none" width="104" height="51.171"/>
		<path d="M109.484,299.939v-2.479h-4.23v-0.812l4.062-5.813h1.331v5.659h1.275v0.967h-1.275v2.479H109.484z M109.484,296.494
			v-3.039c0-0.477,0.014-0.953,0.042-1.43h-0.042c-0.28,0.533-0.504,0.925-0.756,1.346l-2.227,3.095v0.028H109.484z"/>
		<path d="M112.505,301.635c0.995-1.387,1.765-3.207,1.765-5.729c0-2.508-0.756-4.301-1.765-5.688h0.952
			c0.896,1.148,1.835,2.941,1.835,5.701c0,2.745-0.939,4.524-1.835,5.715H112.505z"/>
		<path d="M125.122,295.514h-3.67v3.404h4.09v1.021h-5.309v-9.44h5.099v1.022h-3.88v2.983h3.67V295.514z"/>
		<path d="M127.079,295.275c0-0.799-0.014-1.484-0.056-2.115h1.079l0.042,1.331h0.056c0.308-0.911,1.051-1.485,1.877-1.485
			c0.14,0,0.238,0.014,0.351,0.043v1.162c-0.126-0.028-0.252-0.042-0.42-0.042c-0.869,0-1.485,0.658-1.653,1.583
			c-0.028,0.168-0.056,0.363-0.056,0.574v3.613h-1.219V295.275z"/>
		<path d="M135.341,299.939l-0.098-0.854h-0.042c-0.378,0.531-1.107,1.008-2.073,1.008c-1.373,0-2.073-0.967-2.073-1.947
			c0-1.639,1.457-2.535,4.076-2.521v-0.14c0-0.56-0.154-1.569-1.541-1.569c-0.63,0-1.289,0.197-1.765,0.505l-0.28-0.812
			c0.561-0.364,1.373-0.603,2.227-0.603c2.073,0,2.578,1.415,2.578,2.773v2.535c0,0.589,0.028,1.163,0.112,1.625H135.341z
			 M135.16,296.48c-1.345-0.028-2.872,0.21-2.872,1.526c0,0.798,0.532,1.177,1.163,1.177c0.882,0,1.442-0.561,1.639-1.135
			c0.042-0.126,0.07-0.266,0.07-0.393V296.48z"/>
		<path d="M138.167,298.68c0.364,0.238,1.008,0.49,1.625,0.49c0.896,0,1.316-0.449,1.316-1.009c0-0.589-0.35-0.911-1.261-1.247
			c-1.218-0.434-1.793-1.106-1.793-1.919c0-1.093,0.883-1.989,2.339-1.989c0.687,0,1.289,0.196,1.667,0.42l-0.308,0.896
			c-0.266-0.168-0.756-0.392-1.387-0.392c-0.729,0-1.135,0.421-1.135,0.925c0,0.561,0.406,0.812,1.289,1.148
			c1.177,0.448,1.779,1.037,1.779,2.045c0,1.191-0.925,2.031-2.536,2.031c-0.742,0-1.429-0.182-1.905-0.463L138.167,298.68z"/>
		<path d="M144.566,296.774c0.028,1.667,1.093,2.353,2.325,2.353c0.882,0,1.415-0.153,1.877-0.35l0.21,0.883
			c-0.434,0.195-1.176,0.42-2.255,0.42c-2.087,0-3.334-1.373-3.334-3.418s1.205-3.656,3.18-3.656c2.213,0,2.802,1.947,2.802,3.193
			c0,0.253-0.028,0.449-0.042,0.575H144.566z M148.18,295.892c0.014-0.784-0.322-2.003-1.709-2.003
			c-1.247,0-1.793,1.148-1.891,2.003H148.18z"/>
		<path d="M153.861,295.373c0-0.868-0.028-1.568-0.056-2.213h1.107l0.056,1.162h0.028c0.504-0.826,1.303-1.316,2.409-1.316
			c1.639,0,2.872,1.387,2.872,3.446c0,2.437-1.485,3.642-3.082,3.642c-0.896,0-1.681-0.393-2.087-1.064h-0.028v3.684h-1.219V295.373
			z M155.08,297.181c0,0.182,0.028,0.351,0.056,0.504c0.224,0.854,0.966,1.442,1.849,1.442c1.302,0,2.059-1.064,2.059-2.619
			c0-1.358-0.714-2.521-2.017-2.521c-0.841,0-1.625,0.603-1.863,1.527c-0.042,0.154-0.084,0.336-0.084,0.504V297.181z"/>
		<path d="M165.581,299.939l-0.098-0.854h-0.042c-0.378,0.531-1.107,1.008-2.073,1.008c-1.373,0-2.073-0.967-2.073-1.947
			c0-1.639,1.457-2.535,4.076-2.521v-0.14c0-0.56-0.154-1.569-1.541-1.569c-0.63,0-1.289,0.197-1.765,0.505l-0.28-0.812
			c0.561-0.364,1.373-0.603,2.227-0.603c2.073,0,2.578,1.415,2.578,2.773v2.535c0,0.589,0.028,1.163,0.112,1.625H165.581z
			 M165.399,296.48c-1.345-0.028-2.872,0.21-2.872,1.526c0,0.798,0.532,1.177,1.163,1.177c0.882,0,1.442-0.561,1.639-1.135
			c0.042-0.126,0.07-0.266,0.07-0.393V296.48z"/>
		<path d="M170.003,291.213v1.947h1.765v0.938h-1.765v3.656c0,0.841,0.238,1.316,0.924,1.316c0.322,0,0.561-0.042,0.714-0.084
			l0.056,0.925c-0.238,0.098-0.616,0.168-1.092,0.168c-0.575,0-1.037-0.182-1.331-0.519c-0.35-0.364-0.476-0.966-0.476-1.765v-3.698
			h-1.051v-0.938h1.051v-1.625L170.003,291.213z"/>
		<path d="M174.637,291.213v1.947h1.765v0.938h-1.765v3.656c0,0.841,0.238,1.316,0.924,1.316c0.322,0,0.561-0.042,0.714-0.084
			l0.056,0.925c-0.238,0.098-0.616,0.168-1.092,0.168c-0.575,0-1.037-0.182-1.331-0.519c-0.35-0.364-0.476-0.966-0.476-1.765v-3.698
			h-1.051v-0.938h1.051v-1.625L174.637,291.213z"/>
		<path d="M178.389,296.774c0.028,1.667,1.092,2.353,2.325,2.353c0.882,0,1.415-0.153,1.877-0.35l0.21,0.883
			c-0.434,0.195-1.176,0.42-2.255,0.42c-2.087,0-3.334-1.373-3.334-3.418s1.205-3.656,3.18-3.656c2.213,0,2.802,1.947,2.802,3.193
			c0,0.253-0.028,0.449-0.042,0.575H178.389z M182.002,295.892c0.014-0.784-0.322-2.003-1.709-2.003
			c-1.247,0-1.793,1.148-1.891,2.003H182.002z"/>
		<path d="M184.716,295.275c0-0.799-0.014-1.484-0.056-2.115h1.079l0.042,1.331h0.056c0.308-0.911,1.051-1.485,1.877-1.485
			c0.14,0,0.238,0.014,0.351,0.043v1.162c-0.126-0.028-0.252-0.042-0.42-0.042c-0.869,0-1.485,0.658-1.653,1.583
			c-0.028,0.168-0.056,0.363-0.056,0.574v3.613h-1.219V295.275z"/>
		<path d="M189.35,294.995c0-0.7-0.014-1.274-0.056-1.835h1.093l0.07,1.121h0.028c0.336-0.645,1.121-1.275,2.241-1.275
			c0.938,0,2.395,0.561,2.395,2.886v4.048h-1.232v-3.908c0-1.092-0.406-2.002-1.569-2.002c-0.812,0-1.443,0.574-1.653,1.26
			c-0.056,0.154-0.084,0.365-0.084,0.574v4.076h-1.233V294.995z"/>
		<path d="M95.706,316.74c0.028-0.463,0.056-1.148,0.056-1.752v-8.193h1.219v4.258h0.028c0.435-0.756,1.219-1.246,2.312-1.246
			c1.681,0,2.872,1.4,2.857,3.459c0,2.424-1.527,3.629-3.04,3.629c-0.98,0-1.765-0.379-2.27-1.275h-0.042l-0.056,1.121H95.706z
			 M96.981,314.022c0,0.153,0.028,0.308,0.056,0.448c0.238,0.854,0.953,1.442,1.849,1.442c1.289,0,2.059-1.05,2.059-2.604
			c0-1.359-0.701-2.521-2.017-2.521c-0.841,0-1.625,0.574-1.877,1.512c-0.028,0.141-0.07,0.309-0.07,0.505V314.022z"/>
		<path d="M109.401,314.891c0,0.701,0.014,1.316,0.056,1.85h-1.092l-0.07-1.107h-0.028c-0.322,0.547-1.037,1.262-2.241,1.262
			c-1.064,0-2.339-0.589-2.339-2.971v-3.964h1.233v3.754c0,1.289,0.392,2.157,1.513,2.157c0.826,0,1.401-0.574,1.625-1.121
			c0.07-0.182,0.112-0.406,0.112-0.63v-4.16h1.233V314.891z"/>
		<path d="M115.63,316.74v-5.842h-2.844v5.842h-1.219v-5.842h-0.952v-0.938h0.952v-0.224c0-0.953,0.224-1.779,0.757-2.312
			c0.392-0.392,0.952-0.63,1.708-0.63c0.393,0,0.756,0.125,0.967,0.238l-0.252,0.91c-0.182-0.084-0.448-0.168-0.728-0.168
			c-0.967,0-1.233,0.826-1.233,1.891v0.294h2.844v-0.322c0-0.952,0.224-1.821,0.798-2.367c0.462-0.448,1.079-0.63,1.639-0.63
			c0.448,0,0.812,0.098,1.051,0.195l-0.154,0.953c-0.196-0.084-0.434-0.154-0.798-0.154c-1.037,0-1.316,0.925-1.316,1.961v0.364
			h1.639v0.938h-1.625v5.842H115.63z"/>
		<path d="M120.109,313.574c0.028,1.666,1.093,2.354,2.325,2.354c0.882,0,1.415-0.154,1.877-0.351l0.21,0.882
			c-0.434,0.197-1.176,0.421-2.255,0.421c-2.087,0-3.334-1.373-3.334-3.418s1.205-3.655,3.18-3.655c2.213,0,2.802,1.946,2.802,3.193
			c0,0.252-0.028,0.447-0.042,0.574H120.109z M123.723,312.691c0.014-0.784-0.322-2.003-1.709-2.003
			c-1.247,0-1.793,1.148-1.891,2.003H123.723z"/>
		<path d="M126.436,312.075c0-0.798-0.014-1.485-0.056-2.115h1.079l0.042,1.331h0.056c0.308-0.91,1.051-1.484,1.877-1.484
			c0.14,0,0.238,0.014,0.35,0.041v1.163c-0.126-0.028-0.252-0.042-0.42-0.042c-0.869,0-1.485,0.658-1.653,1.582
			c-0.028,0.169-0.056,0.365-0.056,0.575v3.614h-1.219V312.075z"/>
		<path d="M137.736,316.74l-0.098-0.855h-0.042c-0.378,0.533-1.107,1.01-2.073,1.01c-1.373,0-2.073-0.967-2.073-1.947
			c0-1.639,1.457-2.535,4.076-2.521v-0.141c0-0.561-0.154-1.568-1.541-1.568c-0.63,0-1.289,0.195-1.765,0.504l-0.28-0.812
			c0.561-0.364,1.373-0.602,2.227-0.602c2.073,0,2.578,1.414,2.578,2.773v2.535c0,0.588,0.028,1.162,0.112,1.625H137.736z
			 M137.554,313.279c-1.345-0.027-2.872,0.211-2.872,1.527c0,0.799,0.532,1.177,1.163,1.177c0.882,0,1.442-0.561,1.639-1.135
			c0.042-0.126,0.07-0.267,0.07-0.392V313.279z"/>
		<path d="M140.73,311.795c0-0.7-0.014-1.274-0.056-1.835h1.093l0.07,1.12h0.028c0.336-0.644,1.121-1.273,2.241-1.273
			c0.938,0,2.395,0.56,2.395,2.885v4.049h-1.232v-3.908c0-1.093-0.406-2.004-1.569-2.004c-0.812,0-1.443,0.574-1.653,1.262
			c-0.056,0.153-0.084,0.363-0.084,0.574v4.076h-1.233V311.795z"/>
		<path d="M154.355,306.795v8.193c0,0.604,0.014,1.289,0.056,1.752h-1.106l-0.056-1.178h-0.028
			c-0.378,0.757-1.205,1.332-2.312,1.332c-1.639,0-2.899-1.388-2.899-3.447c-0.014-2.254,1.387-3.641,3.04-3.641
			c1.037,0,1.737,0.49,2.045,1.036h0.028v-4.048H154.355z M153.123,312.72c0-0.154-0.014-0.364-0.056-0.519
			c-0.182-0.784-0.854-1.429-1.779-1.429c-1.275,0-2.031,1.12-2.031,2.62c0,1.372,0.672,2.507,2.003,2.507
			c0.826,0,1.583-0.546,1.807-1.471c0.042-0.169,0.056-0.337,0.056-0.532V312.72z"/>
		<path d="M159.364,312.075c0-0.798-0.014-1.485-0.056-2.115h1.079l0.042,1.331h0.056c0.308-0.91,1.051-1.484,1.877-1.484
			c0.14,0,0.238,0.014,0.35,0.041v1.163c-0.126-0.028-0.252-0.042-0.42-0.042c-0.869,0-1.485,0.658-1.653,1.582
			c-0.028,0.169-0.056,0.365-0.056,0.575v3.614h-1.219V312.075z"/>
		<path d="M164.488,313.574c0.028,1.666,1.092,2.354,2.325,2.354c0.882,0,1.415-0.154,1.877-0.351l0.21,0.882
			c-0.434,0.197-1.176,0.421-2.255,0.421c-2.087,0-3.334-1.373-3.334-3.418s1.205-3.655,3.18-3.655c2.213,0,2.802,1.946,2.802,3.193
			c0,0.252-0.028,0.447-0.042,0.574H164.488z M168.102,312.691c0.014-0.784-0.322-2.003-1.709-2.003
			c-1.247,0-1.793,1.148-1.891,2.003H168.102z"/>
		<path d="M170.815,312.174c0-0.869-0.028-1.569-0.056-2.214h1.107l0.056,1.163h0.028c0.504-0.826,1.303-1.316,2.409-1.316
			c1.639,0,2.872,1.387,2.872,3.445c0,2.438-1.485,3.643-3.082,3.643c-0.896,0-1.681-0.393-2.087-1.065h-0.028v3.685h-1.219V312.174
			z M172.034,313.98c0,0.182,0.028,0.35,0.056,0.504c0.224,0.854,0.966,1.443,1.849,1.443c1.303,0,2.06-1.064,2.06-2.619
			c0-1.359-0.715-2.521-2.017-2.521c-0.841,0-1.625,0.602-1.863,1.526c-0.042,0.153-0.084,0.336-0.084,0.504V313.98z"/>
		<path d="M179.468,313.574c0.028,1.666,1.092,2.354,2.325,2.354c0.882,0,1.415-0.154,1.877-0.351l0.21,0.882
			c-0.434,0.197-1.176,0.421-2.255,0.421c-2.087,0-3.334-1.373-3.334-3.418s1.205-3.655,3.18-3.655c2.213,0,2.802,1.946,2.802,3.193
			c0,0.252-0.028,0.447-0.042,0.574H179.468z M183.082,312.691c0.014-0.784-0.322-2.003-1.709-2.003
			c-1.247,0-1.793,1.148-1.891,2.003H183.082z"/>
		<path d="M189.549,316.74l-0.098-0.855h-0.042c-0.378,0.533-1.107,1.01-2.073,1.01c-1.373,0-2.073-0.967-2.073-1.947
			c0-1.639,1.457-2.535,4.076-2.521v-0.141c0-0.561-0.154-1.568-1.541-1.568c-0.63,0-1.289,0.195-1.765,0.504l-0.28-0.812
			c0.561-0.364,1.373-0.602,2.227-0.602c2.073,0,2.578,1.414,2.578,2.773v2.535c0,0.588,0.028,1.162,0.112,1.625H189.549z
			 M189.367,313.279c-1.345-0.027-2.871,0.211-2.871,1.527c0,0.799,0.532,1.177,1.163,1.177c0.882,0,1.442-0.561,1.639-1.135
			c0.042-0.126,0.07-0.267,0.07-0.392V313.279z"/>
		<path d="M193.972,308.014v1.946h1.765v0.938h-1.765v3.656c0,0.84,0.238,1.316,0.924,1.316c0.322,0,0.561-0.042,0.715-0.084
			l0.056,0.925c-0.238,0.098-0.616,0.168-1.092,0.168c-0.575,0-1.037-0.183-1.331-0.519c-0.35-0.363-0.476-0.967-0.476-1.765v-3.698
			h-1.051v-0.938h1.051v-1.625L193.972,308.014z"/>
		<path d="M115.155,331.691c0,0.7,0.014,1.316,0.056,1.849h-1.092l-0.07-1.106h-0.028c-0.322,0.546-1.037,1.261-2.241,1.261
			c-1.064,0-2.339-0.589-2.339-2.97v-3.965h1.233v3.755c0,1.288,0.392,2.157,1.513,2.157c0.826,0,1.401-0.574,1.625-1.121
			c0.07-0.182,0.112-0.406,0.112-0.631v-4.16h1.233V331.691z"/>
		<path d="M117.196,328.596c0-0.701-0.014-1.275-0.056-1.836h1.093l0.07,1.121h0.028c0.336-0.645,1.121-1.274,2.241-1.274
			c0.938,0,2.395,0.56,2.395,2.886v4.048h-1.232v-3.908c0-1.093-0.406-2.003-1.569-2.003c-0.812,0-1.443,0.574-1.653,1.261
			c-0.056,0.153-0.084,0.364-0.084,0.574v4.076h-1.233V328.596z"/>
		<path d="M126.395,324.813v1.946h1.765v0.939h-1.765v3.656c0,0.84,0.238,1.316,0.924,1.316c0.322,0,0.561-0.043,0.715-0.084
			l0.056,0.924c-0.238,0.098-0.616,0.168-1.092,0.168c-0.575,0-1.037-0.182-1.331-0.518c-0.35-0.364-0.476-0.967-0.476-1.766v-3.697
			h-1.051v-0.939h1.051v-1.624L126.395,324.813z"/>
		<path d="M130.917,324.855c0.014,0.42-0.294,0.756-0.785,0.756c-0.434,0-0.742-0.336-0.742-0.756c0-0.435,0.322-0.771,0.77-0.771
			C130.622,324.085,130.917,324.421,130.917,324.855z M129.543,333.54v-6.78h1.233v6.78H129.543z"/>
		<path d="M132.819,323.595h1.233v9.945h-1.233V323.595z"/>
		<path d="M139.777,330.375c0.028,1.666,1.092,2.353,2.325,2.353c0.882,0,1.415-0.153,1.877-0.351l0.21,0.883
			c-0.434,0.196-1.176,0.42-2.255,0.42c-2.087,0-3.334-1.372-3.334-3.418c0-2.045,1.205-3.655,3.18-3.655
			c2.213,0,2.802,1.946,2.802,3.193c0,0.253-0.028,0.448-0.042,0.575H139.777z M143.391,329.492
			c0.014-0.785-0.322-2.004-1.709-2.004c-1.247,0-1.793,1.148-1.891,2.004H143.391z"/>
		<path d="M146.104,328.596c0-0.701-0.014-1.275-0.056-1.836h1.093l0.07,1.121h0.028c0.336-0.645,1.121-1.274,2.241-1.274
			c0.938,0,2.395,0.56,2.395,2.886v4.048h-1.232v-3.908c0-1.093-0.406-2.003-1.569-2.003c-0.812,0-1.443,0.574-1.653,1.261
			c-0.056,0.153-0.084,0.364-0.084,0.574v4.076h-1.233V328.596z"/>
		<path d="M159.73,323.595v8.194c0,0.603,0.014,1.289,0.056,1.751h-1.106l-0.056-1.177h-0.028c-0.378,0.756-1.205,1.331-2.312,1.331
			c-1.639,0-2.899-1.387-2.899-3.446c-0.014-2.255,1.387-3.642,3.04-3.642c1.037,0,1.737,0.49,2.045,1.036h0.028v-4.048H159.73z
			 M158.497,329.52c0-0.154-0.014-0.363-0.056-0.518c-0.182-0.785-0.854-1.43-1.779-1.43c-1.275,0-2.031,1.121-2.031,2.62
			c0,1.372,0.672,2.507,2.003,2.507c0.826,0,1.583-0.546,1.807-1.471c0.042-0.168,0.056-0.336,0.056-0.532V329.52z"/>
		<path d="M170.874,330.094c0,2.508-1.737,3.601-3.375,3.601c-1.835,0-3.25-1.345-3.25-3.488c0-2.269,1.485-3.6,3.362-3.6
			C169.557,326.606,170.874,328.021,170.874,330.094z M165.495,330.164c0,1.484,0.854,2.605,2.059,2.605
			c1.177,0,2.059-1.106,2.059-2.633c0-1.148-0.574-2.605-2.031-2.605C166.125,327.531,165.495,328.875,165.495,330.164z"/>
		<path d="M172.55,333.54v-5.841h-0.952v-0.939h0.952v-0.322c0-0.951,0.21-1.82,0.785-2.367c0.462-0.447,1.079-0.63,1.653-0.63
			c0.434,0,0.812,0.099,1.051,0.196l-0.168,0.953c-0.182-0.084-0.434-0.154-0.784-0.154c-1.051,0-1.317,0.924-1.317,1.961v0.363
			h1.639v0.939h-1.639v5.841H172.55z"/>
		<path d="M179.606,333.54v-5.841h-0.952v-0.939h0.952v-0.363c0-1.793,1.051-2.956,2.956-2.956c0.63,0,1.373,0.196,1.723,0.448
			l-0.35,0.938c-0.294-0.21-0.827-0.392-1.429-0.392c-1.303,0-1.681,0.91-1.681,1.988v0.336h3.936v6.78h-1.218v-5.841h-2.718v5.841
			H179.606z"/>
		<path d="M186.802,323.595h1.233v9.945h-1.233V323.595z"/>
		<path d="M190.792,330.375c0.028,1.666,1.092,2.353,2.325,2.353c0.882,0,1.415-0.153,1.877-0.351l0.21,0.883
			c-0.434,0.196-1.176,0.42-2.255,0.42c-2.087,0-3.334-1.372-3.334-3.418c0-2.045,1.205-3.655,3.18-3.655
			c2.213,0,2.802,1.946,2.802,3.193c0,0.253-0.028,0.448-0.042,0.575H190.792z M194.406,329.492
			c0.014-0.785-0.322-2.004-1.709-2.004c-1.247,0-1.793,1.148-1.891,2.004H194.406z"/>
	</g>
</g>
<g id="Layer_3" display="none">
	<g display="inline">
		<rect x="419" y="114" fill="none" width="76.396" height="18"/>
		<path d="M420.955,114.437v3.382h3.91v-3.382h1.055v8.083h-1.055v-3.79h-3.91v3.79h-1.043v-8.083H420.955z"/>
		<path d="M432.952,119.57c0,2.146-1.487,3.082-2.89,3.082c-1.572,0-2.783-1.151-2.783-2.986c0-1.943,1.271-3.082,2.879-3.082
			C431.825,116.583,432.952,117.794,432.952,119.57z M428.347,119.629c0,1.271,0.731,2.231,1.763,2.231
			c1.008,0,1.764-0.947,1.764-2.255c0-0.983-0.492-2.23-1.739-2.23S428.347,118.526,428.347,119.629z"/>
		<path d="M434.287,114.005h1.056v8.515h-1.056V114.005z"/>
		<path d="M442.133,114.005v7.016c0,0.516,0.012,1.103,0.047,1.499h-0.947l-0.047-1.007h-0.024
			c-0.324,0.647-1.032,1.139-1.979,1.139c-1.402,0-2.482-1.187-2.482-2.95c-0.012-1.931,1.188-3.118,2.603-3.118
			c0.888,0,1.487,0.419,1.751,0.887h0.024v-3.466H442.133z M441.077,119.078c0-0.132-0.013-0.312-0.048-0.444
			c-0.156-0.672-0.732-1.224-1.523-1.224c-1.092,0-1.739,0.959-1.739,2.243c0,1.175,0.575,2.146,1.716,2.146
			c0.707,0,1.354-0.468,1.547-1.259c0.035-0.144,0.048-0.288,0.048-0.456V119.078z"/>
		<path d="M446.323,121.249c0.468,0.288,1.151,0.528,1.871,0.528c1.067,0,1.69-0.563,1.69-1.379c0-0.755-0.432-1.187-1.522-1.607
			c-1.319-0.468-2.135-1.151-2.135-2.291c0-1.259,1.043-2.195,2.614-2.195c0.828,0,1.428,0.192,1.787,0.396l-0.288,0.852
			c-0.264-0.144-0.804-0.384-1.535-0.384c-1.103,0-1.522,0.66-1.522,1.211c0,0.755,0.491,1.127,1.606,1.559
			c1.367,0.528,2.063,1.188,2.063,2.375c0,1.247-0.924,2.327-2.831,2.327c-0.779,0-1.631-0.228-2.062-0.516L446.323,121.249z"/>
		<path d="M452.348,118.61c0-0.744-0.024-1.343-0.049-1.895h0.947l0.049,0.995h0.023c0.432-0.708,1.115-1.127,2.062-1.127
			c1.404,0,2.459,1.187,2.459,2.95c0,2.087-1.271,3.118-2.639,3.118c-0.768,0-1.439-0.336-1.787-0.912h-0.023v3.154h-1.043V118.61z
			 M453.391,120.157c0,0.156,0.023,0.3,0.048,0.432c0.192,0.732,0.827,1.235,1.583,1.235c1.115,0,1.764-0.911,1.764-2.243
			c0-1.163-0.612-2.159-1.728-2.159c-0.72,0-1.392,0.516-1.595,1.307c-0.036,0.132-0.072,0.288-0.072,0.432V120.157z"/>
		<path d="M462.389,122.52l-0.084-0.731h-0.035c-0.324,0.456-0.947,0.863-1.775,0.863c-1.176,0-1.775-0.828-1.775-1.667
			c0-1.403,1.248-2.171,3.49-2.159v-0.12c0-0.479-0.132-1.343-1.319-1.343c-0.54,0-1.103,0.168-1.511,0.432l-0.24-0.695
			c0.48-0.312,1.176-0.516,1.907-0.516c1.774,0,2.206,1.211,2.206,2.375v2.171c0,0.503,0.024,0.995,0.097,1.391H462.389z
			 M462.233,119.558c-1.151-0.024-2.459,0.18-2.459,1.307c0,0.684,0.456,1.008,0.995,1.008c0.756,0,1.236-0.48,1.404-0.972
			c0.035-0.108,0.06-0.228,0.06-0.336V119.558z"/>
		<path d="M469.096,122.304c-0.275,0.144-0.887,0.336-1.666,0.336c-1.752,0-2.891-1.188-2.891-2.962
			c0-1.787,1.223-3.083,3.118-3.083c0.624,0,1.175,0.156,1.463,0.3l-0.239,0.815c-0.252-0.144-0.648-0.276-1.224-0.276
			c-1.331,0-2.052,0.984-2.052,2.195c0,1.343,0.864,2.171,2.016,2.171c0.6,0,0.996-0.156,1.295-0.288L469.096,122.304z"/>
		<path d="M470.851,119.81c0.024,1.427,0.936,2.015,1.991,2.015c0.755,0,1.211-0.132,1.606-0.3l0.181,0.756
			c-0.373,0.168-1.008,0.36-1.932,0.36c-1.787,0-2.854-1.175-2.854-2.927c0-1.751,1.032-3.13,2.723-3.13
			c1.896,0,2.399,1.667,2.399,2.734c0,0.216-0.025,0.384-0.037,0.492H470.851z M473.945,119.054
			c0.012-0.671-0.276-1.715-1.464-1.715c-1.067,0-1.535,0.983-1.619,1.715H473.945z"/>
	</g>
	
		<rect x="419" y="129" display="inline" fill="none" stroke="#FF7BAC" stroke-width="6" stroke-miterlimit="10" width="141" height="32"/>
	<g display="inline">
		<g>
			<path fill="none" stroke="#FF7BAC" stroke-width="3" stroke-miterlimit="10" d="M345.273,184.219
				c21.285,11.044,49.356,7.252,69.488-11.321"/>
			<g>
				<path fill="#FF7BAC" d="M330.879,173.227c4.974,7.605,10.27,18.225,12.144,26.714l4.329-14.542l12.627-8.405
					C351.314,177.693,339.607,175.75,330.879,173.227z"/>
			</g>
		</g>
	</g>
	<g display="inline">
		<g>
			<path fill="none" stroke="#7AC943" stroke-width="3" stroke-miterlimit="10" d="M401.367,111.066
				c-21.285-11.044-49.356-7.252-69.488,11.321"/>
			<g>
				<path fill="#7AC943" d="M415.762,122.059c-4.974-7.605-10.27-18.225-12.144-26.713l-4.329,14.542l-12.627,8.405
					C395.326,117.591,407.033,119.536,415.762,122.059z"/>
			</g>
		</g>
	</g>
</g>
</svg>
